{"glyphs":{"0":{"ha":1003,"x_min":64,"x_max":972,"o":"m 518 -14 q 281 48 383 -14 q 121 223 178 110 q 64 488 64 336 q 121 751 64 638 q 281 925 178 864 q 518 986 383 986 q 756 925 653 986 q 915 751 858 864 q 972 488 972 638 q 915 222 972 336 q 756 47 858 108 q 518 -14 653 -14 m 522 39 q 640 96 586 39 q 725 256 693 153 q 757 488 757 358 q 725 719 757 617 q 640 877 693 821 q 522 933 586 933 q 405 877 458 933 q 319 719 351 821 q 288 488 288 618 q 319 255 288 357 q 405 96 351 153 q 522 39 458 39 z "},"1":{"ha":482,"x_min":81,"x_max":374,"o":"m 374 0 l 154 0 l 154 771 l 81 772 l 81 797 l 314 986 l 374 986 l 374 0 z "},"2":{"ha":763,"x_min":65,"x_max":732,"o":"m 75 38 q 404 365 300 214 q 508 683 508 517 q 481 815 508 761 q 411 896 454 869 q 317 922 368 922 q 223 897 267 922 q 152 824 179 872 q 125 708 125 775 l 65 708 q 110 860 65 797 q 228 956 154 924 q 386 988 301 988 q 550 953 472 988 q 676 853 628 919 q 724 692 724 786 q 598 412 724 549 q 272 133 472 275 l 732 133 l 732 0 l 75 0 l 75 38 z "},"3":{"ha":806,"x_min":64,"x_max":775,"o":"m 392 -14 q 190 36 275 -14 q 64 158 106 86 l 110 176 q 216 78 153 111 q 344 46 279 46 q 474 81 419 46 q 556 174 528 117 q 585 294 585 231 q 533 450 585 385 q 385 532 482 515 l 385 549 q 479 635 443 581 q 515 758 515 690 q 465 884 515 840 q 344 928 415 928 q 252 906 296 928 q 181 840 208 883 q 153 735 153 796 l 93 735 q 135 874 93 817 q 244 959 178 931 q 388 988 311 988 q 526 962 461 988 q 632 885 592 936 q 672 763 672 833 q 624 642 672 694 q 485 569 575 589 q 702 480 629 554 q 775 304 775 406 q 724 143 775 215 q 586 28 674 71 q 392 -14 499 -14 z "},"4":{"ha":779,"x_min":64,"x_max":671,"o":"m 671 0 l 451 0 l 451 278 l 64 278 l 544 986 l 671 986 l 671 0 m 451 769 l 149 324 l 451 324 l 451 769 z "},"5":{"ha":825,"x_min":65,"x_max":794,"o":"m 400 -17 q 185 45 278 -17 q 69 222 93 107 l 136 231 q 221 93 156 143 q 368 43 286 43 q 496 81 443 43 q 575 179 549 118 q 601 310 601 240 q 574 445 601 383 q 494 544 546 507 q 371 581 442 581 q 65 464 236 581 l 65 972 l 756 972 l 690 838 l 132 838 l 132 563 q 278 630 203 607 q 429 653 354 653 q 613 614 529 653 q 745 503 696 575 q 794 333 794 431 q 738 147 794 226 q 591 25 682 67 q 400 -17 500 -17 z "},"6":{"ha":828,"x_min":63,"x_max":797,"o":"m 435 -14 q 244 46 331 -14 q 110 205 158 106 q 64 419 63 304 q 140 711 67 582 q 335 915 213 840 q 606 994 458 989 l 606 957 q 374 829 456 940 q 269 532 292 718 q 372 628 311 596 q 499 661 432 661 q 644 621 575 661 q 755 506 713 581 q 797 335 797 432 q 750 163 797 243 q 620 35 703 83 q 435 -14 538 -14 m 435 35 q 563 115 515 35 q 610 329 610 194 q 588 472 610 413 q 528 563 565 532 q 447 594 492 594 q 347 554 396 594 q 261 435 297 514 l 261 408 q 280 215 260 300 q 340 83 300 131 q 435 35 381 35 z "},"7":{"ha":696,"x_min":58,"x_max":665,"o":"m 146 0 q 283 414 192 215 q 535 836 374 613 l 58 836 l 58 972 l 665 972 q 463 494 524 717 q 389 0 401 271 l 146 0 z "},"8":{"ha":847,"x_min":64,"x_max":817,"o":"m 64 206 q 122 355 64 282 q 299 506 181 428 q 176 626 221 565 q 132 753 132 686 q 176 881 132 828 q 290 960 219 933 q 440 986 361 986 q 580 963 515 986 q 684 895 644 940 q 724 788 724 850 q 678 658 724 721 q 554 543 633 596 q 692 440 639 483 q 781 343 744 396 q 817 232 817 290 q 761 99 817 154 q 616 15 706 43 q 426 -12 526 -12 q 249 13 332 -12 q 115 87 165 38 q 64 206 64 136 m 517 569 q 599 668 568 614 q 631 783 631 722 q 583 898 631 857 q 472 939 536 939 q 366 899 411 939 q 321 790 321 860 q 371 686 321 736 q 517 569 421 636 m 626 192 q 574 294 626 244 q 413 422 522 344 l 336 476 q 219 360 265 425 q 172 224 172 294 q 206 119 172 163 q 296 55 240 76 q 413 33 351 33 q 563 76 500 33 q 626 192 626 118 z "},"9":{"ha":828,"x_min":64,"x_max":799,"o":"m 256 22 q 487 151 404 39 q 592 449 569 264 q 490 352 550 385 q 363 319 429 319 q 217 360 286 319 q 106 474 149 400 q 64 646 64 549 q 110 818 64 738 q 240 947 157 899 q 426 994 324 994 q 617 935 532 994 q 751 776 703 875 q 797 561 799 676 q 722 269 794 399 q 526 66 649 140 q 256 -14 403 -8 l 256 22 m 600 572 q 581 765 601 681 q 521 898 561 850 q 426 946 481 946 q 299 867 346 946 q 251 651 251 788 q 274 508 251 568 q 333 417 296 449 q 414 386 369 386 q 515 426 465 386 q 600 546 564 467 l 600 572 z "}," ":{"ha":443,"x_min":0,"x_max":0,"o":""},"A":{"ha":1022,"x_min":58,"x_max":964,"o":"m 379 876 q 386 910 386 894 q 383 927 386 921 q 371 942 379 933 q 361 955 365 947 q 357 972 357 963 l 614 972 l 964 0 l 733 0 l 589 397 l 244 397 l 99 0 l 58 0 l 379 876 m 417 871 l 254 429 l 576 429 l 417 871 z "},"Á":{"ha":1022,"x_min":58,"x_max":964,"o":"m 379 876 q 386 910 386 894 q 383 927 386 921 q 371 942 379 933 q 361 955 365 947 q 357 972 357 963 l 614 972 l 964 0 l 733 0 l 589 397 l 244 397 l 99 0 l 58 0 l 379 876 m 417 871 l 254 429 l 576 429 l 417 871 m 475 1303 q 504 1338 486 1326 q 543 1350 522 1350 q 591 1333 569 1350 q 613 1292 613 1317 q 592 1247 613 1271 l 397 1040 l 354 1040 l 475 1303 z "},"Ă":{"ha":1022,"x_min":58,"x_max":964,"o":"m 379 876 q 386 910 386 894 q 383 927 386 921 q 371 942 379 933 q 361 955 365 947 q 357 972 357 963 l 614 972 l 964 0 l 733 0 l 589 397 l 244 397 l 99 0 l 58 0 l 379 876 m 417 871 l 254 429 l 576 429 l 417 871 m 499 1042 q 384 1067 438 1042 q 297 1141 331 1092 q 261 1260 263 1190 l 307 1260 q 369 1165 313 1199 q 499 1131 425 1131 q 628 1165 572 1131 q 690 1260 685 1199 l 736 1260 q 701 1141 735 1190 q 613 1067 667 1092 q 499 1042 560 1042 z "},"Â":{"ha":1022,"x_min":58,"x_max":964,"o":"m 379 876 q 386 910 386 894 q 383 927 386 921 q 371 942 379 933 q 361 955 365 947 q 357 972 357 963 l 614 972 l 964 0 l 733 0 l 589 397 l 244 397 l 99 0 l 58 0 l 379 876 m 417 871 l 254 429 l 576 429 l 417 871 m 436 1304 q 464 1340 446 1328 q 503 1351 482 1351 q 545 1339 525 1351 q 575 1304 565 1326 l 696 1042 l 653 1042 l 506 1235 l 358 1042 l 315 1042 l 436 1304 z "},"Ä":{"ha":1022,"x_min":58,"x_max":964,"o":"m 379 876 q 386 910 386 894 q 383 927 386 921 q 371 942 379 933 q 361 955 365 947 q 357 972 357 963 l 614 972 l 964 0 l 733 0 l 589 397 l 244 397 l 99 0 l 58 0 l 379 876 m 417 871 l 254 429 l 576 429 l 417 871 m 399 1043 q 338 1067 363 1043 q 313 1129 313 1092 q 336 1190 313 1164 q 394 1215 360 1215 q 459 1190 432 1215 q 486 1129 486 1165 q 461 1067 486 1092 q 399 1043 436 1043 m 629 1043 q 567 1067 592 1043 q 542 1129 542 1092 q 567 1189 542 1164 q 629 1214 593 1214 q 690 1189 665 1214 q 715 1129 715 1164 q 690 1067 715 1092 q 629 1043 665 1043 z "},"À":{"ha":1022,"x_min":58,"x_max":964,"o":"m 379 876 q 386 910 386 894 q 383 927 386 921 q 371 942 379 933 q 361 955 365 947 q 357 972 357 963 l 614 972 l 964 0 l 733 0 l 589 397 l 244 397 l 99 0 l 58 0 l 379 876 m 417 871 l 254 429 l 576 429 l 417 871 m 358 1244 q 338 1290 338 1268 q 358 1331 338 1314 q 406 1347 379 1347 q 445 1335 426 1347 q 475 1300 464 1324 l 596 1038 l 553 1038 l 358 1244 z "},"Ā":{"ha":1022,"x_min":58,"x_max":964,"o":"m 379 876 q 386 910 386 894 q 383 927 386 921 q 371 942 379 933 q 361 955 365 947 q 357 972 357 963 l 614 972 l 964 0 l 733 0 l 589 397 l 244 397 l 99 0 l 58 0 l 379 876 m 417 871 l 254 429 l 576 429 l 417 871 m 749 1046 l 274 1046 l 274 1122 l 749 1122 l 749 1046 z "},"Ą":{"ha":1022,"x_min":58,"x_max":1040,"o":"m 1040 -233 q 971 -284 1010 -267 q 893 -301 932 -301 q 794 -267 835 -301 q 753 -175 753 -233 q 832 0 753 -97 l 733 0 l 589 397 l 244 397 l 99 0 l 58 0 l 379 876 q 386 910 386 894 q 383 927 386 921 q 371 942 379 933 q 361 955 365 947 q 357 972 357 963 l 614 972 l 964 0 l 879 0 q 840 -115 840 -64 q 872 -199 840 -167 q 949 -231 904 -231 q 1021 -206 990 -231 l 1040 -233 m 417 871 l 254 429 l 576 429 l 417 871 z "},"Å":{"ha":1022,"x_min":58,"x_max":964,"o":"m 379 876 q 386 910 386 894 q 383 927 386 921 q 371 942 379 933 q 361 955 365 947 q 357 972 357 963 l 614 972 l 964 0 l 733 0 l 589 397 l 244 397 l 99 0 l 58 0 l 379 876 m 417 871 l 254 429 l 576 429 l 417 871 m 507 1040 q 399 1086 444 1040 q 353 1194 353 1132 q 399 1303 353 1257 q 507 1349 444 1349 q 615 1303 569 1349 q 661 1194 661 1257 q 615 1086 661 1132 q 507 1040 569 1040 m 507 1093 q 577 1123 547 1093 q 607 1194 607 1153 q 577 1265 607 1235 q 507 1294 547 1294 q 437 1265 467 1294 q 407 1194 407 1235 q 437 1123 407 1153 q 507 1093 467 1093 z "},"Ã":{"ha":1022,"x_min":58,"x_max":964,"o":"m 379 876 q 386 910 386 894 q 383 927 386 921 q 371 942 379 933 q 361 955 365 947 q 357 972 357 963 l 614 972 l 964 0 l 733 0 l 589 397 l 244 397 l 99 0 l 58 0 l 379 876 m 417 871 l 254 429 l 576 429 l 417 871 m 672 1040 q 499 1079 615 1040 q 417 1103 447 1096 q 363 1111 386 1111 q 322 1099 336 1111 q 308 1057 308 1086 l 268 1057 q 376 1192 268 1192 q 449 1182 410 1192 q 547 1154 488 1172 q 686 1121 642 1121 q 726 1133 713 1121 q 740 1175 740 1146 l 781 1175 q 672 1040 781 1040 z "},"Æ":{"ha":1450,"x_min":47,"x_max":1347,"o":"m 88 0 l 47 0 l 472 972 l 1347 972 l 1347 936 l 836 936 l 836 521 l 1236 521 l 1236 485 l 836 485 l 836 36 l 1347 36 l 1347 0 l 617 0 l 617 396 l 260 396 l 88 0 m 496 936 l 275 429 l 617 429 l 617 936 l 496 936 z "},"B":{"ha":1053,"x_min":65,"x_max":964,"o":"m 103 860 q 96 922 103 904 q 77 949 89 939 q 65 972 65 958 l 499 972 q 808 908 708 972 q 908 726 908 843 q 856 596 908 650 q 700 517 803 542 q 964 271 964 474 q 864 72 964 143 q 554 0 764 0 l 103 0 l 103 860 m 463 525 q 639 581 578 525 q 700 726 700 636 q 638 883 700 829 q 458 936 576 936 l 322 936 l 322 525 l 463 525 m 514 36 q 693 99 631 36 q 756 274 756 161 q 692 436 756 378 q 514 494 629 494 l 322 494 l 322 36 l 514 36 z "},"C":{"ha":1106,"x_min":89,"x_max":1042,"o":"m 654 -14 q 352 55 481 -14 q 156 238 224 124 q 89 488 89 353 q 156 738 89 624 q 351 919 224 851 q 654 988 479 988 q 874 957 781 988 q 1042 867 968 926 l 943 789 q 828 908 899 861 q 674 956 758 956 q 482 892 564 956 q 357 722 400 829 q 314 488 314 615 q 357 253 314 360 q 482 83 400 146 q 674 19 564 19 q 828 67 758 19 q 943 186 899 114 l 1042 108 q 874 17 968 49 q 654 -14 781 -14 z "},"Ć":{"ha":1106,"x_min":89,"x_max":1042,"o":"m 654 -14 q 352 55 481 -14 q 156 238 224 124 q 89 488 89 353 q 156 738 89 624 q 351 919 224 851 q 654 988 479 988 q 874 957 781 988 q 1042 867 968 926 l 943 789 q 828 908 899 861 q 674 956 758 956 q 482 892 564 956 q 357 722 400 829 q 314 488 314 615 q 357 253 314 360 q 482 83 400 146 q 674 19 564 19 q 828 67 758 19 q 943 186 899 114 l 1042 108 q 874 17 968 49 q 654 -14 781 -14 m 604 1301 q 633 1337 615 1325 q 672 1349 651 1349 q 720 1332 699 1349 q 742 1290 742 1315 q 721 1246 742 1269 l 526 1039 l 483 1039 l 604 1301 z "},"Č":{"ha":1071,"x_min":89,"x_max":1042,"o":"m 654 -14 q 352 55 481 -14 q 156 238 224 124 q 89 488 89 353 q 156 738 89 624 q 351 919 224 851 q 654 988 479 988 q 874 957 781 988 q 1042 867 968 926 l 943 789 q 828 908 899 861 q 674 956 758 956 q 482 892 564 956 q 357 722 400 829 q 314 488 314 615 q 357 253 314 360 q 482 83 400 146 q 674 19 564 19 q 828 67 758 19 q 943 186 899 114 l 1042 108 q 874 17 968 49 q 654 -14 781 -14 m 450 1351 l 493 1351 l 640 1158 l 788 1351 l 831 1351 l 710 1089 q 680 1054 700 1067 q 638 1042 660 1042 q 599 1053 617 1042 q 571 1089 581 1065 l 450 1351 z "},"Ç":{"ha":1071,"x_min":89,"x_max":1042,"o":"m 654 -14 q 615 -12 628 -14 l 581 -87 q 680 -143 647 -110 q 713 -214 713 -176 q 670 -310 713 -275 q 568 -344 628 -344 q 496 -330 531 -344 q 436 -286 461 -315 l 450 -265 q 546 -301 501 -301 q 598 -282 578 -301 q 618 -235 618 -262 q 589 -174 618 -201 q 504 -137 560 -146 l 567 -10 q 310 79 418 8 q 145 257 201 150 q 89 488 89 364 q 156 738 89 624 q 351 919 224 851 q 654 988 479 988 q 874 957 781 988 q 1042 867 968 926 l 943 789 q 828 908 899 861 q 674 956 758 956 q 482 892 564 956 q 357 722 400 829 q 314 488 314 615 q 357 253 314 360 q 482 83 400 146 q 674 19 564 19 q 828 67 758 19 q 943 186 899 114 l 1042 108 q 874 17 968 49 q 654 -14 781 -14 z "},"Ċ":{"ha":1106,"x_min":89,"x_max":1042,"o":"m 654 -14 q 352 55 481 -14 q 156 238 224 124 q 89 488 89 353 q 156 738 89 624 q 351 919 224 851 q 654 988 479 988 q 874 957 781 988 q 1042 867 968 926 l 943 789 q 828 908 899 861 q 674 956 758 956 q 482 892 564 956 q 357 722 400 829 q 314 488 314 615 q 357 253 314 360 q 482 83 400 146 q 674 19 564 19 q 828 67 758 19 q 943 186 899 114 l 1042 108 q 874 17 968 49 q 654 -14 781 -14 m 618 1043 q 557 1068 582 1043 q 532 1129 532 1093 q 557 1189 532 1164 q 618 1214 582 1214 q 679 1189 654 1214 q 704 1129 704 1164 q 679 1068 704 1093 q 618 1043 654 1043 z "},"D":{"ha":1118,"x_min":65,"x_max":1029,"o":"m 103 860 q 96 922 103 904 q 77 949 89 939 q 65 972 65 958 l 471 972 q 775 903 649 972 q 965 723 901 835 q 1029 485 1029 611 q 965 249 1029 360 q 775 69 901 138 q 471 0 649 0 l 103 0 l 103 860 m 446 36 q 642 100 561 36 q 765 267 724 164 q 806 488 806 371 q 765 707 806 604 q 644 873 725 810 q 451 936 564 936 l 322 936 l 322 36 l 446 36 z "},"Ð":{"ha":1118,"x_min":11,"x_max":1029,"o":"m 103 0 l 103 442 l 11 442 l 11 529 l 103 529 l 103 972 l 471 972 q 775 903 649 972 q 965 724 901 835 q 1029 486 1029 613 q 965 249 1029 360 q 775 69 901 138 q 471 0 649 0 l 103 0 m 446 57 q 642 118 561 57 q 765 278 724 179 q 806 488 806 376 q 765 697 806 599 q 644 855 725 794 q 451 915 564 915 l 322 915 l 322 529 l 440 529 l 440 442 l 322 442 l 322 57 l 446 57 z "},"Ď":{"ha":1118,"x_min":65,"x_max":1029,"o":"m 103 860 q 96 922 103 904 q 77 949 89 939 q 65 972 65 958 l 471 972 q 775 903 649 972 q 965 723 901 835 q 1029 485 1029 611 q 965 249 1029 360 q 775 69 901 138 q 471 0 649 0 l 103 0 l 103 860 m 446 36 q 642 100 561 36 q 765 267 724 164 q 806 488 806 371 q 765 707 806 604 q 644 873 725 810 q 451 936 564 936 l 322 936 l 322 36 l 446 36 m 271 1351 l 314 1351 l 461 1158 l 608 1351 l 651 1351 l 531 1089 q 501 1054 521 1067 q 458 1042 481 1042 q 419 1053 438 1042 q 392 1089 401 1065 l 271 1351 z "},"Đ":{"ha":1118,"x_min":11,"x_max":1029,"o":"m 103 0 l 103 442 l 11 442 l 11 529 l 103 529 l 103 972 l 471 972 q 775 903 649 972 q 965 724 901 835 q 1029 486 1029 613 q 965 249 1029 360 q 775 69 901 138 q 471 0 649 0 l 103 0 m 446 57 q 642 118 561 57 q 765 278 724 179 q 806 488 806 376 q 765 697 806 599 q 644 855 725 794 q 451 915 564 915 l 322 915 l 322 529 l 440 529 l 440 442 l 322 442 l 322 57 l 446 57 z "},"E":{"ha":936,"x_min":65,"x_max":833,"o":"m 103 860 q 96 922 103 904 q 77 949 89 939 q 65 972 65 958 l 833 972 l 833 936 l 322 936 l 322 521 l 722 521 l 722 485 l 322 485 l 322 36 l 833 36 l 833 0 l 103 0 l 103 860 z "},"É":{"ha":936,"x_min":65,"x_max":833,"o":"m 103 860 q 96 922 103 904 q 77 949 89 939 q 65 972 65 958 l 833 972 l 833 936 l 322 936 l 322 521 l 722 521 l 722 485 l 322 485 l 322 36 l 833 36 l 833 0 l 103 0 l 103 860 m 583 1300 q 613 1335 594 1324 q 651 1347 631 1347 q 699 1331 678 1347 q 721 1289 721 1314 q 700 1244 721 1268 l 506 1038 l 463 1038 l 583 1300 z "},"Ě":{"ha":936,"x_min":65,"x_max":833,"o":"m 103 860 q 96 922 103 904 q 77 949 89 939 q 65 972 65 958 l 833 972 l 833 936 l 322 936 l 322 521 l 722 521 l 722 485 l 322 485 l 322 36 l 833 36 l 833 0 l 103 0 l 103 860 m 299 1351 l 342 1351 l 489 1158 l 636 1351 l 679 1351 l 558 1089 q 528 1054 549 1067 q 486 1042 508 1042 q 447 1053 465 1042 q 419 1089 429 1065 l 299 1351 z "},"Ê":{"ha":936,"x_min":65,"x_max":833,"o":"m 103 860 q 96 922 103 904 q 77 949 89 939 q 65 972 65 958 l 833 972 l 833 936 l 322 936 l 322 521 l 722 521 l 722 485 l 322 485 l 322 36 l 833 36 l 833 0 l 103 0 l 103 860 m 394 1306 q 422 1341 404 1329 q 461 1353 440 1353 q 503 1340 483 1353 q 533 1306 524 1328 l 654 1043 l 611 1043 l 464 1236 l 317 1043 l 274 1043 l 394 1306 z "},"Ë":{"ha":936,"x_min":65,"x_max":833,"o":"m 103 860 q 96 922 103 904 q 77 949 89 939 q 65 972 65 958 l 833 972 l 833 936 l 322 936 l 322 521 l 722 521 l 722 485 l 322 485 l 322 36 l 833 36 l 833 0 l 103 0 l 103 860 m 371 1039 q 310 1063 335 1039 q 285 1125 285 1088 q 308 1185 285 1160 q 367 1211 332 1211 q 431 1186 404 1211 q 458 1125 458 1161 q 433 1063 458 1088 q 371 1039 408 1039 m 601 1039 q 539 1063 564 1039 q 514 1125 514 1088 q 540 1185 514 1160 q 601 1210 565 1210 q 663 1185 638 1210 q 688 1125 688 1160 q 663 1063 688 1088 q 601 1039 638 1039 z "},"Ė":{"ha":936,"x_min":65,"x_max":833,"o":"m 103 860 q 96 922 103 904 q 77 949 89 939 q 65 972 65 958 l 833 972 l 833 936 l 322 936 l 322 521 l 722 521 l 722 485 l 322 485 l 322 36 l 833 36 l 833 0 l 103 0 l 103 860 m 493 1042 q 432 1067 457 1042 q 407 1128 407 1092 q 432 1188 407 1163 q 493 1213 457 1213 q 554 1188 529 1213 q 579 1128 579 1163 q 554 1067 579 1092 q 493 1042 529 1042 z "},"È":{"ha":936,"x_min":65,"x_max":833,"o":"m 103 860 q 96 922 103 904 q 77 949 89 939 q 65 972 65 958 l 833 972 l 833 936 l 322 936 l 322 521 l 722 521 l 722 485 l 322 485 l 322 36 l 833 36 l 833 0 l 103 0 l 103 860 m 328 1247 q 307 1293 307 1271 q 328 1333 307 1317 q 375 1350 349 1350 q 415 1338 396 1350 q 444 1303 433 1326 l 565 1040 l 522 1040 l 328 1247 z "},"Ē":{"ha":936,"x_min":65,"x_max":833,"o":"m 103 860 q 96 922 103 904 q 77 949 89 939 q 65 972 65 958 l 833 972 l 833 936 l 322 936 l 322 521 l 722 521 l 722 485 l 322 485 l 322 36 l 833 36 l 833 0 l 103 0 l 103 860 m 719 1063 l 244 1063 l 244 1139 l 719 1139 l 719 1063 z "},"Ę":{"ha":936,"x_min":65,"x_max":833,"o":"m 833 936 l 322 936 l 322 521 l 722 521 l 722 485 l 322 485 l 322 36 l 490 36 l 493 39 l 497 36 l 833 36 l 833 0 l 506 0 q 467 -115 467 -64 q 499 -199 467 -167 q 575 -231 531 -231 q 647 -206 617 -231 l 667 -233 q 597 -284 636 -267 q 519 -301 558 -301 q 420 -267 461 -301 q 379 -175 379 -233 q 458 0 379 -97 l 103 0 l 103 860 q 96 922 103 904 q 77 949 89 939 q 65 972 65 958 l 833 972 l 833 936 z "},"F":{"ha":881,"x_min":65,"x_max":819,"o":"m 103 860 q 96 922 103 904 q 77 949 89 939 q 65 972 65 958 l 819 972 l 819 936 l 322 936 l 322 521 l 722 521 l 722 485 l 322 485 l 322 0 l 103 0 l 103 860 z "},"G":{"ha":1168,"x_min":89,"x_max":1079,"o":"m 654 -14 q 378 42 507 -14 q 169 212 249 99 q 89 488 89 325 q 156 738 89 624 q 351 919 224 851 q 654 988 479 988 q 877 957 783 988 q 1044 867 971 926 l 946 789 q 830 908 900 861 q 674 956 760 956 q 482 893 564 956 q 356 724 400 831 q 313 488 313 617 q 360 255 313 361 q 493 86 407 149 q 689 24 579 24 q 860 57 779 24 l 860 476 l 1079 476 l 1079 160 l 1015 108 q 654 -14 868 -14 z "},"Ğ":{"ha":1168,"x_min":89,"x_max":1079,"o":"m 654 -14 q 378 42 507 -14 q 169 212 249 99 q 89 488 89 325 q 156 738 89 624 q 351 919 224 851 q 654 988 479 988 q 877 957 783 988 q 1044 867 971 926 l 946 789 q 830 908 900 861 q 674 956 760 956 q 482 893 564 956 q 356 724 400 831 q 313 488 313 617 q 360 255 313 361 q 493 86 407 149 q 689 24 579 24 q 860 57 779 24 l 860 476 l 1079 476 l 1079 160 l 1015 108 q 654 -14 868 -14 m 643 1056 q 528 1081 582 1056 q 441 1155 475 1106 q 406 1274 407 1204 l 451 1274 q 513 1178 457 1213 q 643 1144 569 1144 q 773 1178 717 1144 q 835 1274 829 1213 l 881 1274 q 845 1155 879 1204 q 758 1081 811 1106 q 643 1056 704 1056 z "},"Ģ":{"ha":1168,"x_min":89,"x_max":1079,"o":"m 654 -14 q 378 42 507 -14 q 169 212 249 99 q 89 488 89 325 q 156 738 89 624 q 351 919 224 851 q 654 988 479 988 q 877 957 783 988 q 1044 867 971 926 l 946 789 q 830 908 900 861 q 674 956 760 956 q 482 893 564 956 q 356 724 400 831 q 313 488 313 617 q 360 255 313 361 q 493 86 407 149 q 689 24 579 24 q 860 57 779 24 l 860 476 l 1079 476 l 1079 160 l 1015 108 q 654 -14 868 -14 m 624 -401 q 649 -349 639 -378 q 660 -294 660 -319 q 649 -262 660 -274 q 619 -239 639 -251 q 580 -207 593 -224 q 567 -157 567 -190 q 593 -94 567 -118 q 654 -69 619 -69 q 718 -98 694 -69 q 742 -171 742 -126 q 710 -302 742 -229 q 643 -411 678 -375 l 624 -401 z "},"Ġ":{"ha":1168,"x_min":89,"x_max":1079,"o":"m 654 -14 q 378 42 507 -14 q 169 212 249 99 q 89 488 89 325 q 156 738 89 624 q 351 919 224 851 q 654 988 479 988 q 877 957 783 988 q 1044 867 971 926 l 946 789 q 830 908 900 861 q 674 956 760 956 q 482 893 564 956 q 356 724 400 831 q 313 488 313 617 q 360 255 313 361 q 493 86 407 149 q 689 24 579 24 q 860 57 779 24 l 860 476 l 1079 476 l 1079 160 l 1015 108 q 654 -14 868 -14 m 644 1043 q 583 1068 608 1043 q 558 1129 558 1093 q 583 1189 558 1164 q 644 1214 608 1214 q 706 1189 681 1214 q 731 1129 731 1164 q 706 1068 731 1093 q 644 1043 681 1043 z "},"H":{"ha":1036,"x_min":65,"x_max":933,"o":"m 103 860 q 96 922 103 904 q 77 949 89 939 q 65 972 65 958 l 322 972 l 322 521 l 714 521 l 714 972 l 933 972 l 933 0 l 714 0 l 714 485 l 322 485 l 322 0 l 103 0 l 103 860 z "},"Ħ":{"ha":1036,"x_min":103,"x_max":933,"o":"m 322 0 l 103 0 l 103 972 l 322 972 l 322 743 l 714 743 l 714 972 l 933 972 l 933 0 l 714 0 l 714 476 l 322 476 l 322 0 m 322 686 l 322 533 l 714 533 l 714 686 l 322 686 z "},"I":{"ha":431,"x_min":68,"x_max":325,"o":"m 106 860 q 99 922 106 904 q 80 949 92 939 q 68 972 68 958 l 325 972 l 325 0 l 106 0 l 106 860 z "},"Í":{"ha":431,"x_min":68,"x_max":364,"o":"m 106 860 q 99 922 106 904 q 80 949 92 939 q 68 972 68 958 l 325 972 l 325 0 l 106 0 l 106 860 m 226 1304 q 256 1340 238 1328 q 294 1351 274 1351 q 342 1335 321 1351 q 364 1293 364 1318 q 343 1249 364 1272 l 149 1042 l 106 1042 l 226 1304 z "},"Î":{"ha":431,"x_min":24,"x_max":404,"o":"m 106 860 q 99 922 106 904 q 80 949 92 939 q 68 972 68 958 l 325 972 l 325 0 l 106 0 l 106 860 m 144 1304 q 172 1340 154 1328 q 211 1351 190 1351 q 253 1339 233 1351 q 283 1304 274 1326 l 404 1042 l 361 1042 l 214 1235 l 67 1042 l 24 1042 l 144 1304 z "},"Ï":{"ha":431,"x_min":14,"x_max":417,"o":"m 106 860 q 99 922 106 904 q 80 949 92 939 q 68 972 68 958 l 325 972 l 325 0 l 106 0 l 106 860 m 100 1046 q 39 1070 64 1046 q 14 1132 14 1094 q 38 1192 14 1167 q 96 1218 61 1218 q 160 1193 133 1218 q 188 1132 188 1168 q 163 1070 188 1094 q 100 1046 138 1046 m 331 1046 q 268 1070 293 1046 q 243 1132 243 1094 q 269 1192 243 1167 q 331 1217 294 1217 q 392 1192 367 1217 q 417 1132 417 1167 q 392 1070 417 1094 q 331 1046 367 1046 z "},"İ":{"ha":431,"x_min":68,"x_max":325,"o":"m 106 860 q 99 922 106 904 q 80 949 92 939 q 68 972 68 958 l 325 972 l 325 0 l 106 0 l 106 860 m 210 1044 q 149 1069 174 1044 q 124 1131 124 1094 q 149 1190 124 1165 q 210 1215 174 1215 q 271 1190 246 1215 q 296 1131 296 1165 q 271 1069 296 1094 q 210 1044 246 1044 z "},"Ì":{"ha":431,"x_min":51,"x_max":325,"o":"m 106 860 q 99 922 106 904 q 80 949 92 939 q 68 972 68 958 l 325 972 l 325 0 l 106 0 l 106 860 m 72 1244 q 51 1290 51 1268 q 72 1331 51 1314 q 119 1347 93 1347 q 159 1335 140 1347 q 189 1300 178 1324 l 310 1038 l 267 1038 l 72 1244 z "},"Ī":{"ha":431,"x_min":-22,"x_max":453,"o":"m 106 860 q 99 922 106 904 q 80 949 92 939 q 68 972 68 958 l 325 972 l 325 0 l 106 0 l 106 860 m 453 1040 l -22 1040 l -22 1117 l 453 1117 l 453 1040 z "},"Į":{"ha":431,"x_min":68,"x_max":404,"o":"m 404 -233 q 335 -284 374 -267 q 257 -301 296 -301 q 158 -267 199 -301 q 117 -175 117 -233 q 196 0 117 -97 l 106 0 l 106 860 q 99 922 106 904 q 80 949 92 939 q 68 972 68 958 l 325 972 l 325 0 l 243 0 q 204 -115 204 -64 q 236 -199 204 -167 q 313 -231 268 -231 q 385 -206 354 -231 l 404 -233 z "},"J":{"ha":428,"x_min":-21,"x_max":325,"o":"m -21 -106 q 58 -49 32 -72 q 94 3 83 -25 q 106 75 106 31 l 106 860 q 99 922 106 904 q 80 949 92 939 q 68 972 68 958 l 325 972 l 325 89 q 291 6 325 40 q 190 -58 257 -28 q -21 -142 122 -89 l -21 -106 z "},"K":{"ha":1061,"x_min":65,"x_max":958,"o":"m 103 860 q 96 922 103 904 q 77 949 89 939 q 65 972 65 958 l 322 972 l 322 510 l 879 972 l 938 972 l 439 553 l 958 0 l 693 0 l 322 400 l 322 0 l 103 0 l 103 860 z "},"Ķ":{"ha":1061,"x_min":103,"x_max":958,"o":"m 322 0 l 103 0 l 103 972 l 322 972 l 322 517 l 843 972 l 936 972 l 440 539 l 958 0 l 693 0 l 322 390 l 322 0 m 485 -397 q 510 -344 500 -374 q 521 -290 521 -315 q 510 -258 521 -269 q 481 -235 500 -247 q 441 -203 454 -219 q 428 -153 428 -186 q 454 -90 428 -114 q 515 -65 481 -65 q 579 -94 556 -65 q 603 -167 603 -122 q 571 -298 603 -225 q 504 -407 539 -371 l 485 -397 z "},"L":{"ha":881,"x_min":65,"x_max":806,"o":"m 103 860 q 96 922 103 904 q 77 949 89 939 q 65 972 65 958 l 322 972 l 322 36 l 806 36 l 806 0 l 103 0 l 103 860 z "},"Ĺ":{"ha":881,"x_min":65,"x_max":806,"o":"m 103 860 q 96 922 103 904 q 77 949 89 939 q 65 972 65 958 l 322 972 l 322 36 l 806 36 l 806 0 l 103 0 l 103 860 m 221 1304 q 250 1340 232 1328 q 289 1351 268 1351 q 337 1335 315 1351 q 358 1293 358 1318 q 338 1249 358 1272 l 143 1042 l 100 1042 l 221 1304 z "},"Ľ":{"ha":881,"x_min":65,"x_max":806,"o":"m 103 860 q 96 922 103 904 q 77 949 89 939 q 65 972 65 958 l 322 972 l 322 36 l 806 36 l 806 0 l 103 0 l 103 860 m 464 654 q 490 707 479 678 q 500 761 500 736 q 490 793 500 782 q 460 817 479 804 q 420 849 433 832 q 407 899 407 865 q 433 962 407 938 q 494 986 460 986 q 558 958 535 986 q 582 885 582 929 q 550 753 582 826 q 483 644 518 681 l 464 654 z "},"Ļ":{"ha":881,"x_min":65,"x_max":806,"o":"m 103 860 q 96 922 103 904 q 77 949 89 939 q 65 972 65 958 l 322 972 l 322 36 l 806 36 l 806 0 l 103 0 l 103 860 m 425 -399 q 451 -346 440 -375 q 461 -292 461 -317 q 451 -260 461 -271 q 421 -236 440 -249 q 381 -204 394 -221 q 368 -154 368 -187 q 394 -91 368 -115 q 456 -67 421 -67 q 519 -95 496 -67 q 543 -168 543 -124 q 511 -299 543 -226 q 444 -408 479 -372 l 425 -399 z "},"Ł":{"ha":881,"x_min":-11,"x_max":806,"o":"m 322 36 l 806 36 l 806 0 l 103 0 l 103 315 l 69 283 l -11 283 l 103 392 l 103 860 q 96 922 103 904 q 77 949 89 939 q 65 972 65 958 l 322 972 l 322 599 l 375 649 l 457 649 l 322 522 l 322 36 z "},"M":{"ha":1369,"x_min":65,"x_max":1267,"o":"m 103 860 q 96 922 103 904 q 77 949 89 939 q 65 972 65 958 l 321 972 l 697 210 l 1042 972 l 1267 972 l 1267 0 l 1047 0 l 1047 896 l 643 0 l 554 0 l 140 842 l 140 0 l 104 0 l 103 860 z "},"N":{"ha":1008,"x_min":65,"x_max":906,"o":"m 103 860 q 96 922 103 904 q 77 949 89 939 q 65 972 65 958 l 321 972 l 869 332 l 868 972 l 904 972 l 906 0 l 869 0 l 140 849 l 140 0 l 104 0 l 103 860 z "},"Ń":{"ha":1008,"x_min":65,"x_max":906,"o":"m 103 860 q 96 922 103 904 q 77 949 89 939 q 65 972 65 958 l 321 972 l 869 332 l 868 972 l 904 972 l 906 0 l 869 0 l 140 849 l 140 0 l 104 0 l 103 860 m 597 1303 q 626 1338 608 1326 q 665 1350 644 1350 q 713 1333 692 1350 q 735 1292 735 1317 q 714 1247 735 1271 l 519 1040 l 476 1040 l 597 1303 z "},"Ň":{"ha":1008,"x_min":65,"x_max":906,"o":"m 103 860 q 96 922 103 904 q 77 949 89 939 q 65 972 65 958 l 321 972 l 869 332 l 868 972 l 904 972 l 906 0 l 869 0 l 140 849 l 140 0 l 104 0 l 103 860 m 325 1351 l 368 1351 l 515 1158 l 663 1351 l 706 1351 l 585 1089 q 555 1054 575 1067 q 513 1042 535 1042 q 474 1053 492 1042 q 446 1089 456 1065 l 325 1351 z "},"Ņ":{"ha":1008,"x_min":65,"x_max":906,"o":"m 103 860 q 96 922 103 904 q 77 949 89 939 q 65 972 65 958 l 321 972 l 869 332 l 868 972 l 904 972 l 906 0 l 869 0 l 140 849 l 140 0 l 104 0 l 103 860 m 474 -383 q 499 -331 489 -360 q 510 -276 510 -301 q 499 -244 510 -256 q 469 -221 489 -233 q 430 -189 443 -206 q 417 -139 417 -172 q 443 -76 417 -100 q 504 -51 469 -51 q 568 -80 544 -51 q 592 -153 592 -108 q 560 -284 592 -211 q 493 -393 528 -357 l 474 -383 z "},"Ŋ":{"ha":1008,"x_min":65,"x_max":906,"o":"m 742 -265 q 844 -181 818 -212 q 869 -104 869 -150 l 869 0 l 140 849 l 140 0 l 104 0 l 103 860 q 96 922 103 904 q 77 949 89 939 q 65 972 65 958 l 321 972 l 869 332 l 868 972 l 904 972 l 906 -104 q 897 -160 906 -136 q 852 -213 888 -183 q 742 -279 817 -243 l 742 -265 z "},"Ñ":{"ha":1008,"x_min":65,"x_max":906,"o":"m 103 860 q 96 922 103 904 q 77 949 89 939 q 65 972 65 958 l 321 972 l 869 332 l 868 972 l 904 972 l 906 0 l 869 0 l 140 849 l 140 0 l 104 0 l 103 860 m 663 1050 q 489 1089 606 1050 q 407 1113 438 1106 q 353 1121 376 1121 q 313 1108 326 1121 q 299 1067 299 1096 l 258 1067 q 367 1201 258 1201 q 439 1192 400 1201 q 538 1164 478 1182 q 676 1131 632 1131 q 717 1143 703 1131 q 731 1185 731 1156 l 771 1185 q 663 1050 771 1050 z "},"O":{"ha":1303,"x_min":89,"x_max":1214,"o":"m 651 -14 q 366 49 494 -14 q 163 227 238 113 q 89 488 89 342 q 163 747 89 633 q 365 924 238 861 q 651 986 493 986 q 938 924 810 986 q 1140 747 1065 861 q 1214 488 1214 633 q 1140 227 1214 342 q 937 49 1065 113 q 651 -14 808 -14 m 656 18 q 829 74 751 18 q 953 235 907 129 q 999 488 999 342 q 953 739 999 633 q 829 899 907 844 q 656 954 751 954 q 481 899 558 954 q 358 739 403 844 q 313 488 313 633 q 358 235 313 342 q 481 74 403 129 q 656 18 558 18 z "},"Ó":{"ha":1308,"x_min":89,"x_max":1214,"o":"m 651 -14 q 366 49 494 -14 q 163 227 238 113 q 89 488 89 342 q 163 747 89 633 q 365 924 238 861 q 651 986 493 986 q 938 924 810 986 q 1140 747 1065 861 q 1214 488 1214 633 q 1140 227 1214 342 q 937 49 1065 113 q 651 -14 808 -14 m 656 18 q 829 74 751 18 q 953 235 907 129 q 999 488 999 342 q 953 739 999 633 q 829 899 907 844 q 656 954 751 954 q 481 899 558 954 q 358 739 403 844 q 313 488 313 633 q 358 235 313 342 q 481 74 403 129 q 656 18 558 18 m 629 1282 q 658 1317 640 1306 q 697 1329 676 1329 q 745 1313 724 1329 q 767 1271 767 1296 q 746 1226 767 1250 l 551 1019 l 508 1019 l 629 1282 z "},"Ô":{"ha":1308,"x_min":89,"x_max":1214,"o":"m 651 -14 q 366 49 494 -14 q 163 227 238 113 q 89 488 89 342 q 163 747 89 633 q 365 924 238 861 q 651 986 493 986 q 938 924 810 986 q 1140 747 1065 861 q 1214 488 1214 633 q 1140 227 1214 342 q 937 49 1065 113 q 651 -14 808 -14 m 656 18 q 829 74 751 18 q 953 235 907 129 q 999 488 999 342 q 953 739 999 633 q 829 899 907 844 q 656 954 751 954 q 481 899 558 954 q 358 739 403 844 q 313 488 313 633 q 358 235 313 342 q 481 74 403 129 q 656 18 558 18 m 575 1304 q 603 1340 585 1328 q 642 1351 621 1351 q 684 1339 664 1351 q 714 1304 704 1326 l 835 1042 l 792 1042 l 644 1235 l 497 1042 l 454 1042 l 575 1304 z "},"Ö":{"ha":1308,"x_min":89,"x_max":1214,"o":"m 651 -14 q 366 49 494 -14 q 163 227 238 113 q 89 488 89 342 q 163 747 89 633 q 365 924 238 861 q 651 986 493 986 q 938 924 810 986 q 1140 747 1065 861 q 1214 488 1214 633 q 1140 227 1214 342 q 937 49 1065 113 q 651 -14 808 -14 m 656 18 q 829 74 751 18 q 953 235 907 129 q 999 488 999 342 q 953 739 999 633 q 829 899 907 844 q 656 954 751 954 q 481 899 558 954 q 358 739 403 844 q 313 488 313 633 q 358 235 313 342 q 481 74 403 129 q 656 18 558 18 m 539 1044 q 478 1069 503 1044 q 453 1131 453 1093 q 476 1191 453 1165 q 535 1217 500 1217 q 599 1192 572 1217 q 626 1131 626 1167 q 601 1069 626 1093 q 539 1044 576 1044 m 769 1044 q 707 1069 732 1044 q 682 1131 682 1093 q 708 1190 682 1165 q 769 1215 733 1215 q 831 1190 806 1215 q 856 1131 856 1165 q 831 1069 856 1093 q 769 1044 806 1044 z "},"Ò":{"ha":1308,"x_min":89,"x_max":1214,"o":"m 651 -14 q 366 49 494 -14 q 163 227 238 113 q 89 488 89 342 q 163 747 89 633 q 365 924 238 861 q 651 986 493 986 q 938 924 810 986 q 1140 747 1065 861 q 1214 488 1214 633 q 1140 227 1214 342 q 937 49 1065 113 q 651 -14 808 -14 m 656 18 q 829 74 751 18 q 953 235 907 129 q 999 488 999 342 q 953 739 999 633 q 829 899 907 844 q 656 954 751 954 q 481 899 558 954 q 358 739 403 844 q 313 488 313 633 q 358 235 313 342 q 481 74 403 129 q 656 18 558 18 m 510 1247 q 489 1293 489 1271 q 510 1333 489 1317 q 557 1350 531 1350 q 597 1338 578 1350 q 626 1303 615 1326 l 747 1040 l 704 1040 l 510 1247 z "},"Ő":{"ha":1308,"x_min":89,"x_max":1214,"o":"m 651 -14 q 366 49 494 -14 q 163 227 238 113 q 89 488 89 342 q 163 747 89 633 q 365 924 238 861 q 651 986 493 986 q 938 924 810 986 q 1140 747 1065 861 q 1214 488 1214 633 q 1140 227 1214 342 q 937 49 1065 113 q 651 -14 808 -14 m 656 18 q 829 74 751 18 q 953 235 907 129 q 999 488 999 342 q 953 739 999 633 q 829 899 907 844 q 656 954 751 954 q 481 899 558 954 q 358 739 403 844 q 313 488 313 633 q 358 235 313 342 q 481 74 403 129 q 656 18 558 18 m 621 1306 q 651 1341 632 1329 q 690 1353 669 1353 q 738 1336 717 1353 q 760 1294 760 1319 q 739 1250 760 1274 l 543 1043 l 501 1043 l 621 1306 m 831 1306 q 860 1341 842 1329 q 900 1353 879 1353 q 949 1336 928 1353 q 969 1294 969 1319 q 950 1250 969 1271 l 753 1043 l 713 1043 l 831 1306 z "},"Ō":{"ha":1308,"x_min":89,"x_max":1214,"o":"m 651 -14 q 366 49 494 -14 q 163 227 238 113 q 89 488 89 342 q 163 747 89 633 q 365 924 238 861 q 651 986 493 986 q 938 924 810 986 q 1140 747 1065 861 q 1214 488 1214 633 q 1140 227 1214 342 q 937 49 1065 113 q 651 -14 808 -14 m 656 18 q 829 74 751 18 q 953 235 907 129 q 999 488 999 342 q 953 739 999 633 q 829 899 907 844 q 656 954 751 954 q 481 899 558 954 q 358 739 403 844 q 313 488 313 633 q 358 235 313 342 q 481 74 403 129 q 656 18 558 18 m 879 1074 l 404 1074 l 404 1150 l 879 1150 l 879 1074 z "},"Ø":{"ha":1308,"x_min":89,"x_max":1214,"o":"m 999 889 q 1157 719 1100 822 q 1214 488 1214 615 q 1140 227 1214 342 q 937 49 1065 113 q 651 -14 808 -14 q 358 53 489 -14 l 318 0 l 251 0 l 313 79 q 148 251 207 146 q 89 488 89 357 q 163 747 89 633 q 365 924 238 861 q 651 986 493 986 q 951 917 817 986 l 1006 986 l 1074 986 l 999 889 m 313 488 q 388 178 313 299 l 893 839 q 786 924 847 894 q 656 954 725 954 q 481 899 558 954 q 358 739 403 844 q 313 488 313 633 m 656 18 q 829 74 751 18 q 953 235 907 129 q 999 488 999 342 q 925 793 999 671 l 419 132 q 526 47 465 76 q 656 18 586 18 z "},"Õ":{"ha":1308,"x_min":89,"x_max":1214,"o":"m 651 -14 q 366 49 494 -14 q 163 227 238 113 q 89 488 89 342 q 163 747 89 633 q 365 924 238 861 q 651 986 493 986 q 938 924 810 986 q 1140 747 1065 861 q 1214 488 1214 633 q 1140 227 1214 342 q 937 49 1065 113 q 651 -14 808 -14 m 656 18 q 829 74 751 18 q 953 235 907 129 q 999 488 999 342 q 953 739 999 633 q 829 899 907 844 q 656 954 751 954 q 481 899 558 954 q 358 739 403 844 q 313 488 313 633 q 358 235 313 342 q 481 74 403 129 q 656 18 558 18 m 796 1053 q 622 1092 739 1053 q 540 1116 571 1108 q 486 1124 510 1124 q 446 1111 460 1124 q 432 1069 432 1099 l 392 1069 q 500 1204 392 1204 q 572 1194 533 1204 q 671 1167 611 1185 q 810 1133 765 1133 q 850 1146 836 1133 q 864 1188 864 1158 l 904 1188 q 796 1053 904 1053 z "},"Œ":{"ha":1778,"x_min":89,"x_max":1675,"o":"m 651 -14 q 366 49 494 -14 q 163 227 238 113 q 89 488 89 342 q 163 747 89 633 q 365 924 238 861 q 651 986 493 986 q 944 919 811 986 l 944 972 l 1675 972 l 1675 936 l 1164 936 l 1164 521 l 1564 521 l 1564 485 l 1164 485 l 1164 36 l 1675 36 l 1675 0 l 944 0 l 944 85 q 651 -14 797 -14 m 656 18 q 825 73 749 18 q 944 229 901 128 l 944 743 q 826 899 901 844 q 656 954 750 954 q 481 899 558 954 q 358 739 403 844 q 313 488 313 633 q 358 235 313 342 q 481 74 403 129 q 656 18 558 18 z "},"P":{"ha":1010,"x_min":65,"x_max":935,"o":"m 103 860 q 96 922 103 904 q 77 949 89 939 q 65 972 65 958 l 526 972 q 835 902 735 972 q 935 713 935 832 q 892 581 935 640 q 758 488 849 522 q 526 453 667 453 l 322 453 l 322 0 l 103 0 l 103 860 m 486 488 q 667 552 607 488 q 726 713 726 617 q 667 872 726 808 q 486 936 607 936 l 322 936 l 322 488 l 486 488 z "},"Þ":{"ha":1024,"x_min":65,"x_max":935,"o":"m 103 860 q 96 922 103 904 q 77 949 89 939 q 65 972 65 958 l 322 972 l 322 756 l 526 756 q 835 685 735 756 q 935 496 935 615 q 892 365 935 424 q 758 271 849 306 q 526 236 667 236 l 322 236 l 322 0 l 103 0 l 103 860 m 486 269 q 667 335 607 269 q 726 496 726 400 q 667 655 726 592 q 486 718 607 718 l 322 718 l 322 269 l 486 269 z "},"Q":{"ha":1303,"x_min":89,"x_max":1214,"o":"m 825 8 q 651 -14 736 -14 q 366 49 494 -14 q 163 227 238 113 q 89 488 89 342 q 163 747 89 633 q 365 924 238 861 q 651 986 493 986 q 938 924 810 986 q 1140 747 1065 861 q 1214 488 1214 633 q 1121 200 1214 324 q 871 21 1028 76 l 1078 -122 l 1011 -122 l 825 8 m 656 18 q 775 42 717 18 l 569 186 l 638 186 l 813 64 q 949 226 899 117 q 999 488 999 335 q 953 739 999 633 q 829 899 907 844 q 656 954 751 954 q 481 899 558 954 q 358 739 403 844 q 313 488 313 633 q 358 235 313 342 q 481 74 403 129 q 656 18 558 18 z "},"R":{"ha":1040,"x_min":65,"x_max":938,"o":"m 103 860 q 96 922 103 904 q 77 949 89 939 q 65 972 65 958 l 526 972 q 835 902 735 972 q 935 713 935 832 q 868 553 935 619 q 663 464 801 486 l 938 0 l 690 0 l 425 453 l 322 453 l 322 0 l 103 0 l 103 860 m 486 489 q 667 553 607 489 q 726 713 726 617 q 667 872 726 808 q 486 936 607 936 l 322 936 l 322 489 l 486 489 z "},"Ŕ":{"ha":1040,"x_min":65,"x_max":938,"o":"m 103 860 q 96 922 103 904 q 77 949 89 939 q 65 972 65 958 l 526 972 q 835 902 735 972 q 935 713 935 832 q 868 553 935 619 q 663 464 801 486 l 938 0 l 690 0 l 425 453 l 322 453 l 322 0 l 103 0 l 103 860 m 486 489 q 667 553 607 489 q 726 713 726 617 q 667 872 726 808 q 486 936 607 936 l 322 936 l 322 489 l 486 489 m 565 1306 q 594 1341 576 1329 q 633 1353 613 1353 q 681 1336 660 1353 q 703 1294 703 1319 q 682 1250 703 1274 l 488 1043 l 444 1043 l 565 1306 z "},"Ř":{"ha":1050,"x_min":65,"x_max":938,"o":"m 103 860 q 96 922 103 904 q 77 949 89 939 q 65 972 65 958 l 526 972 q 835 902 735 972 q 935 713 935 832 q 868 553 935 619 q 663 464 801 486 l 938 0 l 690 0 l 425 453 l 322 453 l 322 0 l 103 0 l 103 860 m 486 489 q 667 553 607 489 q 726 713 726 617 q 667 872 726 808 q 486 936 607 936 l 322 936 l 322 489 l 486 489 m 296 1351 l 339 1351 l 486 1158 l 633 1351 l 676 1351 l 556 1089 q 526 1054 546 1067 q 483 1042 506 1042 q 444 1053 463 1042 q 417 1089 426 1065 l 296 1351 z "},"Ŗ":{"ha":1040,"x_min":65,"x_max":938,"o":"m 103 860 q 96 922 103 904 q 77 949 89 939 q 65 972 65 958 l 526 972 q 835 902 735 972 q 935 713 935 832 q 868 553 935 619 q 663 464 801 486 l 938 0 l 690 0 l 425 453 l 322 453 l 322 0 l 103 0 l 103 860 m 486 489 q 667 553 607 489 q 726 713 726 617 q 667 872 726 808 q 486 936 607 936 l 322 936 l 322 489 l 486 489 m 463 -379 q 488 -326 478 -356 q 499 -272 499 -297 q 488 -240 499 -251 q 458 -217 478 -229 q 419 -185 432 -201 q 406 -135 406 -168 q 432 -72 406 -96 q 493 -47 458 -47 q 557 -76 533 -47 q 581 -149 581 -104 q 549 -280 581 -207 q 482 -389 517 -353 l 463 -379 z "},"S":{"ha":978,"x_min":75,"x_max":889,"o":"m 469 -14 q 247 20 342 -14 q 75 115 153 54 l 172 194 q 299 74 215 125 q 468 19 383 22 q 633 60 575 14 q 692 181 692 106 q 658 263 692 226 q 574 326 624 299 q 435 394 524 354 q 260 481 326 443 q 148 577 194 519 q 101 711 101 635 q 157 857 101 794 q 303 953 213 919 q 493 986 393 986 q 710 956 622 986 q 872 867 797 926 l 775 789 q 657 906 732 858 q 500 953 582 953 q 345 911 406 951 q 285 797 285 871 q 319 713 285 750 q 406 649 354 676 q 549 582 457 622 q 726 498 658 535 q 841 404 793 461 q 889 269 889 347 q 833 117 889 182 q 681 19 776 53 q 469 -14 585 -14 z "},"Ś":{"ha":978,"x_min":75,"x_max":889,"o":"m 469 -14 q 247 20 342 -14 q 75 115 153 54 l 172 194 q 299 74 215 125 q 468 19 383 22 q 633 60 575 14 q 692 181 692 106 q 658 263 692 226 q 574 326 624 299 q 435 394 524 354 q 260 481 326 443 q 148 577 194 519 q 101 711 101 635 q 157 857 101 794 q 303 953 213 919 q 493 986 393 986 q 710 956 622 986 q 872 867 797 926 l 775 789 q 657 906 732 858 q 500 953 582 953 q 345 911 406 951 q 285 797 285 871 q 319 713 285 750 q 406 649 354 676 q 549 582 457 622 q 726 498 658 535 q 841 404 793 461 q 889 269 889 347 q 833 117 889 182 q 681 19 776 53 q 469 -14 585 -14 m 496 1300 q 525 1335 507 1324 q 564 1347 543 1347 q 612 1331 590 1347 q 633 1289 633 1314 q 613 1244 633 1268 l 418 1038 l 375 1038 l 496 1300 z "},"Š":{"ha":978,"x_min":75,"x_max":889,"o":"m 469 -14 q 247 20 342 -14 q 75 115 153 54 l 172 194 q 299 74 215 125 q 468 19 383 22 q 633 60 575 14 q 692 181 692 106 q 658 263 692 226 q 574 326 624 299 q 435 394 524 354 q 260 481 326 443 q 148 577 194 519 q 101 711 101 635 q 157 857 101 794 q 303 953 213 919 q 493 986 393 986 q 710 956 622 986 q 872 867 797 926 l 775 789 q 657 906 732 858 q 500 953 582 953 q 345 911 406 951 q 285 797 285 871 q 319 713 285 750 q 406 649 354 676 q 549 582 457 622 q 726 498 658 535 q 841 404 793 461 q 889 269 889 347 q 833 117 889 182 q 681 19 776 53 q 469 -14 585 -14 m 321 1351 l 364 1351 l 511 1158 l 658 1351 l 701 1351 l 581 1089 q 551 1054 571 1067 q 508 1042 531 1042 q 469 1053 488 1042 q 442 1089 451 1065 l 321 1351 z "},"Ş":{"ha":978,"x_min":75,"x_max":889,"o":"m 889 269 q 837 122 889 185 q 695 25 785 60 q 497 -14 606 -10 l 464 -83 q 563 -139 531 -106 q 596 -210 596 -172 q 553 -306 596 -271 q 451 -340 511 -340 q 379 -326 414 -340 q 319 -282 344 -311 l 333 -261 q 429 -297 385 -297 q 481 -278 461 -297 q 501 -231 501 -258 q 472 -169 501 -197 q 388 -133 443 -142 l 446 -14 q 238 23 328 -11 q 75 115 149 57 l 172 194 q 299 74 215 125 q 468 19 383 22 q 633 60 575 14 q 692 181 692 106 q 658 263 692 226 q 574 326 624 299 q 435 394 524 354 q 260 481 326 443 q 148 577 194 519 q 101 711 101 635 q 157 857 101 794 q 303 953 213 919 q 493 986 393 986 q 710 956 622 986 q 872 867 797 926 l 775 789 q 657 906 732 858 q 500 953 582 953 q 345 911 406 951 q 285 797 285 871 q 319 713 285 750 q 406 649 354 676 q 549 582 457 622 q 726 498 658 535 q 841 404 793 461 q 889 269 889 347 z "},"Ș":{"ha":978,"x_min":75,"x_max":889,"o":"m 469 -14 q 247 20 342 -14 q 75 115 153 54 l 172 194 q 299 74 215 125 q 468 19 383 22 q 633 60 575 14 q 692 181 692 106 q 658 263 692 226 q 574 326 624 299 q 435 394 524 354 q 260 481 326 443 q 148 577 194 519 q 101 711 101 635 q 157 857 101 794 q 303 953 213 919 q 493 986 393 986 q 710 956 622 986 q 872 867 797 926 l 775 789 q 657 906 732 858 q 500 953 582 953 q 345 911 406 951 q 285 797 285 871 q 319 713 285 750 q 406 649 354 676 q 549 582 457 622 q 726 498 658 535 q 841 404 793 461 q 889 269 889 347 q 833 117 889 182 q 681 19 776 53 q 469 -14 585 -14 m 449 -397 q 474 -344 464 -374 q 485 -290 485 -315 q 474 -258 485 -269 q 444 -235 464 -247 q 405 -203 418 -219 q 392 -153 392 -186 q 418 -90 392 -114 q 479 -65 444 -65 q 543 -94 519 -65 q 567 -167 567 -122 q 535 -298 567 -225 q 468 -407 503 -371 l 449 -397 z "},"T":{"ha":975,"x_min":75,"x_max":900,"o":"m 596 0 l 376 0 l 376 936 l 75 936 l 75 972 l 900 972 l 900 936 l 596 936 l 596 0 z "},"Ŧ":{"ha":975,"x_min":75,"x_max":900,"o":"m 900 972 l 900 936 l 596 936 l 596 481 l 717 481 l 717 396 l 596 396 l 596 0 l 376 0 l 376 396 l 249 396 l 249 481 l 376 481 l 376 936 l 75 936 l 75 972 l 900 972 z "},"Ť":{"ha":975,"x_min":75,"x_max":900,"o":"m 596 0 l 376 0 l 376 936 l 75 936 l 75 972 l 900 972 l 900 936 l 596 936 l 596 0 m 293 1350 l 336 1350 l 483 1157 l 631 1350 l 674 1350 l 553 1088 q 523 1053 543 1065 q 481 1040 503 1040 q 442 1052 460 1040 q 414 1088 424 1064 l 293 1350 z "},"Ţ":{"ha":975,"x_min":75,"x_max":900,"o":"m 596 0 l 510 0 l 486 -51 q 585 -107 553 -74 q 618 -178 618 -140 q 576 -274 618 -239 q 474 -308 533 -308 q 401 -294 436 -308 q 342 -250 367 -279 l 356 -229 q 451 -265 407 -265 q 503 -246 483 -265 q 524 -199 524 -226 q 494 -137 524 -165 q 410 -101 465 -110 l 460 0 l 376 0 l 376 936 l 75 936 l 75 972 l 900 972 l 900 936 l 596 936 l 596 0 z "},"Ț":{"ha":975,"x_min":75,"x_max":900,"o":"m 596 0 l 376 0 l 376 936 l 75 936 l 75 972 l 900 972 l 900 936 l 596 936 l 596 0 m 450 -378 q 476 -325 465 -354 q 486 -271 486 -296 q 476 -239 486 -250 q 446 -215 465 -228 q 406 -183 419 -200 q 393 -133 393 -167 q 419 -70 393 -94 q 481 -46 446 -46 q 544 -74 521 -46 q 568 -147 568 -103 q 536 -278 568 -206 q 469 -387 504 -351 l 450 -378 z "},"U":{"ha":1017,"x_min":65,"x_max":914,"o":"m 533 -14 q 219 92 335 -14 q 103 421 103 197 l 103 860 q 96 922 103 904 q 77 949 89 939 q 65 972 65 958 l 311 972 l 311 397 q 376 114 311 203 q 569 25 440 25 q 791 121 706 25 q 876 404 876 217 l 876 972 l 914 972 l 914 424 q 817 96 914 206 q 533 -14 721 -14 z "},"Ú":{"ha":1011,"x_min":65,"x_max":914,"o":"m 533 -14 q 219 92 335 -14 q 103 421 103 197 l 103 860 q 96 922 103 904 q 77 949 89 939 q 65 972 65 958 l 311 972 l 311 397 q 376 114 311 203 q 569 25 440 25 q 791 121 706 25 q 876 404 876 217 l 876 972 l 914 972 l 914 424 q 817 96 914 206 q 533 -14 721 -14 m 628 1299 q 657 1334 639 1322 q 696 1346 675 1346 q 744 1329 722 1346 q 765 1288 765 1313 q 744 1243 765 1267 l 550 1036 l 507 1036 l 628 1299 z "},"Û":{"ha":1011,"x_min":65,"x_max":914,"o":"m 533 -14 q 219 92 335 -14 q 103 421 103 197 l 103 860 q 96 922 103 904 q 77 949 89 939 q 65 972 65 958 l 311 972 l 311 397 q 376 114 311 203 q 569 25 440 25 q 791 121 706 25 q 876 404 876 217 l 876 972 l 914 972 l 914 424 q 817 96 914 206 q 533 -14 721 -14 m 522 1306 q 550 1341 532 1329 q 589 1353 568 1353 q 631 1340 611 1353 q 661 1306 651 1328 l 782 1043 l 739 1043 l 592 1236 l 444 1043 l 401 1043 l 522 1306 z "},"Ü":{"ha":1011,"x_min":65,"x_max":914,"o":"m 533 -14 q 219 92 335 -14 q 103 421 103 197 l 103 860 q 96 922 103 904 q 77 949 89 939 q 65 972 65 958 l 311 972 l 311 397 q 376 114 311 203 q 569 25 440 25 q 791 121 706 25 q 876 404 876 217 l 876 972 l 914 972 l 914 424 q 817 96 914 206 q 533 -14 721 -14 m 471 1036 q 410 1060 435 1036 q 385 1122 385 1085 q 408 1183 385 1157 q 467 1208 432 1208 q 531 1183 504 1208 q 558 1122 558 1158 q 533 1060 558 1085 q 471 1036 508 1036 m 701 1036 q 639 1060 664 1036 q 614 1122 614 1085 q 640 1182 614 1157 q 701 1207 665 1207 q 763 1182 738 1207 q 788 1122 788 1157 q 763 1060 788 1085 q 701 1036 738 1036 z "},"Ù":{"ha":1011,"x_min":65,"x_max":914,"o":"m 533 -14 q 219 92 335 -14 q 103 421 103 197 l 103 860 q 96 922 103 904 q 77 949 89 939 q 65 972 65 958 l 311 972 l 311 397 q 376 114 311 203 q 569 25 440 25 q 791 121 706 25 q 876 404 876 217 l 876 972 l 914 972 l 914 424 q 817 96 914 206 q 533 -14 721 -14 m 390 1250 q 369 1296 369 1274 q 390 1336 369 1319 q 438 1353 411 1353 q 477 1341 458 1353 q 507 1306 496 1329 l 628 1043 l 585 1043 l 390 1250 z "},"Ű":{"ha":1011,"x_min":65,"x_max":914,"o":"m 533 -14 q 219 92 335 -14 q 103 421 103 197 l 103 860 q 96 922 103 904 q 77 949 89 939 q 65 972 65 958 l 311 972 l 311 397 q 376 114 311 203 q 569 25 440 25 q 791 121 706 25 q 876 404 876 217 l 876 972 l 914 972 l 914 424 q 817 96 914 206 q 533 -14 721 -14 m 526 1303 q 556 1338 538 1326 q 596 1350 575 1350 q 644 1333 622 1350 q 665 1292 665 1317 q 644 1247 665 1271 l 449 1040 l 407 1040 l 526 1303 m 736 1303 q 766 1338 747 1326 q 806 1350 785 1350 q 854 1333 833 1350 q 875 1292 875 1317 q 856 1247 875 1268 l 658 1040 l 618 1040 l 736 1303 z "},"Ū":{"ha":1011,"x_min":65,"x_max":914,"o":"m 533 -14 q 219 92 335 -14 q 103 421 103 197 l 103 860 q 96 922 103 904 q 77 949 89 939 q 65 972 65 958 l 311 972 l 311 397 q 376 114 311 203 q 569 25 440 25 q 791 121 706 25 q 876 404 876 217 l 876 972 l 914 972 l 914 424 q 817 96 914 206 q 533 -14 721 -14 m 811 1065 l 336 1065 l 336 1142 l 811 1142 l 811 1065 z "},"Ų":{"ha":1011,"x_min":65,"x_max":914,"o":"m 876 972 l 914 972 l 914 424 q 824 103 914 213 q 558 -14 733 -7 q 517 -135 517 -78 q 549 -218 517 -186 q 625 -250 581 -250 q 696 -225 663 -250 l 715 -253 q 646 -303 685 -286 q 568 -321 607 -321 q 467 -287 508 -321 q 426 -194 426 -253 q 511 -14 426 -114 q 213 97 322 -10 q 103 421 103 204 l 103 860 q 96 922 103 904 q 77 949 89 939 q 65 972 65 958 l 311 972 l 311 397 q 376 114 311 203 q 569 25 440 25 q 791 121 706 25 q 876 404 876 217 l 876 972 z "},"Ů":{"ha":1017,"x_min":65,"x_max":914,"o":"m 533 -14 q 219 92 335 -14 q 103 421 103 197 l 103 860 q 96 922 103 904 q 77 949 89 939 q 65 972 65 958 l 311 972 l 311 397 q 376 114 311 203 q 569 25 440 25 q 791 121 706 25 q 876 404 876 217 l 876 972 l 914 972 l 914 424 q 817 96 914 206 q 533 -14 721 -14 m 583 1038 q 475 1083 521 1038 q 429 1192 429 1129 q 475 1300 429 1254 q 583 1346 521 1346 q 692 1300 646 1346 q 738 1192 738 1254 q 692 1083 738 1129 q 583 1038 646 1038 m 583 1090 q 653 1120 624 1090 q 683 1192 683 1150 q 653 1262 683 1232 q 583 1292 624 1292 q 513 1262 543 1292 q 483 1192 483 1232 q 513 1120 483 1150 q 583 1090 543 1090 z "},"V":{"ha":1022,"x_min":33,"x_max":964,"o":"m 94 871 q 75 910 85 897 q 51 938 65 924 q 38 953 42 946 q 33 972 33 960 l 289 972 l 606 101 l 924 972 l 964 972 l 608 0 l 408 0 l 94 871 z "},"W":{"ha":1543,"x_min":33,"x_max":1485,"o":"m 94 871 q 75 910 85 897 q 51 938 65 924 q 38 953 42 946 q 33 972 33 960 l 289 972 l 593 136 l 810 972 l 889 972 l 1133 121 l 1444 972 l 1485 972 l 1129 0 l 940 0 l 760 628 l 597 0 l 408 0 l 94 871 z "},"Ẃ":{"ha":1543,"x_min":33,"x_max":1485,"o":"m 94 871 q 75 910 85 897 q 51 938 65 924 q 38 953 42 946 q 33 972 33 960 l 289 972 l 593 136 l 810 972 l 889 972 l 1133 121 l 1444 972 l 1485 972 l 1129 0 l 940 0 l 760 628 l 597 0 l 408 0 l 94 871 m 836 1308 q 865 1344 847 1332 q 904 1356 883 1356 q 952 1339 931 1356 q 974 1297 974 1322 q 953 1253 974 1276 l 758 1046 l 715 1046 l 836 1308 z "},"Ŵ":{"ha":1543,"x_min":33,"x_max":1485,"o":"m 94 871 q 75 910 85 897 q 51 938 65 924 q 38 953 42 946 q 33 972 33 960 l 289 972 l 593 136 l 810 972 l 889 972 l 1133 121 l 1444 972 l 1485 972 l 1129 0 l 940 0 l 760 628 l 597 0 l 408 0 l 94 871 m 781 1311 q 808 1347 790 1335 q 847 1358 826 1358 q 890 1346 869 1358 q 919 1311 910 1333 l 1040 1049 l 997 1049 l 850 1242 l 703 1049 l 660 1049 l 781 1311 z "},"Ẅ":{"ha":1543,"x_min":33,"x_max":1485,"o":"m 94 871 q 75 910 85 897 q 51 938 65 924 q 38 953 42 946 q 33 972 33 960 l 289 972 l 593 136 l 810 972 l 889 972 l 1133 121 l 1444 972 l 1485 972 l 1129 0 l 940 0 l 760 628 l 597 0 l 408 0 l 94 871 m 725 1042 q 664 1066 689 1042 q 639 1128 639 1090 q 663 1188 639 1163 q 721 1214 686 1214 q 785 1189 758 1214 q 813 1128 813 1164 q 788 1066 813 1090 q 725 1042 763 1042 m 956 1042 q 893 1066 918 1042 q 868 1128 868 1090 q 894 1188 868 1163 q 956 1213 919 1213 q 1017 1188 992 1213 q 1042 1128 1042 1163 q 1017 1066 1042 1090 q 956 1042 992 1042 z "},"Ẁ":{"ha":1543,"x_min":33,"x_max":1485,"o":"m 94 871 q 75 910 85 897 q 51 938 65 924 q 38 953 42 946 q 33 972 33 960 l 289 972 l 593 136 l 810 972 l 889 972 l 1133 121 l 1444 972 l 1485 972 l 1129 0 l 940 0 l 760 628 l 597 0 l 408 0 l 94 871 m 696 1247 q 675 1293 675 1271 q 696 1333 675 1317 q 743 1350 717 1350 q 783 1338 764 1350 q 813 1303 801 1326 l 933 1040 l 890 1040 l 696 1247 z "},"X":{"ha":1014,"x_min":67,"x_max":922,"o":"m 92 0 l 422 414 l 156 865 q 94 932 132 904 q 73 951 79 943 q 67 972 67 960 l 347 972 l 569 594 l 872 972 l 922 972 l 592 558 l 922 0 l 667 0 l 443 379 l 140 0 l 92 0 z "},"Y":{"ha":992,"x_min":39,"x_max":931,"o":"m 386 0 l 386 399 l 124 860 q 65 929 103 896 q 45 950 51 942 q 39 972 39 958 l 311 972 l 583 494 l 886 972 l 931 972 l 604 458 l 604 0 l 386 0 z "},"Ý":{"ha":981,"x_min":39,"x_max":931,"o":"m 386 0 l 386 399 l 124 860 q 65 929 103 896 q 45 950 51 942 q 39 972 39 958 l 311 972 l 583 494 l 886 972 l 931 972 l 604 458 l 604 0 l 386 0 m 632 1307 q 661 1342 643 1331 q 700 1354 679 1354 q 748 1338 726 1354 q 769 1296 769 1321 q 749 1251 769 1275 l 554 1044 l 511 1044 l 632 1307 z "},"Ŷ":{"ha":981,"x_min":39,"x_max":931,"o":"m 386 0 l 386 399 l 124 860 q 65 929 103 896 q 45 950 51 942 q 39 972 39 958 l 311 972 l 583 494 l 886 972 l 931 972 l 604 458 l 604 0 l 386 0 m 501 1306 q 529 1341 511 1329 q 568 1353 547 1353 q 610 1340 590 1353 q 640 1306 631 1328 l 761 1043 l 718 1043 l 571 1236 l 424 1043 l 381 1043 l 501 1306 z "},"Ÿ":{"ha":981,"x_min":39,"x_max":931,"o":"m 386 0 l 386 399 l 124 860 q 65 929 103 896 q 45 950 51 942 q 39 972 39 958 l 311 972 l 583 494 l 886 972 l 931 972 l 604 458 l 604 0 l 386 0 m 460 1046 q 399 1070 424 1046 q 374 1132 374 1094 q 397 1192 374 1167 q 456 1218 421 1218 q 520 1193 493 1218 q 547 1132 547 1168 q 522 1070 547 1094 q 460 1046 497 1046 m 690 1046 q 628 1070 653 1046 q 603 1132 603 1094 q 628 1192 603 1167 q 690 1217 654 1217 q 751 1192 726 1217 q 776 1132 776 1167 q 751 1070 776 1094 q 690 1046 726 1046 z "},"Ỳ":{"ha":981,"x_min":39,"x_max":931,"o":"m 386 0 l 386 399 l 124 860 q 65 929 103 896 q 45 950 51 942 q 39 972 39 958 l 311 972 l 583 494 l 886 972 l 931 972 l 604 458 l 604 0 l 386 0 m 376 1246 q 356 1292 356 1269 q 376 1332 356 1315 q 424 1349 397 1349 q 463 1337 444 1349 q 493 1301 482 1325 l 614 1039 l 571 1039 l 376 1246 z "},"Z":{"ha":986,"x_min":103,"x_max":883,"o":"m 883 0 l 103 0 l 614 936 l 104 936 l 104 972 l 883 972 l 372 36 l 883 36 l 883 0 z "},"Ź":{"ha":986,"x_min":103,"x_max":883,"o":"m 883 0 l 103 0 l 614 936 l 104 936 l 104 972 l 883 972 l 372 36 l 883 36 l 883 0 m 547 1308 q 576 1344 558 1332 q 615 1356 594 1356 q 663 1339 642 1356 q 685 1297 685 1322 q 664 1253 685 1276 l 469 1046 l 426 1046 l 547 1308 z "},"Ž":{"ha":986,"x_min":103,"x_max":883,"o":"m 883 0 l 103 0 l 614 936 l 104 936 l 104 972 l 883 972 l 372 36 l 883 36 l 883 0 m 274 1357 l 317 1357 l 464 1164 l 611 1357 l 654 1357 l 533 1094 q 503 1060 524 1072 q 461 1047 483 1047 q 422 1059 440 1047 q 394 1094 404 1071 l 274 1357 z "},"Ż":{"ha":986,"x_min":103,"x_max":883,"o":"m 883 0 l 103 0 l 614 936 l 104 936 l 104 972 l 883 972 l 372 36 l 883 36 l 883 0 m 447 1043 q 386 1068 411 1043 q 361 1129 361 1093 q 386 1189 361 1164 q 447 1214 411 1214 q 508 1189 483 1214 q 533 1129 533 1164 q 508 1068 533 1093 q 447 1043 483 1043 z "},"a":{"ha":889,"x_min":83,"x_max":850,"o":"m 306 -14 q 147 33 210 -14 q 83 161 83 79 q 123 265 83 225 q 219 328 163 306 q 374 378 276 350 q 501 417 456 401 q 582 458 547 433 q 572 579 581 533 q 534 653 563 625 q 449 681 506 681 q 314 627 376 681 q 210 488 251 574 l 125 538 q 296 667 188 625 q 514 708 404 708 q 721 657 644 708 q 797 481 797 606 l 796 224 q 800 103 796 144 q 816 42 804 63 q 850 13 828 22 l 850 0 l 635 0 q 596 32 607 8 q 582 117 585 56 q 451 19 517 51 q 306 -14 386 -14 m 389 43 q 490 72 446 43 q 581 158 533 100 l 582 426 q 527 397 556 408 q 457 371 499 385 q 361 330 396 349 q 304 272 326 311 q 282 167 282 233 q 310 74 282 106 q 389 43 339 43 z "},"á":{"ha":989,"x_min":83,"x_max":850,"o":"m 306 -14 q 147 33 210 -14 q 83 161 83 79 q 123 265 83 225 q 219 328 163 306 q 374 378 276 350 q 501 417 456 401 q 582 458 547 433 q 572 579 581 533 q 534 653 563 625 q 449 681 506 681 q 314 627 376 681 q 210 488 251 574 l 125 538 q 296 667 188 625 q 514 708 404 708 q 721 657 644 708 q 797 481 797 606 l 796 224 q 800 103 796 144 q 816 42 804 63 q 850 13 828 22 l 850 0 l 635 0 q 596 32 607 8 q 582 117 585 56 q 451 19 517 51 q 306 -14 386 -14 m 389 43 q 490 72 446 43 q 581 158 533 100 l 582 426 q 527 397 556 408 q 457 371 499 385 q 361 330 396 349 q 304 272 326 311 q 282 167 282 233 q 310 74 282 106 q 389 43 339 43 m 504 1040 q 533 1076 515 1064 q 572 1088 551 1088 q 620 1071 599 1088 q 642 1029 642 1054 q 621 985 642 1008 l 426 778 l 383 778 l 504 1040 z "},"ă":{"ha":989,"x_min":83,"x_max":850,"o":"m 306 -14 q 147 33 210 -14 q 83 161 83 79 q 123 265 83 225 q 219 328 163 306 q 374 378 276 350 q 501 417 456 401 q 582 458 547 433 q 572 579 581 533 q 534 653 563 625 q 449 681 506 681 q 314 627 376 681 q 210 488 251 574 l 125 538 q 296 667 188 625 q 514 708 404 708 q 721 657 644 708 q 797 481 797 606 l 796 224 q 800 103 796 144 q 816 42 804 63 q 850 13 828 22 l 850 0 l 635 0 q 596 32 607 8 q 582 117 585 56 q 451 19 517 51 q 306 -14 386 -14 m 389 43 q 490 72 446 43 q 581 158 533 100 l 582 426 q 527 397 556 408 q 457 371 499 385 q 361 330 396 349 q 304 272 326 311 q 282 167 282 233 q 310 74 282 106 q 389 43 339 43 m 494 782 q 380 807 433 782 q 292 881 326 832 q 257 1000 258 931 l 303 1000 q 365 905 308 939 q 494 871 421 871 q 624 905 568 871 q 686 1000 681 939 l 732 1000 q 697 881 731 931 q 609 807 663 832 q 494 782 556 782 z "},"â":{"ha":989,"x_min":83,"x_max":850,"o":"m 306 -14 q 147 33 210 -14 q 83 161 83 79 q 123 265 83 225 q 219 328 163 306 q 374 378 276 350 q 501 417 456 401 q 582 458 547 433 q 572 579 581 533 q 534 653 563 625 q 449 681 506 681 q 314 627 376 681 q 210 488 251 574 l 125 538 q 296 667 188 625 q 514 708 404 708 q 721 657 644 708 q 797 481 797 606 l 796 224 q 800 103 796 144 q 816 42 804 63 q 850 13 828 22 l 850 0 l 635 0 q 596 32 607 8 q 582 117 585 56 q 451 19 517 51 q 306 -14 386 -14 m 389 43 q 490 72 446 43 q 581 158 533 100 l 582 426 q 527 397 556 408 q 457 371 499 385 q 361 330 396 349 q 304 272 326 311 q 282 167 282 233 q 310 74 282 106 q 389 43 339 43 m 386 1039 q 414 1074 396 1063 q 453 1086 432 1086 q 495 1074 475 1086 q 525 1039 515 1061 l 646 776 l 603 776 l 456 969 l 308 776 l 265 776 l 386 1039 z "},"ä":{"ha":989,"x_min":83,"x_max":850,"o":"m 306 -14 q 147 33 210 -14 q 83 161 83 79 q 123 265 83 225 q 219 328 163 306 q 374 378 276 350 q 501 417 456 401 q 582 458 547 433 q 572 579 581 533 q 534 653 563 625 q 449 681 506 681 q 314 627 376 681 q 210 488 251 574 l 125 538 q 296 667 188 625 q 514 708 404 708 q 721 657 644 708 q 797 481 797 606 l 796 224 q 800 103 796 144 q 816 42 804 63 q 850 13 828 22 l 850 0 l 635 0 q 596 32 607 8 q 582 117 585 56 q 451 19 517 51 q 306 -14 386 -14 m 389 43 q 490 72 446 43 q 581 158 533 100 l 582 426 q 527 397 556 408 q 457 371 499 385 q 361 330 396 349 q 304 272 326 311 q 282 167 282 233 q 310 74 282 106 q 389 43 339 43 m 346 783 q 285 808 310 783 q 260 869 260 832 q 283 930 260 904 q 342 956 307 956 q 406 931 379 956 q 433 869 433 906 q 408 808 433 832 q 346 783 383 783 m 576 783 q 514 808 539 783 q 489 869 489 832 q 515 929 489 904 q 576 954 540 954 q 638 929 613 954 q 663 869 663 904 q 638 808 663 832 q 576 783 613 783 z "},"à":{"ha":989,"x_min":83,"x_max":850,"o":"m 306 -14 q 147 33 210 -14 q 83 161 83 79 q 123 265 83 225 q 219 328 163 306 q 374 378 276 350 q 501 417 456 401 q 582 458 547 433 q 572 579 581 533 q 534 653 563 625 q 449 681 506 681 q 314 627 376 681 q 210 488 251 574 l 125 538 q 296 667 188 625 q 514 708 404 708 q 721 657 644 708 q 797 481 797 606 l 796 224 q 800 103 796 144 q 816 42 804 63 q 850 13 828 22 l 850 0 l 635 0 q 596 32 607 8 q 582 117 585 56 q 451 19 517 51 q 306 -14 386 -14 m 389 43 q 490 72 446 43 q 581 158 533 100 l 582 426 q 527 397 556 408 q 457 371 499 385 q 361 330 396 349 q 304 272 326 311 q 282 167 282 233 q 310 74 282 106 q 389 43 339 43 m 371 982 q 350 1028 350 1006 q 371 1068 350 1051 q 418 1085 392 1085 q 458 1073 439 1085 q 488 1038 476 1061 l 608 775 l 565 775 l 371 982 z "},"ā":{"ha":989,"x_min":83,"x_max":850,"o":"m 306 -14 q 147 33 210 -14 q 83 161 83 79 q 123 265 83 225 q 219 328 163 306 q 374 378 276 350 q 501 417 456 401 q 582 458 547 433 q 572 579 581 533 q 534 653 563 625 q 449 681 506 681 q 314 627 376 681 q 210 488 251 574 l 125 538 q 296 667 188 625 q 514 708 404 708 q 721 657 644 708 q 797 481 797 606 l 796 224 q 800 103 796 144 q 816 42 804 63 q 850 13 828 22 l 850 0 l 635 0 q 596 32 607 8 q 582 117 585 56 q 451 19 517 51 q 306 -14 386 -14 m 389 43 q 490 72 446 43 q 581 158 533 100 l 582 426 q 527 397 556 408 q 457 371 499 385 q 361 330 396 349 q 304 272 326 311 q 282 167 282 233 q 310 74 282 106 q 389 43 339 43 m 731 797 l 256 797 l 256 874 l 731 874 l 731 797 z "},"ą":{"ha":989,"x_min":83,"x_max":850,"o":"m 796 224 q 800 103 796 144 q 816 42 804 63 q 850 13 828 22 l 850 0 l 635 0 q 596 32 607 8 q 582 117 585 56 q 431 10 503 38 l 453 -4 q 400 -142 400 -76 q 432 -225 400 -193 q 508 -257 464 -257 q 579 -232 549 -257 l 599 -260 q 529 -310 568 -293 q 451 -328 490 -328 q 352 -294 393 -328 q 311 -201 311 -260 q 417 4 311 -110 q 306 -14 368 -14 q 147 33 210 -14 q 83 161 83 79 q 123 265 83 225 q 219 328 163 306 q 374 378 276 350 q 501 417 456 401 q 582 458 547 433 q 572 579 581 533 q 534 653 563 625 q 449 681 506 681 q 314 627 376 681 q 210 488 251 574 l 125 538 q 296 667 188 625 q 514 708 404 708 q 721 657 644 708 q 797 481 797 606 l 796 224 m 582 426 q 527 397 556 408 q 457 371 499 385 q 361 330 396 349 q 304 272 326 311 q 282 167 282 233 q 310 74 282 106 q 389 43 339 43 q 490 72 446 43 q 581 158 533 100 l 582 426 z "},"å":{"ha":989,"x_min":83,"x_max":850,"o":"m 306 -14 q 147 33 210 -14 q 83 161 83 79 q 123 265 83 225 q 219 328 163 306 q 374 378 276 350 q 501 417 456 401 q 582 458 547 433 q 572 579 581 533 q 534 653 563 625 q 449 681 506 681 q 314 627 376 681 q 210 488 251 574 l 125 538 q 296 667 188 625 q 514 708 404 708 q 721 657 644 708 q 797 481 797 606 l 796 224 q 800 103 796 144 q 816 42 804 63 q 850 13 828 22 l 850 0 l 635 0 q 596 32 607 8 q 582 117 585 56 q 451 19 517 51 q 306 -14 386 -14 m 389 43 q 490 72 446 43 q 581 158 533 100 l 582 426 q 527 397 556 408 q 457 371 499 385 q 361 330 396 349 q 304 272 326 311 q 282 167 282 233 q 310 74 282 106 q 389 43 339 43 m 515 776 q 407 822 453 776 q 361 931 361 868 q 407 1039 361 993 q 515 1085 453 1085 q 624 1039 578 1085 q 669 931 669 993 q 624 822 669 868 q 515 776 578 776 m 515 829 q 585 859 556 829 q 615 931 615 889 q 585 1001 615 971 q 515 1031 556 1031 q 445 1001 475 1031 q 415 931 415 971 q 445 859 415 889 q 515 829 475 829 z "},"ã":{"ha":989,"x_min":83,"x_max":850,"o":"m 306 -14 q 147 33 210 -14 q 83 161 83 79 q 123 265 83 225 q 219 328 163 306 q 374 378 276 350 q 501 417 456 401 q 582 458 547 433 q 572 579 581 533 q 534 653 563 625 q 449 681 506 681 q 314 627 376 681 q 210 488 251 574 l 125 538 q 296 667 188 625 q 514 708 404 708 q 721 657 644 708 q 797 481 797 606 l 796 224 q 800 103 796 144 q 816 42 804 63 q 850 13 828 22 l 850 0 l 635 0 q 596 32 607 8 q 582 117 585 56 q 451 19 517 51 q 306 -14 386 -14 m 389 43 q 490 72 446 43 q 581 158 533 100 l 582 426 q 527 397 556 408 q 457 371 499 385 q 361 330 396 349 q 304 272 326 311 q 282 167 282 233 q 310 74 282 106 q 389 43 339 43 m 639 793 q 465 832 582 793 q 383 856 414 849 q 329 864 353 864 q 289 851 303 864 q 275 810 275 839 l 235 810 q 343 944 235 944 q 415 935 376 944 q 514 907 454 925 q 653 874 608 874 q 693 886 679 874 q 707 928 707 899 l 747 928 q 639 793 747 793 z "},"æ":{"ha":1463,"x_min":72,"x_max":1388,"o":"m 294 -14 q 135 33 199 -14 q 72 161 72 79 q 112 265 72 225 q 208 328 151 306 q 363 378 265 350 q 490 417 444 401 q 571 458 536 433 q 560 579 569 533 q 523 653 551 625 q 438 681 494 681 q 303 627 365 681 q 199 488 240 574 l 114 538 q 285 667 176 625 q 503 708 393 708 q 728 635 660 708 q 852 690 782 671 q 1000 708 922 708 q 1202 664 1114 708 q 1339 535 1290 619 q 1388 338 1388 451 l 786 338 q 817 175 788 249 q 903 58 847 101 q 1038 14 960 14 q 1253 163 1165 14 l 1354 114 q 1223 20 1314 54 q 1021 -14 1132 -14 q 783 30 886 -14 q 624 157 679 74 q 470 32 550 78 q 294 -14 390 -14 m 1204 372 q 1157 600 1204 519 q 1010 681 1110 681 q 849 590 907 681 q 786 372 792 500 l 1204 372 m 378 43 q 494 83 432 43 q 607 185 556 124 q 571 346 571 251 l 571 426 q 516 397 544 408 q 446 371 488 385 q 350 330 385 349 q 293 272 315 311 q 271 167 271 233 q 299 74 271 106 q 378 43 328 43 z "},"b":{"ha":992,"x_min":61,"x_max":917,"o":"m 568 -14 q 414 17 483 -14 q 307 107 344 47 l 307 0 l 92 0 l 92 874 q 86 935 92 918 q 71 963 81 953 q 61 986 61 972 l 307 986 l 307 596 q 419 678 350 649 q 565 708 488 708 q 753 661 674 708 q 875 531 833 614 q 917 347 917 449 q 876 172 917 254 q 757 38 836 89 q 568 -14 678 -14 m 478 40 q 642 126 585 40 q 699 347 699 211 q 648 576 699 486 q 497 665 597 665 q 413 642 456 665 q 342 574 371 618 q 307 475 313 531 l 307 228 q 365 93 315 146 q 478 40 415 40 z "},"c":{"ha":906,"x_min":86,"x_max":829,"o":"m 517 -14 q 273 35 369 -14 q 131 167 176 85 q 86 347 86 249 q 133 527 86 444 q 277 659 181 610 q 517 708 374 708 q 707 674 626 708 q 829 582 788 639 l 736 535 q 535 686 657 686 q 413 636 465 686 q 334 508 361 586 q 307 347 307 429 q 333 188 307 265 q 410 59 360 110 q 532 8 461 8 q 736 161 658 8 l 829 113 q 707 21 788 56 q 517 -14 626 -14 z "},"ć":{"ha":906,"x_min":86,"x_max":829,"o":"m 517 -14 q 273 35 369 -14 q 131 167 176 85 q 86 347 86 249 q 133 527 86 444 q 277 659 181 610 q 517 708 374 708 q 707 674 626 708 q 829 582 788 639 l 736 535 q 535 686 657 686 q 413 636 465 686 q 334 508 361 586 q 307 347 307 429 q 333 188 307 265 q 410 59 360 110 q 532 8 461 8 q 736 161 658 8 l 829 113 q 707 21 788 56 q 517 -14 626 -14 m 517 1042 q 546 1077 528 1065 q 585 1089 564 1089 q 633 1072 611 1089 q 654 1031 654 1056 q 633 986 654 1010 l 439 779 l 396 779 l 517 1042 z "},"č":{"ha":858,"x_min":86,"x_max":829,"o":"m 517 -14 q 273 35 369 -14 q 131 167 176 85 q 86 347 86 249 q 133 527 86 444 q 277 659 181 610 q 517 708 374 708 q 707 674 626 708 q 829 582 788 639 l 736 535 q 535 686 657 686 q 413 636 465 686 q 334 508 361 586 q 307 347 307 429 q 333 188 307 265 q 410 59 360 110 q 532 8 461 8 q 736 161 658 8 l 829 113 q 707 21 788 56 q 517 -14 626 -14 m 296 1089 l 339 1089 l 486 896 l 633 1089 l 676 1089 l 556 826 q 526 792 546 804 q 483 779 506 779 q 444 791 463 779 q 417 826 426 803 l 296 1089 z "},"ç":{"ha":858,"x_min":86,"x_max":829,"o":"m 532 8 q 736 161 658 8 l 829 113 q 707 21 788 56 q 517 -14 626 -14 l 493 -14 l 456 -93 q 555 -149 522 -115 q 588 -219 588 -182 q 545 -315 588 -281 q 443 -350 503 -350 q 371 -335 406 -350 q 311 -292 336 -321 l 325 -271 q 421 -307 376 -307 q 473 -287 453 -307 q 493 -240 493 -268 q 464 -179 493 -207 q 379 -143 435 -151 l 444 -11 q 174 107 263 7 q 86 347 86 207 q 133 527 86 444 q 277 659 181 610 q 517 708 374 708 q 707 674 626 708 q 829 582 788 639 l 736 535 q 535 686 657 686 q 413 636 465 686 q 334 508 361 586 q 307 347 307 429 q 333 188 307 265 q 410 59 360 110 q 532 8 461 8 z "},"ċ":{"ha":906,"x_min":86,"x_max":829,"o":"m 517 -14 q 273 35 369 -14 q 131 167 176 85 q 86 347 86 249 q 133 527 86 444 q 277 659 181 610 q 517 708 374 708 q 707 674 626 708 q 829 582 788 639 l 736 535 q 535 686 657 686 q 413 636 465 686 q 334 508 361 586 q 307 347 307 429 q 333 188 307 265 q 410 59 360 110 q 532 8 461 8 q 736 161 658 8 l 829 113 q 707 21 788 56 q 517 -14 626 -14 m 492 778 q 431 803 456 778 q 406 864 406 828 q 431 924 406 899 q 492 949 456 949 q 553 924 528 949 q 578 864 578 899 q 553 803 578 828 q 492 778 528 778 z "},"d":{"ha":989,"x_min":74,"x_max":950,"o":"m 422 -14 q 238 38 318 -14 q 116 172 158 89 q 74 347 74 256 q 118 530 74 447 q 243 660 163 613 q 428 708 324 708 q 578 680 513 708 q 682 600 643 651 l 682 874 q 676 935 682 918 q 662 963 671 953 q 653 986 653 972 l 897 986 l 897 479 l 896 251 q 900 115 896 161 q 915 47 904 69 q 950 13 926 24 l 950 0 l 735 0 q 697 29 708 7 q 682 107 686 51 q 576 17 644 47 q 422 -14 507 -14 m 507 40 q 588 64 549 40 q 651 130 626 88 q 681 226 676 172 l 682 476 q 651 574 679 531 q 580 641 622 617 q 494 665 538 665 q 342 576 394 665 q 290 347 290 486 q 347 126 290 213 q 507 40 403 40 z "},"ð":{"ha":840,"x_min":69,"x_max":769,"o":"m 558 892 q 715 698 661 813 q 769 436 769 583 q 726 203 769 306 q 606 44 683 101 q 425 -14 528 -14 q 230 37 310 -14 q 110 169 150 88 q 69 344 69 251 q 107 517 69 436 q 218 647 144 597 q 392 697 292 697 q 578 631 506 697 q 478 844 546 760 l 340 765 l 311 817 l 436 889 q 231 992 350 967 l 243 1025 q 504 928 390 996 l 594 981 l 625 929 l 558 892 m 425 29 q 516 83 476 29 q 577 228 556 136 q 599 436 599 321 q 594 513 599 478 q 517 616 571 579 q 406 653 463 653 q 281 567 325 653 q 238 361 238 482 q 259 201 238 278 q 324 77 281 125 q 425 29 367 29 z "},"ď":{"ha":989,"x_min":74,"x_max":1132,"o":"m 422 -14 q 238 38 318 -14 q 116 172 158 89 q 74 347 74 256 q 118 530 74 447 q 243 660 163 613 q 428 708 324 708 q 578 680 513 708 q 682 600 643 651 l 682 874 q 676 935 682 918 q 662 963 671 953 q 653 986 653 972 l 897 986 l 897 479 l 896 251 q 900 115 896 161 q 915 47 904 69 q 950 13 926 24 l 950 0 l 735 0 q 697 29 708 7 q 682 107 686 51 q 576 17 644 47 q 422 -14 507 -14 m 507 40 q 588 64 549 40 q 651 130 626 88 q 681 226 676 172 l 682 476 q 651 574 679 531 q 580 641 622 617 q 494 665 538 665 q 342 576 394 665 q 290 347 290 486 q 347 126 290 213 q 507 40 403 40 m 1014 725 q 1040 778 1029 749 q 1050 832 1050 807 q 1040 864 1050 853 q 1010 888 1029 875 q 970 919 983 903 q 957 969 957 936 q 983 1033 957 1008 q 1044 1057 1010 1057 q 1108 1028 1085 1057 q 1132 956 1132 1000 q 1100 824 1132 897 q 1033 715 1068 751 l 1014 725 z "},"đ":{"ha":989,"x_min":74,"x_max":979,"o":"m 897 774 l 897 479 l 896 251 q 900 115 896 161 q 915 47 904 69 q 950 13 926 24 l 950 0 l 735 0 q 697 29 708 7 q 682 107 686 51 q 576 17 644 47 q 422 -14 507 -14 q 238 38 318 -14 q 116 172 158 89 q 74 347 74 256 q 118 530 74 447 q 243 660 163 613 q 428 708 324 708 q 578 680 513 708 q 682 600 643 651 l 682 774 l 606 774 l 606 858 l 682 858 l 682 874 q 676 935 682 918 q 662 963 671 953 q 653 986 653 972 l 897 986 l 897 858 l 979 858 l 979 774 l 897 774 m 682 476 q 651 574 679 531 q 580 641 622 617 q 494 665 538 665 q 342 576 394 665 q 290 347 290 486 q 347 126 290 213 q 507 40 403 40 q 588 64 549 40 q 651 130 626 88 q 681 226 676 172 l 682 476 z "},"e":{"ha":956,"x_min":75,"x_max":881,"o":"m 519 -14 q 297 27 397 -14 q 135 149 196 68 q 75 347 75 231 q 134 549 75 468 q 288 669 193 631 q 493 708 383 708 q 696 664 608 708 q 832 535 783 619 q 881 338 881 451 l 290 338 q 320 175 292 249 q 403 58 349 101 q 532 14 457 14 q 656 56 603 14 q 746 163 710 99 l 849 114 q 717 20 807 54 q 519 -14 628 -14 m 700 372 q 653 599 700 518 q 506 681 606 681 q 351 591 406 681 q 290 372 296 501 l 700 372 z "},"é":{"ha":936,"x_min":75,"x_max":881,"o":"m 519 -14 q 297 27 397 -14 q 135 149 196 68 q 75 347 75 231 q 134 549 75 468 q 288 669 193 631 q 493 708 383 708 q 696 664 608 708 q 832 535 783 619 q 881 338 881 451 l 290 338 q 320 175 292 249 q 403 58 349 101 q 532 14 457 14 q 656 56 603 14 q 746 163 710 99 l 849 114 q 717 20 807 54 q 519 -14 628 -14 m 700 372 q 653 599 700 518 q 506 681 606 681 q 351 591 406 681 q 290 372 296 501 l 700 372 m 515 1038 q 544 1073 526 1061 q 583 1085 563 1085 q 631 1068 610 1085 q 653 1026 653 1051 q 632 982 653 1006 l 438 775 l 394 775 l 515 1038 z "},"ě":{"ha":936,"x_min":75,"x_max":881,"o":"m 519 -14 q 297 27 397 -14 q 135 149 196 68 q 75 347 75 231 q 134 549 75 468 q 288 669 193 631 q 493 708 383 708 q 696 664 608 708 q 832 535 783 619 q 881 338 881 451 l 290 338 q 320 175 292 249 q 403 58 349 101 q 532 14 457 14 q 656 56 603 14 q 746 163 710 99 l 849 114 q 717 20 807 54 q 519 -14 628 -14 m 700 372 q 653 599 700 518 q 506 681 606 681 q 351 591 406 681 q 290 372 296 501 l 700 372 m 283 1089 l 326 1089 l 474 896 l 621 1089 l 664 1089 l 543 826 q 513 792 533 804 q 471 779 493 779 q 432 791 450 779 q 404 826 414 803 l 283 1089 z "},"ê":{"ha":936,"x_min":75,"x_max":881,"o":"m 519 -14 q 297 27 397 -14 q 135 149 196 68 q 75 347 75 231 q 134 549 75 468 q 288 669 193 631 q 493 708 383 708 q 696 664 608 708 q 832 535 783 619 q 881 338 881 451 l 290 338 q 320 175 292 249 q 403 58 349 101 q 532 14 457 14 q 656 56 603 14 q 746 163 710 99 l 849 114 q 717 20 807 54 q 519 -14 628 -14 m 700 372 q 653 599 700 518 q 506 681 606 681 q 351 591 406 681 q 290 372 296 501 l 700 372 m 401 1038 q 429 1073 411 1061 q 468 1085 447 1085 q 510 1072 490 1085 q 540 1038 531 1060 l 661 775 l 618 775 l 471 968 l 324 775 l 281 775 l 401 1038 z "},"ë":{"ha":936,"x_min":75,"x_max":881,"o":"m 519 -14 q 297 27 397 -14 q 135 149 196 68 q 75 347 75 231 q 134 549 75 468 q 288 669 193 631 q 493 708 383 708 q 696 664 608 708 q 832 535 783 619 q 881 338 881 451 l 290 338 q 320 175 292 249 q 403 58 349 101 q 532 14 457 14 q 656 56 603 14 q 746 163 710 99 l 849 114 q 717 20 807 54 q 519 -14 628 -14 m 700 372 q 653 599 700 518 q 506 681 606 681 q 351 591 406 681 q 290 372 296 501 l 700 372 m 372 778 q 311 802 336 778 q 286 864 286 826 q 310 924 286 899 q 368 950 333 950 q 433 925 406 950 q 460 864 460 900 q 435 802 460 826 q 372 778 410 778 m 603 778 q 540 802 565 778 q 515 864 515 826 q 541 924 515 899 q 603 949 567 949 q 664 924 639 949 q 689 864 689 899 q 664 802 689 826 q 603 778 639 778 z "},"ė":{"ha":956,"x_min":75,"x_max":881,"o":"m 519 -14 q 297 27 397 -14 q 135 149 196 68 q 75 347 75 231 q 134 549 75 468 q 288 669 193 631 q 493 708 383 708 q 696 664 608 708 q 832 535 783 619 q 881 338 881 451 l 290 338 q 320 175 292 249 q 403 58 349 101 q 532 14 457 14 q 656 56 603 14 q 746 163 710 99 l 849 114 q 717 20 807 54 q 519 -14 628 -14 m 700 372 q 653 599 700 518 q 506 681 606 681 q 351 591 406 681 q 290 372 296 501 l 700 372 m 483 778 q 422 803 447 778 q 397 864 397 828 q 422 924 397 899 q 483 949 447 949 q 544 924 519 949 q 569 864 569 899 q 544 803 569 828 q 483 778 519 778 z "},"è":{"ha":936,"x_min":75,"x_max":881,"o":"m 519 -14 q 297 27 397 -14 q 135 149 196 68 q 75 347 75 231 q 134 549 75 468 q 288 669 193 631 q 493 708 383 708 q 696 664 608 708 q 832 535 783 619 q 881 338 881 451 l 290 338 q 320 175 292 249 q 403 58 349 101 q 532 14 457 14 q 656 56 603 14 q 746 163 710 99 l 849 114 q 717 20 807 54 q 519 -14 628 -14 m 700 372 q 653 599 700 518 q 506 681 606 681 q 351 591 406 681 q 290 372 296 501 l 700 372 m 340 985 q 319 1031 319 1008 q 340 1071 319 1054 q 388 1088 361 1088 q 427 1076 408 1088 q 457 1040 446 1064 l 578 778 l 535 778 l 340 985 z "},"ē":{"ha":936,"x_min":75,"x_max":881,"o":"m 519 -14 q 297 27 397 -14 q 135 149 196 68 q 75 347 75 231 q 134 549 75 468 q 288 669 193 631 q 493 708 383 708 q 696 664 608 708 q 832 535 783 619 q 881 338 881 451 l 290 338 q 320 175 292 249 q 403 58 349 101 q 532 14 457 14 q 656 56 603 14 q 746 163 710 99 l 849 114 q 717 20 807 54 q 519 -14 628 -14 m 700 372 q 653 599 700 518 q 506 681 606 681 q 351 591 406 681 q 290 372 296 501 l 700 372 m 722 789 l 247 789 l 247 865 l 722 865 l 722 789 z "},"ę":{"ha":936,"x_min":75,"x_max":881,"o":"m 532 14 q 656 56 603 14 q 746 163 710 99 l 849 114 q 717 19 807 54 q 518 -14 626 -15 q 472 -142 472 -79 q 504 -225 472 -193 q 581 -257 536 -257 q 651 -232 621 -257 l 671 -260 q 601 -310 640 -293 q 524 -328 563 -328 q 424 -294 465 -328 q 383 -201 383 -260 q 474 -12 383 -114 q 271 38 361 -6 q 128 159 181 81 q 75 347 75 238 q 134 549 75 468 q 288 669 193 631 q 493 708 383 708 q 696 664 608 708 q 832 535 783 619 q 881 338 881 451 l 290 338 q 320 175 292 249 q 403 58 349 101 q 532 14 457 14 m 506 681 q 351 591 406 681 q 290 372 296 501 l 700 372 q 653 599 700 518 q 506 681 606 681 z "},"f":{"ha":469,"x_min":-8,"x_max":572,"o":"m 82 0 l 82 657 l -8 657 l -8 694 l 82 694 l 82 726 q 151 920 82 854 q 354 986 219 986 q 572 908 479 986 l 468 836 q 450 869 461 847 q 407 935 424 917 q 365 954 390 954 q 350 953 356 954 q 306 906 315 947 q 297 790 297 865 l 297 694 l 464 694 l 464 657 l 297 657 l 297 0 l 82 0 z "},"g":{"ha":989,"x_min":74,"x_max":928,"o":"m 460 -404 q 253 -362 340 -404 q 114 -235 165 -319 l 226 -185 q 317 -317 260 -265 q 453 -369 374 -369 q 628 -297 575 -369 q 682 -86 682 -224 l 682 107 q 576 17 644 47 q 422 -14 507 -14 q 238 38 318 -14 q 116 172 158 89 q 74 347 74 256 q 118 530 74 447 q 243 660 163 613 q 428 708 324 708 q 600 671 529 708 q 707 561 671 633 l 707 694 l 928 694 q 919 671 928 681 q 903 645 910 661 q 897 582 897 629 l 897 -79 q 835 -257 897 -183 q 672 -367 772 -331 q 460 -404 572 -404 m 507 40 q 622 92 571 40 q 682 226 674 144 l 682 476 q 648 574 676 531 q 578 642 619 618 q 494 665 538 665 q 342 576 394 665 q 290 347 290 486 q 347 126 290 213 q 507 40 403 40 z "},"ğ":{"ha":989,"x_min":74,"x_max":928,"o":"m 460 -404 q 253 -362 340 -404 q 114 -235 165 -319 l 226 -185 q 317 -317 260 -265 q 453 -369 374 -369 q 628 -297 575 -369 q 682 -86 682 -224 l 682 107 q 576 17 644 47 q 422 -14 507 -14 q 238 38 318 -14 q 116 172 158 89 q 74 347 74 256 q 118 530 74 447 q 243 660 163 613 q 428 708 324 708 q 600 671 529 708 q 707 561 671 633 l 707 694 l 928 694 q 919 671 928 681 q 903 645 910 661 q 897 582 897 629 l 897 -79 q 835 -257 897 -183 q 672 -367 772 -331 q 460 -404 572 -404 m 507 40 q 622 92 571 40 q 682 226 674 144 l 682 476 q 648 574 676 531 q 578 642 619 618 q 494 665 538 665 q 342 576 394 665 q 290 347 290 486 q 347 126 290 213 q 507 40 403 40 m 485 781 q 370 806 424 781 q 283 880 317 831 q 247 999 249 929 l 293 999 q 355 903 299 938 q 485 869 411 869 q 615 903 558 869 q 676 999 671 938 l 722 999 q 687 880 721 929 q 599 806 653 831 q 485 781 546 781 z "},"ģ":{"ha":989,"x_min":74,"x_max":928,"o":"m 536 1125 q 510 1072 521 1101 q 500 1018 500 1043 q 510 986 500 997 q 540 963 521 975 q 580 931 567 947 q 593 881 593 914 q 567 817 593 842 q 506 793 540 793 q 442 822 465 793 q 418 894 418 850 q 450 1026 418 953 q 517 1135 482 1099 l 536 1125 m 460 -404 q 253 -362 340 -404 q 114 -235 165 -319 l 226 -185 q 317 -317 260 -265 q 453 -369 374 -369 q 628 -297 575 -369 q 682 -86 682 -224 l 682 107 q 576 17 644 47 q 422 -14 507 -14 q 238 38 318 -14 q 116 172 158 89 q 74 347 74 256 q 118 530 74 447 q 243 660 163 613 q 428 708 324 708 q 600 671 529 708 q 707 561 671 633 l 707 694 l 928 694 q 919 671 928 681 q 903 645 910 661 q 897 582 897 629 l 897 -79 q 835 -257 897 -183 q 672 -367 772 -331 q 460 -404 572 -404 m 507 40 q 622 92 571 40 q 682 226 674 144 l 682 476 q 648 574 676 531 q 578 642 619 618 q 494 665 538 665 q 342 576 394 665 q 290 347 290 486 q 347 126 290 213 q 507 40 403 40 z "},"ġ":{"ha":989,"x_min":74,"x_max":928,"o":"m 460 -404 q 253 -362 340 -404 q 114 -235 165 -319 l 226 -185 q 317 -317 260 -265 q 453 -369 374 -369 q 628 -297 575 -369 q 682 -86 682 -224 l 682 107 q 576 17 644 47 q 422 -14 507 -14 q 238 38 318 -14 q 116 172 158 89 q 74 347 74 256 q 118 530 74 447 q 243 660 163 613 q 428 708 324 708 q 600 671 529 708 q 707 561 671 633 l 707 694 l 928 694 q 919 671 928 681 q 903 645 910 661 q 897 582 897 629 l 897 -79 q 835 -257 897 -183 q 672 -367 772 -331 q 460 -404 572 -404 m 507 40 q 622 92 571 40 q 682 226 674 144 l 682 476 q 648 574 676 531 q 578 642 619 618 q 494 665 538 665 q 342 576 394 665 q 290 347 290 486 q 347 126 290 213 q 507 40 403 40 m 493 788 q 432 813 457 788 q 407 874 407 838 q 432 933 407 908 q 493 958 457 958 q 554 933 529 958 q 579 874 579 908 q 554 813 579 838 q 493 788 529 788 z "},"h":{"ha":917,"x_min":61,"x_max":878,"o":"m 92 874 q 86 935 92 918 q 71 963 81 953 q 61 986 61 972 l 307 986 l 307 588 q 440 679 364 650 q 588 708 515 708 q 763 661 701 711 q 825 481 825 611 l 824 239 q 828 110 824 153 q 843 44 832 67 q 878 13 854 22 l 878 0 l 663 0 q 627 26 639 7 q 612 88 615 46 q 608 215 608 129 l 610 457 q 604 567 610 526 q 578 633 599 607 q 513 660 557 660 q 430 640 474 660 q 352 585 386 619 q 307 508 318 550 l 307 0 l 92 0 l 92 874 z "},"ħ":{"ha":917,"x_min":22,"x_max":878,"o":"m 824 239 q 828 110 824 153 q 843 44 832 67 q 878 13 854 22 l 878 0 l 663 0 q 627 26 639 7 q 612 88 615 46 q 608 215 608 129 l 610 457 q 604 567 610 526 q 578 633 599 607 q 513 660 557 660 q 430 640 474 660 q 352 585 386 619 q 307 508 318 550 l 307 0 l 92 0 l 92 772 l 22 772 l 22 857 l 92 857 l 92 874 q 86 935 92 918 q 71 963 81 953 q 61 986 61 972 l 307 986 l 307 857 l 371 857 l 371 772 l 307 772 l 307 588 q 440 679 364 650 q 588 708 515 708 q 763 661 701 711 q 825 481 825 611 l 824 239 z "},"i":{"ha":399,"x_min":61,"x_max":317,"o":"m 200 788 q 116 821 150 788 q 82 903 82 854 q 116 986 82 951 q 200 1021 150 1021 q 283 986 249 1021 q 317 903 317 951 q 283 822 317 856 q 200 788 249 788 m 92 582 q 86 644 92 626 q 71 671 81 661 q 61 694 61 681 l 307 694 l 307 0 l 92 0 l 92 582 z "},"ı":{"ha":399,"x_min":61,"x_max":307,"o":"m 92 582 q 86 644 92 626 q 71 671 81 661 q 61 694 61 681 l 307 694 l 307 0 l 92 0 l 92 582 z "},"í":{"ha":399,"x_min":61,"x_max":346,"o":"m 92 582 q 86 644 92 626 q 71 671 81 661 q 61 694 61 681 l 307 694 l 307 0 l 92 0 l 92 582 m 208 1040 q 238 1076 219 1064 q 276 1088 256 1088 q 324 1071 303 1088 q 346 1029 346 1054 q 325 985 346 1008 l 131 778 l 88 778 l 208 1040 z "},"î":{"ha":399,"x_min":10,"x_max":390,"o":"m 92 582 q 86 644 92 626 q 71 671 81 661 q 61 694 61 681 l 307 694 l 307 0 l 92 0 l 92 582 m 131 1040 q 158 1076 140 1064 q 197 1088 176 1088 q 240 1075 219 1088 q 269 1040 260 1063 l 390 778 l 347 778 l 200 971 l 53 778 l 10 778 l 131 1040 z "},"ï":{"ha":399,"x_min":-3,"x_max":400,"o":"m 92 582 q 86 644 92 626 q 71 671 81 661 q 61 694 61 681 l 307 694 l 307 0 l 92 0 l 92 582 m 83 779 q 22 803 47 779 q -3 865 -3 828 q 21 926 -3 900 q 79 951 44 951 q 144 926 117 951 q 171 865 171 901 q 146 803 171 828 q 83 779 121 779 m 314 779 q 251 803 276 779 q 226 865 226 828 q 252 925 226 900 q 314 950 278 950 q 375 925 350 950 q 400 865 400 900 q 375 803 400 828 q 314 779 350 779 z "},"ì":{"ha":399,"x_min":49,"x_max":307,"o":"m 92 582 q 86 644 92 626 q 71 671 81 661 q 61 694 61 681 l 307 694 l 307 0 l 92 0 l 92 582 m 69 986 q 49 1032 49 1010 q 69 1072 49 1056 q 117 1089 90 1089 q 156 1077 138 1089 q 186 1042 175 1065 l 307 779 l 264 779 l 69 986 z "},"ī":{"ha":399,"x_min":31,"x_max":368,"o":"m 368 775 l 31 775 l 31 851 l 368 851 l 368 775 m 92 582 q 86 644 92 626 q 71 671 81 661 q 61 694 61 681 l 307 694 l 307 0 l 92 0 l 92 582 z "},"į":{"ha":399,"x_min":61,"x_max":390,"o":"m 200 788 q 116 821 150 788 q 82 903 82 854 q 116 986 82 951 q 200 1021 150 1021 q 283 986 249 1021 q 317 903 317 951 q 283 822 317 856 q 200 788 249 788 m 390 -233 q 321 -284 360 -267 q 243 -301 282 -301 q 144 -267 185 -301 q 103 -175 103 -233 q 182 0 103 -97 l 92 0 l 92 582 q 86 644 92 626 q 71 671 81 661 q 61 694 61 681 l 307 694 l 307 0 l 229 0 q 190 -115 190 -64 q 222 -199 190 -167 q 299 -231 254 -231 q 371 -206 340 -231 l 390 -233 z "},"j":{"ha":399,"x_min":-21,"x_max":317,"o":"m 200 788 q 116 821 150 788 q 82 903 82 854 q 116 986 82 951 q 200 1021 150 1021 q 283 986 249 1021 q 317 903 317 951 q 283 822 317 856 q 200 788 249 788 m -21 -342 q 53 -290 29 -314 q 85 -241 78 -265 q 92 -181 92 -217 l 92 582 q 86 644 92 626 q 70 671 81 661 q 60 694 60 681 l 307 694 l 307 -181 q 288 -244 307 -218 q 199 -301 269 -269 q -21 -372 128 -333 l -21 -342 z "},"k":{"ha":883,"x_min":61,"x_max":856,"o":"m 92 874 q 86 935 92 918 q 71 963 81 953 q 61 986 61 972 l 307 986 l 307 382 l 761 694 l 835 694 l 469 442 l 750 104 q 856 13 818 22 l 856 0 l 699 -1 q 617 5 647 -1 q 560 31 586 11 q 500 93 535 51 l 307 318 l 307 0 l 92 0 l 92 874 z "},"ķ":{"ha":883,"x_min":61,"x_max":856,"o":"m 92 874 q 86 935 92 918 q 71 963 81 953 q 61 986 61 972 l 307 986 l 307 382 l 761 694 l 835 694 l 469 442 l 750 104 q 856 13 818 22 l 856 0 l 699 -1 q 617 5 647 -1 q 560 31 586 11 q 500 93 535 51 l 307 318 l 307 0 l 92 0 l 92 874 m 428 -410 q 453 -357 443 -386 q 464 -303 464 -328 q 453 -271 464 -282 q 424 -247 443 -260 q 384 -215 397 -232 q 371 -165 371 -199 q 397 -102 371 -126 q 458 -78 424 -78 q 522 -106 499 -78 q 546 -179 546 -135 q 514 -310 546 -237 q 447 -419 482 -383 l 428 -410 z "},"l":{"ha":399,"x_min":61,"x_max":307,"o":"m 92 874 q 86 935 92 918 q 71 963 81 953 q 61 986 61 972 l 307 986 l 307 0 l 92 0 l 92 874 z "},"ĺ":{"ha":399,"x_min":61,"x_max":353,"o":"m 92 874 q 86 935 92 918 q 71 963 81 953 q 61 986 61 972 l 307 986 l 307 0 l 92 0 l 92 874 m 215 1308 q 244 1344 226 1332 q 283 1356 263 1356 q 331 1339 310 1356 q 353 1297 353 1322 q 332 1253 353 1276 l 138 1046 l 94 1046 l 215 1308 z "},"ľ":{"ha":399,"x_min":61,"x_max":544,"o":"m 92 874 q 86 935 92 918 q 71 963 81 953 q 61 986 61 972 l 307 986 l 307 0 l 92 0 l 92 874 m 426 740 q 452 793 442 764 q 463 847 463 822 q 452 879 463 868 q 422 903 442 890 q 383 935 396 918 q 369 985 369 951 q 396 1048 369 1024 q 457 1072 422 1072 q 521 1044 497 1072 q 544 971 544 1015 q 513 840 544 913 q 446 731 481 767 l 426 740 z "},"ļ":{"ha":399,"x_min":61,"x_max":307,"o":"m 92 874 q 86 935 92 918 q 71 963 81 953 q 61 986 61 972 l 307 986 l 307 0 l 92 0 l 92 874 m 168 -394 q 194 -342 183 -371 q 204 -287 204 -312 q 194 -256 204 -267 q 164 -232 183 -244 q 124 -200 138 -217 q 111 -150 111 -183 q 138 -87 111 -111 q 199 -62 164 -62 q 263 -91 239 -62 q 286 -164 286 -119 q 254 -295 286 -222 q 188 -404 222 -368 l 168 -394 z "},"ł":{"ha":399,"x_min":-1,"x_max":399,"o":"m 399 564 l 307 478 l 307 0 l 92 0 l 92 276 l 57 244 l -1 307 l 92 394 l 92 874 q 86 935 92 918 q 71 963 81 953 q 61 986 61 972 l 307 986 l 307 596 l 340 626 l 399 564 z "},"m":{"ha":1357,"x_min":61,"x_max":1318,"o":"m 92 582 q 86 644 92 626 q 71 671 81 661 q 61 694 61 681 l 282 694 l 282 560 q 556 708 381 706 q 699 682 643 711 q 775 579 756 653 q 1035 708 876 708 q 1206 661 1147 711 q 1265 481 1265 611 l 1264 239 q 1268 110 1264 153 q 1283 44 1272 67 q 1318 13 1294 22 l 1318 0 l 1103 0 q 1067 26 1079 7 q 1052 88 1056 46 q 1049 215 1049 129 l 1050 449 q 1045 561 1050 521 q 1019 626 1040 601 q 954 651 999 651 q 851 609 901 651 q 785 503 801 567 l 786 419 l 786 0 l 571 0 l 571 438 q 567 558 571 517 q 542 625 563 599 q 475 651 521 651 q 373 610 422 651 q 307 504 324 568 l 307 0 l 92 0 l 92 582 z "},"n":{"ha":917,"x_min":61,"x_max":878,"o":"m 92 582 q 86 644 92 626 q 71 671 81 661 q 61 694 61 681 l 282 694 l 282 560 q 423 672 339 636 q 588 708 507 708 q 763 661 701 711 q 825 481 825 611 l 824 239 q 828 110 824 153 q 843 44 832 67 q 878 13 854 22 l 878 0 l 663 0 q 627 26 639 7 q 612 88 615 46 q 608 215 608 129 l 610 457 q 604 567 610 526 q 578 633 599 607 q 513 660 557 660 q 430 640 474 660 q 352 585 386 619 q 307 508 318 550 l 307 0 l 92 0 l 92 582 z "},"ń":{"ha":917,"x_min":61,"x_max":878,"o":"m 92 582 q 86 644 92 626 q 71 671 81 661 q 61 694 61 681 l 282 694 l 282 560 q 423 672 339 636 q 588 708 507 708 q 763 661 701 711 q 825 481 825 611 l 824 239 q 828 110 824 153 q 843 44 832 67 q 878 13 854 22 l 878 0 l 663 0 q 627 26 639 7 q 612 88 615 46 q 608 215 608 129 l 610 457 q 604 567 610 526 q 578 633 599 607 q 513 660 557 660 q 430 640 474 660 q 352 585 386 619 q 307 508 318 550 l 307 0 l 92 0 l 92 582 m 550 1039 q 579 1074 561 1063 q 618 1086 597 1086 q 666 1069 644 1086 q 688 1028 688 1053 q 667 983 688 1007 l 472 776 l 429 776 l 550 1039 z "},"ň":{"ha":917,"x_min":61,"x_max":878,"o":"m 92 582 q 86 644 92 626 q 71 671 81 661 q 61 694 61 681 l 282 694 l 282 560 q 423 672 339 636 q 588 708 507 708 q 763 661 701 711 q 825 481 825 611 l 824 239 q 828 110 824 153 q 843 44 832 67 q 878 13 854 22 l 878 0 l 663 0 q 627 26 639 7 q 612 88 615 46 q 608 215 608 129 l 610 457 q 604 567 610 526 q 578 633 599 607 q 513 660 557 660 q 430 640 474 660 q 352 585 386 619 q 307 508 318 550 l 307 0 l 92 0 l 92 582 m 272 1088 l 315 1088 l 463 894 l 610 1088 l 653 1088 l 532 825 q 502 790 522 803 q 460 778 482 778 q 421 790 439 778 q 393 825 403 801 l 272 1088 z "},"ņ":{"ha":917,"x_min":61,"x_max":878,"o":"m 92 582 q 86 644 92 626 q 71 671 81 661 q 61 694 61 681 l 282 694 l 282 560 q 423 672 339 636 q 588 708 507 708 q 763 661 701 711 q 825 481 825 611 l 824 239 q 828 110 824 153 q 843 44 832 67 q 878 13 854 22 l 878 0 l 663 0 q 627 26 639 7 q 612 88 615 46 q 608 215 608 129 l 610 457 q 604 567 610 526 q 578 633 599 607 q 513 660 557 660 q 430 640 474 660 q 352 585 386 619 q 307 508 318 550 l 307 0 l 92 0 l 92 582 m 436 -390 q 462 -337 451 -367 q 472 -283 472 -308 q 462 -251 472 -262 q 432 -228 451 -240 q 392 -196 406 -212 q 379 -146 379 -179 q 406 -83 379 -107 q 467 -58 432 -58 q 531 -87 507 -58 q 554 -160 554 -115 q 522 -291 554 -218 q 456 -400 490 -364 l 436 -390 z "},"ŋ":{"ha":917,"x_min":92,"x_max":825,"o":"m 497 -342 q 572 -290 547 -314 q 603 -241 596 -265 q 610 -181 610 -217 l 610 438 q 590 581 610 535 q 504 638 569 626 q 479 640 488 640 q 368 599 419 640 q 307 486 317 557 l 307 0 l 92 0 l 92 694 l 282 694 l 282 567 q 404 674 325 639 q 571 708 483 708 q 757 648 689 708 q 825 458 825 588 l 825 -181 q 803 -242 825 -215 q 709 -301 781 -269 q 497 -372 638 -332 l 497 -342 z "},"ñ":{"ha":917,"x_min":61,"x_max":878,"o":"m 92 582 q 86 644 92 626 q 71 671 81 661 q 61 694 61 681 l 282 694 l 282 560 q 423 672 339 636 q 588 708 507 708 q 763 661 701 711 q 825 481 825 611 l 824 239 q 828 110 824 153 q 843 44 832 67 q 878 13 854 22 l 878 0 l 663 0 q 627 26 639 7 q 612 88 615 46 q 608 215 608 129 l 610 457 q 604 567 610 526 q 578 633 599 607 q 513 660 557 660 q 430 640 474 660 q 352 585 386 619 q 307 508 318 550 l 307 0 l 92 0 l 92 582 m 640 783 q 467 822 583 783 q 385 847 415 839 q 331 854 354 854 q 290 842 304 854 q 276 800 276 829 l 236 800 q 344 935 236 935 q 417 925 378 935 q 515 897 456 915 q 654 864 610 864 q 694 876 681 864 q 708 918 708 889 l 749 918 q 640 783 749 783 z "},"o":{"ha":1011,"x_min":75,"x_max":936,"o":"m 506 -14 q 281 31 378 -14 q 129 157 183 75 q 75 347 75 239 q 129 538 75 456 q 281 664 183 619 q 506 708 378 708 q 731 664 633 708 q 882 538 828 619 q 936 347 936 456 q 882 157 936 239 q 731 31 828 75 q 506 -14 633 -14 m 506 15 q 619 59 569 15 q 695 178 668 103 q 722 347 722 254 q 695 515 722 440 q 619 634 668 590 q 506 678 569 678 q 393 634 442 678 q 317 515 344 590 q 290 347 290 440 q 317 178 290 254 q 393 59 344 103 q 506 15 442 15 z "},"ó":{"ha":1011,"x_min":75,"x_max":936,"o":"m 506 -14 q 281 31 378 -14 q 129 157 183 75 q 75 347 75 239 q 129 538 75 456 q 281 664 183 619 q 506 708 378 708 q 731 664 633 708 q 882 538 828 619 q 936 347 936 456 q 882 157 936 239 q 731 31 828 75 q 506 -14 633 -14 m 506 15 q 619 59 569 15 q 695 178 668 103 q 722 347 722 254 q 695 515 722 440 q 619 634 668 590 q 506 678 569 678 q 393 634 442 678 q 317 515 344 590 q 290 347 290 440 q 317 178 290 254 q 393 59 344 103 q 506 15 442 15 m 478 1040 q 507 1076 489 1064 q 546 1088 525 1088 q 594 1071 572 1088 q 615 1029 615 1054 q 594 985 615 1008 l 400 778 l 357 778 l 478 1040 z "},"ô":{"ha":1011,"x_min":75,"x_max":936,"o":"m 506 -14 q 281 31 378 -14 q 129 157 183 75 q 75 347 75 239 q 129 538 75 456 q 281 664 183 619 q 506 708 378 708 q 731 664 633 708 q 882 538 828 619 q 936 347 936 456 q 882 157 936 239 q 731 31 828 75 q 506 -14 633 -14 m 506 15 q 619 59 569 15 q 695 178 668 103 q 722 347 722 254 q 695 515 722 440 q 619 634 668 590 q 506 678 569 678 q 393 634 442 678 q 317 515 344 590 q 290 347 290 440 q 317 178 290 254 q 393 59 344 103 q 506 15 442 15 m 425 1042 q 453 1077 435 1065 q 492 1089 471 1089 q 534 1076 514 1089 q 564 1042 554 1064 l 685 779 l 642 779 l 494 972 l 347 779 l 304 779 l 425 1042 z "},"ö":{"ha":1011,"x_min":75,"x_max":936,"o":"m 506 -14 q 281 31 378 -14 q 129 157 183 75 q 75 347 75 239 q 129 538 75 456 q 281 664 183 619 q 506 708 378 708 q 731 664 633 708 q 882 538 828 619 q 936 347 936 456 q 882 157 936 239 q 731 31 828 75 q 506 -14 633 -14 m 506 15 q 619 59 569 15 q 695 178 668 103 q 722 347 722 254 q 695 515 722 440 q 619 634 668 590 q 506 678 569 678 q 393 634 442 678 q 317 515 344 590 q 290 347 290 440 q 317 178 290 254 q 393 59 344 103 q 506 15 442 15 m 383 778 q 322 802 347 778 q 297 864 297 826 q 321 924 297 899 q 379 950 344 950 q 444 925 417 950 q 471 864 471 900 q 446 802 471 826 q 383 778 421 778 m 614 778 q 551 802 576 778 q 526 864 526 826 q 552 924 526 899 q 614 949 578 949 q 675 924 650 949 q 700 864 700 899 q 675 802 700 826 q 614 778 650 778 z "},"ò":{"ha":1011,"x_min":75,"x_max":936,"o":"m 506 -14 q 281 31 378 -14 q 129 157 183 75 q 75 347 75 239 q 129 538 75 456 q 281 664 183 619 q 506 708 378 708 q 731 664 633 708 q 882 538 828 619 q 936 347 936 456 q 882 157 936 239 q 731 31 828 75 q 506 -14 633 -14 m 506 15 q 619 59 569 15 q 695 178 668 103 q 722 347 722 254 q 695 515 722 440 q 619 634 668 590 q 506 678 569 678 q 393 634 442 678 q 317 515 344 590 q 290 347 290 440 q 317 178 290 254 q 393 59 344 103 q 506 15 442 15 m 389 985 q 368 1031 368 1008 q 389 1071 368 1054 q 436 1088 410 1088 q 476 1076 457 1088 q 506 1040 494 1064 l 626 778 l 583 778 l 389 985 z "},"ő":{"ha":1011,"x_min":75,"x_max":936,"o":"m 506 -14 q 281 31 378 -14 q 129 157 183 75 q 75 347 75 239 q 129 538 75 456 q 281 664 183 619 q 506 708 378 708 q 731 664 633 708 q 882 538 828 619 q 936 347 936 456 q 882 157 936 239 q 731 31 828 75 q 506 -14 633 -14 m 506 15 q 619 59 569 15 q 695 178 668 103 q 722 347 722 254 q 695 515 722 440 q 619 634 668 590 q 506 678 569 678 q 393 634 442 678 q 317 515 344 590 q 290 347 290 440 q 317 178 290 254 q 393 59 344 103 q 506 15 442 15 m 493 1040 q 523 1076 504 1064 q 563 1088 542 1088 q 610 1071 589 1088 q 632 1029 632 1054 q 611 985 632 1008 l 415 778 l 374 778 l 493 1040 m 703 1040 q 733 1076 714 1064 q 772 1088 751 1088 q 821 1071 800 1088 q 842 1029 842 1054 q 822 985 842 1006 l 625 778 l 585 778 l 703 1040 z "},"ō":{"ha":1011,"x_min":75,"x_max":936,"o":"m 506 -14 q 281 31 378 -14 q 129 157 183 75 q 75 347 75 239 q 129 538 75 456 q 281 664 183 619 q 506 708 378 708 q 731 664 633 708 q 882 538 828 619 q 936 347 936 456 q 882 157 936 239 q 731 31 828 75 q 506 -14 633 -14 m 506 15 q 619 59 569 15 q 695 178 668 103 q 722 347 722 254 q 695 515 722 440 q 619 634 668 590 q 506 678 569 678 q 393 634 442 678 q 317 515 344 590 q 290 347 290 440 q 317 178 290 254 q 393 59 344 103 q 506 15 442 15 m 742 793 l 267 793 l 267 869 l 742 869 l 742 793 z "},"ø":{"ha":1011,"x_min":75,"x_max":936,"o":"m 763 649 q 890 524 844 601 q 936 347 936 447 q 882 157 936 239 q 731 31 828 75 q 506 -14 633 -14 q 282 29 381 -14 l 226 -42 l 174 -42 l 244 49 q 119 172 163 96 q 75 347 75 249 q 129 538 75 456 q 281 664 183 619 q 506 708 378 708 q 724 667 631 708 l 778 738 l 832 738 l 763 649 m 290 347 q 326 156 290 236 l 660 586 q 592 653 631 629 q 506 678 553 678 q 393 634 442 678 q 317 515 344 590 q 290 347 290 440 m 506 15 q 619 59 569 15 q 695 178 668 103 q 722 347 722 254 q 682 546 722 461 l 347 114 q 417 41 376 67 q 506 15 457 15 z "},"õ":{"ha":1011,"x_min":75,"x_max":936,"o":"m 506 -14 q 281 31 378 -14 q 129 157 183 75 q 75 347 75 239 q 129 538 75 456 q 281 664 183 619 q 506 708 378 708 q 731 664 633 708 q 882 538 828 619 q 936 347 936 456 q 882 157 936 239 q 731 31 828 75 q 506 -14 633 -14 m 506 15 q 619 59 569 15 q 695 178 668 103 q 722 347 722 254 q 695 515 722 440 q 619 634 668 590 q 506 678 569 678 q 393 634 442 678 q 317 515 344 590 q 290 347 290 440 q 317 178 290 254 q 393 59 344 103 q 506 15 442 15 m 665 767 q 492 806 608 767 q 410 830 440 822 q 356 838 379 838 q 315 825 329 838 q 301 783 301 813 l 261 783 q 369 918 261 918 q 442 908 403 918 q 540 881 481 899 q 679 847 635 847 q 719 860 706 847 q 733 901 733 872 l 774 901 q 665 767 774 767 z "},"œ":{"ha":1622,"x_min":75,"x_max":1529,"o":"m 506 -14 q 276 31 372 -14 q 127 156 179 75 q 75 347 75 238 q 127 538 75 457 q 276 664 179 619 q 506 708 372 708 q 691 680 608 708 q 828 597 774 651 q 967 680 885 651 q 1142 708 1049 708 q 1344 664 1256 708 q 1481 535 1432 619 q 1529 338 1529 451 l 938 338 q 1004 107 940 200 q 1179 14 1068 14 q 1394 163 1307 14 l 1496 114 q 1366 20 1456 54 q 1168 -14 1276 -14 q 976 15 1063 -14 q 832 100 890 44 q 693 15 776 44 q 506 -14 610 -14 m 1347 372 q 1300 599 1347 518 q 1153 681 1253 681 q 998 590 1053 681 q 938 372 943 500 l 1347 372 m 506 15 q 619 59 569 15 q 695 178 668 103 q 722 347 722 254 q 695 515 722 440 q 619 634 668 590 q 506 678 569 678 q 390 635 440 678 q 312 516 339 592 q 285 347 285 440 q 312 178 285 254 q 390 59 339 103 q 506 15 440 15 z "},"p":{"ha":989,"x_min":61,"x_max":917,"o":"m 92 582 q 86 644 92 626 q 71 671 81 661 q 61 694 61 681 l 282 694 l 282 560 q 395 669 318 631 q 565 708 472 708 q 753 661 674 708 q 875 531 833 614 q 917 347 917 449 q 876 172 917 254 q 757 38 836 89 q 568 -14 678 -14 q 414 17 483 -14 q 307 107 344 47 l 307 -389 l 92 -389 l 92 582 m 478 40 q 642 126 585 40 q 699 347 699 211 q 648 576 699 486 q 497 665 597 665 q 413 642 456 665 q 342 574 371 618 q 307 475 313 531 l 307 228 q 365 93 315 146 q 478 40 415 40 z "},"þ":{"ha":989,"x_min":61,"x_max":917,"o":"m 92 874 q 86 935 92 918 q 71 963 81 953 q 61 986 61 972 l 307 986 l 307 596 q 419 678 350 649 q 565 708 488 708 q 753 661 674 708 q 875 531 833 614 q 917 347 917 449 q 876 172 917 254 q 757 38 836 89 q 568 -14 678 -14 q 414 17 483 -14 q 307 107 344 47 l 307 -389 l 92 -389 l 92 874 m 478 40 q 642 126 585 40 q 699 347 699 211 q 648 576 699 486 q 497 665 597 665 q 413 642 456 665 q 342 574 371 618 q 307 475 313 531 l 307 228 q 365 93 315 146 q 478 40 415 40 z "},"q":{"ha":989,"x_min":74,"x_max":928,"o":"m 682 107 q 576 17 644 47 q 422 -14 507 -14 q 238 38 318 -14 q 116 172 158 89 q 74 347 74 256 q 118 530 74 447 q 243 660 163 613 q 428 708 324 708 q 600 671 529 708 q 707 561 671 633 l 707 694 l 928 694 q 919 671 928 681 q 903 645 910 661 q 897 582 897 629 l 897 -389 l 682 -389 l 682 107 m 507 40 q 622 92 571 40 q 682 226 674 144 l 682 476 q 648 574 676 531 q 578 642 619 618 q 494 665 538 665 q 342 576 394 665 q 290 347 290 486 q 347 126 290 213 q 507 40 403 40 z "},"r":{"ha":678,"x_min":61,"x_max":661,"o":"m 92 582 q 86 644 92 626 q 71 671 81 661 q 61 694 61 681 l 282 694 l 282 564 q 399 674 326 636 q 538 711 472 711 q 626 681 592 711 q 661 601 661 650 q 629 524 661 556 q 551 492 597 492 q 474 524 506 492 q 442 601 442 556 q 451 647 442 625 q 440 649 449 649 q 358 602 401 649 q 307 508 315 556 l 307 0 l 92 0 l 92 582 z "},"ŕ":{"ha":678,"x_min":61,"x_max":661,"o":"m 92 582 q 86 644 92 626 q 71 671 81 661 q 61 694 61 681 l 282 694 l 282 564 q 399 674 326 636 q 538 711 472 711 q 626 681 592 711 q 661 601 661 650 q 629 524 661 556 q 551 492 597 492 q 474 524 506 492 q 442 601 442 556 q 451 647 442 625 q 440 649 449 649 q 358 602 401 649 q 307 508 315 556 l 307 0 l 92 0 l 92 582 m 224 1036 q 253 1072 235 1060 q 292 1083 271 1083 q 340 1067 318 1083 q 361 1025 361 1050 q 340 981 361 1004 l 146 774 l 103 774 l 224 1036 z "},"ř":{"ha":628,"x_min":61,"x_max":661,"o":"m 92 582 q 86 644 92 626 q 71 671 81 661 q 61 694 61 681 l 282 694 l 282 564 q 399 674 326 636 q 538 711 472 711 q 626 681 592 711 q 661 601 661 650 q 629 524 661 556 q 551 492 597 492 q 474 524 506 492 q 442 601 442 556 q 451 647 442 625 q 440 649 449 649 q 358 602 401 649 q 307 508 315 556 l 307 0 l 92 0 l 92 582 m 131 1089 l 174 1089 l 321 896 l 468 1089 l 511 1089 l 390 826 q 360 792 381 804 q 318 779 340 779 q 279 791 297 779 q 251 826 261 803 l 131 1089 z "},"ŗ":{"ha":678,"x_min":61,"x_max":661,"o":"m 92 582 q 86 644 92 626 q 71 671 81 661 q 61 694 61 681 l 282 694 l 282 564 q 399 674 326 636 q 538 711 472 711 q 626 681 592 711 q 661 601 661 650 q 629 524 661 556 q 551 492 597 492 q 474 524 506 492 q 442 601 442 556 q 451 647 442 625 q 440 649 449 649 q 358 602 401 649 q 307 508 315 556 l 307 0 l 92 0 l 92 582 m 164 -386 q 190 -333 179 -362 q 200 -279 200 -304 q 190 -247 200 -258 q 160 -224 179 -236 q 120 -192 133 -208 q 107 -142 107 -175 q 133 -78 107 -103 q 194 -54 160 -54 q 258 -83 235 -54 q 282 -156 282 -111 q 250 -287 282 -214 q 183 -396 218 -360 l 164 -386 z "},"s":{"ha":813,"x_min":75,"x_max":738,"o":"m 401 -14 q 204 17 292 -14 q 75 104 117 49 l 161 168 q 265 51 204 93 q 406 10 326 10 q 529 44 479 10 q 572 129 579 78 q 521 193 567 167 q 381 254 475 219 q 231 319 288 290 q 133 394 174 347 q 92 506 92 440 q 138 617 92 571 q 258 685 183 663 q 418 708 333 708 q 590 681 511 708 q 707 604 668 654 l 624 540 q 531 648 578 611 q 415 685 483 685 q 301 653 343 685 q 258 574 258 622 q 260 553 258 560 q 311 494 267 519 q 444 439 356 469 q 595 377 536 406 q 696 302 654 349 q 738 190 738 256 q 640 38 738 90 q 401 -14 542 -14 z "},"ś":{"ha":813,"x_min":75,"x_max":738,"o":"m 401 -14 q 204 17 292 -14 q 75 104 117 49 l 161 168 q 265 51 204 93 q 406 10 326 10 q 529 44 479 10 q 572 129 579 78 q 521 193 567 167 q 381 254 475 219 q 231 319 288 290 q 133 394 174 347 q 92 506 92 440 q 138 617 92 571 q 258 685 183 663 q 418 708 333 708 q 590 681 511 708 q 707 604 668 654 l 624 540 q 531 648 578 611 q 415 685 483 685 q 301 653 343 685 q 258 574 258 622 q 260 553 258 560 q 311 494 267 519 q 444 439 356 469 q 595 377 536 406 q 696 302 654 349 q 738 190 738 256 q 640 38 738 90 q 401 -14 542 -14 m 461 1038 q 490 1073 472 1061 q 529 1085 508 1085 q 577 1068 556 1085 q 599 1026 599 1051 q 578 982 599 1006 l 383 775 l 340 775 l 461 1038 z "},"š":{"ha":813,"x_min":75,"x_max":738,"o":"m 401 -14 q 204 17 292 -14 q 75 104 117 49 l 161 168 q 265 51 204 93 q 406 10 326 10 q 529 44 479 10 q 572 129 579 78 q 521 193 567 167 q 381 254 475 219 q 231 319 288 290 q 133 394 174 347 q 92 506 92 440 q 138 617 92 571 q 258 685 183 663 q 418 708 333 708 q 590 681 511 708 q 707 604 668 654 l 624 540 q 531 648 578 611 q 415 685 483 685 q 301 653 343 685 q 258 574 258 622 q 260 553 258 560 q 311 494 267 519 q 444 439 356 469 q 595 377 536 406 q 696 302 654 349 q 738 190 738 256 q 640 38 738 90 q 401 -14 542 -14 m 233 1088 l 276 1088 l 424 894 l 571 1088 l 614 1088 l 493 825 q 463 790 483 803 q 421 778 443 778 q 382 790 400 778 q 354 825 364 801 l 233 1088 z "},"ş":{"ha":813,"x_min":75,"x_max":738,"o":"m 260 553 q 311 494 267 519 q 444 439 356 469 q 595 377 536 406 q 696 302 654 349 q 738 190 738 256 q 644 40 738 92 q 415 -14 551 -11 l 381 -89 q 480 -144 447 -111 q 513 -215 513 -178 q 470 -311 513 -276 q 368 -346 428 -346 q 296 -331 331 -346 q 236 -287 261 -317 l 250 -267 q 346 -303 301 -303 q 398 -283 378 -303 q 418 -236 418 -264 q 389 -175 418 -203 q 304 -139 360 -147 l 365 -12 q 190 22 267 -8 q 75 104 113 53 l 161 168 q 265 51 204 93 q 406 10 326 10 q 529 44 479 10 q 572 129 579 78 q 521 193 567 167 q 381 254 475 219 q 231 319 288 290 q 133 394 174 347 q 92 506 92 440 q 138 617 92 571 q 258 685 183 663 q 418 708 333 708 q 590 681 511 708 q 707 604 668 654 l 624 540 q 531 648 578 611 q 415 685 483 685 q 301 653 343 685 q 258 574 258 622 q 260 553 258 560 z "},"ș":{"ha":813,"x_min":75,"x_max":738,"o":"m 401 -14 q 204 17 292 -14 q 75 104 117 49 l 161 168 q 265 51 204 93 q 406 10 326 10 q 529 44 479 10 q 572 129 579 78 q 521 193 567 167 q 381 254 475 219 q 231 319 288 290 q 133 394 174 347 q 92 506 92 440 q 138 617 92 571 q 258 685 183 663 q 418 708 333 708 q 590 681 511 708 q 707 604 668 654 l 624 540 q 531 648 578 611 q 415 685 483 685 q 301 653 343 685 q 258 574 258 622 q 260 553 258 560 q 311 494 267 519 q 444 439 356 469 q 595 377 536 406 q 696 302 654 349 q 738 190 738 256 q 640 38 738 90 q 401 -14 542 -14 m 369 -390 q 395 -337 385 -367 q 406 -283 406 -308 q 395 -251 406 -262 q 365 -228 385 -240 q 326 -196 339 -212 q 313 -146 313 -179 q 339 -83 313 -107 q 400 -58 365 -58 q 464 -87 440 -58 q 488 -160 488 -115 q 456 -291 488 -218 q 389 -400 424 -364 l 369 -390 z "},"ß":{"ha":919,"x_min":92,"x_max":863,"o":"m 585 -14 q 428 15 489 -14 q 326 104 368 43 l 419 154 q 468 72 449 100 q 513 28 488 44 q 576 13 539 13 q 667 64 636 13 q 697 196 697 115 q 671 347 697 271 q 596 472 644 422 q 483 521 547 521 q 433 517 458 521 l 435 535 q 531 638 497 569 q 564 788 564 707 q 526 935 564 875 q 428 996 489 996 q 319 925 351 996 q 288 704 288 854 l 288 0 l 92 0 l 92 690 q 147 872 92 796 q 285 987 201 949 q 454 1025 369 1025 q 579 999 522 1025 q 671 924 636 974 q 706 804 706 874 q 496 544 706 644 q 549 546 511 546 q 719 504 649 546 q 826 395 790 463 q 863 253 863 328 q 831 123 863 183 q 737 25 800 63 q 585 -14 674 -12 z "},"t":{"ha":489,"x_min":-8,"x_max":443,"o":"m 149 0 q 96 43 111 10 q 77 153 81 76 q 74 426 74 231 l 74 657 l -8 657 l -8 694 l 74 694 l 74 728 q 68 790 74 772 q 53 817 63 807 q 43 840 43 826 l 288 840 l 288 694 l 443 694 l 443 657 l 288 657 l 288 449 l 286 289 q 292 128 286 181 q 318 49 299 75 q 379 13 338 24 l 379 0 l 149 0 z "},"ŧ":{"ha":489,"x_min":-8,"x_max":443,"o":"m 443 657 l 288 657 l 288 465 l 374 465 l 374 419 l 288 419 l 288 289 q 293 127 288 179 q 318 49 299 75 q 379 13 338 24 l 379 0 l 149 0 q 96 42 111 10 q 77 151 81 75 q 74 419 74 226 l 10 419 l 10 465 l 74 465 l 74 657 l -8 657 l -8 694 l 74 694 l 74 728 q 68 790 74 772 q 53 817 63 807 q 43 840 43 826 l 288 840 l 288 694 l 443 694 l 443 657 z "},"ť":{"ha":489,"x_min":-8,"x_max":521,"o":"m 149 0 q 96 43 111 10 q 77 153 81 76 q 74 426 74 231 l 74 657 l -8 657 l -8 694 l 74 694 l 74 728 q 68 790 74 772 q 53 817 63 807 q 43 840 43 826 l 288 840 l 288 694 l 443 694 l 443 657 l 288 657 l 288 449 l 286 289 q 292 128 286 181 q 318 49 299 75 q 379 13 338 24 l 379 0 l 149 0 m 403 751 q 428 804 418 775 q 439 858 439 833 q 428 890 439 879 q 399 914 418 901 q 359 946 372 929 q 346 996 346 963 q 372 1059 346 1035 q 433 1083 399 1083 q 497 1055 474 1083 q 521 982 521 1026 q 489 851 521 924 q 422 742 457 778 l 403 751 z "},"ţ":{"ha":489,"x_min":-8,"x_max":443,"o":"m 149 0 q 96 43 111 10 q 77 153 81 76 q 74 426 74 231 l 74 657 l -8 657 l -8 694 l 74 694 l 74 728 q 68 790 74 772 q 53 817 63 807 q 43 840 43 826 l 288 840 l 288 694 l 443 694 l 443 657 l 288 657 l 288 449 l 286 289 q 292 128 286 181 q 318 49 299 75 q 379 13 338 24 l 379 0 l 149 0 m 218 -304 q 270 -285 250 -304 q 290 -237 290 -265 q 261 -176 290 -204 q 176 -140 232 -149 l 244 -1 l 294 -1 l 253 -90 q 352 -146 319 -112 q 385 -217 385 -179 q 342 -312 385 -278 q 240 -347 300 -347 q 168 -333 203 -347 q 108 -289 133 -318 l 122 -268 q 218 -304 174 -304 z "},"ț":{"ha":489,"x_min":-8,"x_max":443,"o":"m 149 0 q 96 43 111 10 q 77 153 81 76 q 74 426 74 231 l 74 657 l -8 657 l -8 694 l 74 694 l 74 728 q 68 790 74 772 q 53 817 63 807 q 43 840 43 826 l 288 840 l 288 694 l 443 694 l 443 657 l 288 657 l 288 449 l 286 289 q 292 128 286 181 q 318 49 299 75 q 379 13 338 24 l 379 0 l 149 0 m 199 -401 q 224 -349 214 -378 q 235 -294 235 -319 q 224 -262 235 -274 q 194 -239 214 -251 q 155 -207 168 -224 q 142 -157 142 -190 q 168 -94 142 -118 q 229 -69 194 -69 q 293 -98 269 -69 q 317 -171 317 -126 q 285 -302 317 -229 q 218 -411 253 -375 l 199 -401 z "},"u":{"ha":917,"x_min":61,"x_max":878,"o":"m 318 -14 q 150 37 208 -14 q 92 214 92 88 l 92 582 q 86 644 92 626 q 71 671 81 661 q 61 694 61 681 l 307 694 l 307 258 l 307 214 q 324 79 307 124 q 403 35 342 35 q 484 55 440 35 q 562 110 528 75 q 610 185 596 144 l 610 582 q 604 644 610 626 q 589 671 599 661 q 579 694 579 681 l 825 694 l 825 331 l 824 218 q 828 103 824 143 q 843 43 832 64 q 878 13 854 22 l 878 0 l 663 0 q 626 31 638 7 q 611 110 614 54 q 473 15 551 44 q 318 -14 394 -14 z "},"ú":{"ha":917,"x_min":61,"x_max":878,"o":"m 318 -14 q 150 37 208 -14 q 92 214 92 88 l 92 582 q 86 644 92 626 q 71 671 81 661 q 61 694 61 681 l 307 694 l 307 258 l 307 214 q 324 79 307 124 q 403 35 342 35 q 484 55 440 35 q 562 110 528 75 q 610 185 596 144 l 610 582 q 604 644 610 626 q 589 671 599 661 q 579 694 579 681 l 825 694 l 825 331 l 824 218 q 828 103 824 143 q 843 43 832 64 q 878 13 854 22 l 878 0 l 663 0 q 626 31 638 7 q 611 110 614 54 q 473 15 551 44 q 318 -14 394 -14 m 517 1040 q 546 1076 528 1064 q 585 1088 564 1088 q 633 1071 611 1088 q 654 1029 654 1054 q 633 985 654 1008 l 439 778 l 396 778 l 517 1040 z "},"û":{"ha":917,"x_min":61,"x_max":878,"o":"m 318 -14 q 150 37 208 -14 q 92 214 92 88 l 92 582 q 86 644 92 626 q 71 671 81 661 q 61 694 61 681 l 307 694 l 307 258 l 307 214 q 324 79 307 124 q 403 35 342 35 q 484 55 440 35 q 562 110 528 75 q 610 185 596 144 l 610 582 q 604 644 610 626 q 589 671 599 661 q 579 694 579 681 l 825 694 l 825 331 l 824 218 q 828 103 824 143 q 843 43 832 64 q 878 13 854 22 l 878 0 l 663 0 q 626 31 638 7 q 611 110 614 54 q 473 15 551 44 q 318 -14 394 -14 m 392 1042 q 419 1077 401 1065 q 458 1089 438 1089 q 501 1076 481 1089 q 531 1042 521 1064 l 651 779 l 608 779 l 461 972 l 314 779 l 271 779 l 392 1042 z "},"ü":{"ha":917,"x_min":61,"x_max":878,"o":"m 318 -14 q 150 37 208 -14 q 92 214 92 88 l 92 582 q 86 644 92 626 q 71 671 81 661 q 61 694 61 681 l 307 694 l 307 258 l 307 214 q 324 79 307 124 q 403 35 342 35 q 484 55 440 35 q 562 110 528 75 q 610 185 596 144 l 610 582 q 604 644 610 626 q 589 671 599 661 q 579 694 579 681 l 825 694 l 825 331 l 824 218 q 828 103 824 143 q 843 43 832 64 q 878 13 854 22 l 878 0 l 663 0 q 626 31 638 7 q 611 110 614 54 q 473 15 551 44 q 318 -14 394 -14 m 351 779 q 290 803 315 779 q 265 865 265 828 q 289 926 265 900 q 347 951 313 951 q 412 926 385 951 q 439 865 439 901 q 414 803 439 828 q 351 779 389 779 m 582 779 q 519 803 544 779 q 494 865 494 828 q 520 925 494 900 q 582 950 546 950 q 643 925 618 950 q 668 865 668 900 q 643 803 668 828 q 582 779 618 779 z "},"ù":{"ha":917,"x_min":61,"x_max":878,"o":"m 318 -14 q 150 37 208 -14 q 92 214 92 88 l 92 582 q 86 644 92 626 q 71 671 81 661 q 61 694 61 681 l 307 694 l 307 258 l 307 214 q 324 79 307 124 q 403 35 342 35 q 484 55 440 35 q 562 110 528 75 q 610 185 596 144 l 610 582 q 604 644 610 626 q 589 671 599 661 q 579 694 579 681 l 825 694 l 825 331 l 824 218 q 828 103 824 143 q 843 43 832 64 q 878 13 854 22 l 878 0 l 663 0 q 626 31 638 7 q 611 110 614 54 q 473 15 551 44 q 318 -14 394 -14 m 314 983 q 293 1029 293 1007 q 314 1069 293 1053 q 361 1086 335 1086 q 401 1074 382 1086 q 431 1039 419 1063 l 551 776 l 508 776 l 314 983 z "},"ű":{"ha":917,"x_min":61,"x_max":878,"o":"m 318 -14 q 150 37 208 -14 q 92 214 92 88 l 92 582 q 86 644 92 626 q 71 671 81 661 q 61 694 61 681 l 307 694 l 307 258 l 307 214 q 324 79 307 124 q 403 35 342 35 q 484 55 440 35 q 562 110 528 75 q 610 185 596 144 l 610 582 q 604 644 610 626 q 589 671 599 661 q 579 694 579 681 l 825 694 l 825 331 l 824 218 q 828 103 824 143 q 843 43 832 64 q 878 13 854 22 l 878 0 l 663 0 q 626 31 638 7 q 611 110 614 54 q 473 15 551 44 q 318 -14 394 -14 m 440 1047 q 470 1083 451 1071 q 510 1094 489 1094 q 558 1078 536 1094 q 579 1036 579 1061 q 558 992 579 1015 l 363 785 l 321 785 l 440 1047 m 650 1047 q 680 1083 661 1071 q 719 1094 699 1094 q 768 1078 747 1094 q 789 1036 789 1061 q 769 992 789 1013 l 572 785 l 532 785 l 650 1047 z "},"ū":{"ha":917,"x_min":61,"x_max":878,"o":"m 318 -14 q 150 37 208 -14 q 92 214 92 88 l 92 582 q 86 644 92 626 q 71 671 81 661 q 61 694 61 681 l 307 694 l 307 258 l 307 214 q 324 79 307 124 q 403 35 342 35 q 484 55 440 35 q 562 110 528 75 q 610 185 596 144 l 610 582 q 604 644 610 626 q 589 671 599 661 q 579 694 579 681 l 825 694 l 825 331 l 824 218 q 828 103 824 143 q 843 43 832 64 q 878 13 854 22 l 878 0 l 663 0 q 626 31 638 7 q 611 110 614 54 q 473 15 551 44 q 318 -14 394 -14 m 697 786 l 222 786 l 222 863 l 697 863 l 697 786 z "},"ų":{"ha":917,"x_min":61,"x_max":878,"o":"m 825 331 l 824 218 q 828 103 824 143 q 843 43 832 64 q 878 13 854 22 l 878 0 l 663 0 q 626 31 638 7 q 611 110 614 54 q 497 26 561 56 q 367 -11 433 -4 q 324 -133 324 -76 q 356 -217 324 -185 q 433 -249 389 -249 q 504 -224 471 -249 l 524 -251 q 454 -302 493 -285 q 376 -319 415 -319 q 277 -285 318 -319 q 236 -193 236 -251 q 318 -14 236 -110 q 150 37 208 -14 q 92 214 92 88 l 92 582 q 86 644 92 626 q 71 671 81 661 q 61 694 61 681 l 307 694 l 307 258 l 307 214 q 324 79 307 124 q 403 35 342 35 q 484 55 440 35 q 562 110 528 75 q 610 185 596 144 l 610 582 q 604 644 610 626 q 589 671 599 661 q 579 694 579 681 l 825 694 l 825 331 z "},"ů":{"ha":917,"x_min":61,"x_max":878,"o":"m 318 -14 q 150 37 208 -14 q 92 214 92 88 l 92 582 q 86 644 92 626 q 71 671 81 661 q 61 694 61 681 l 307 694 l 307 258 l 307 214 q 324 79 307 124 q 403 35 342 35 q 484 55 440 35 q 562 110 528 75 q 610 185 596 144 l 610 582 q 604 644 610 626 q 589 671 599 661 q 579 694 579 681 l 825 694 l 825 331 l 824 218 q 828 103 824 143 q 843 43 832 64 q 878 13 854 22 l 878 0 l 663 0 q 626 31 638 7 q 611 110 614 54 q 473 15 551 44 q 318 -14 394 -14 m 454 776 q 346 822 392 776 q 300 931 300 868 q 346 1039 300 993 q 454 1085 392 1085 q 563 1039 517 1085 q 608 931 608 993 q 563 822 608 868 q 454 776 517 776 m 454 829 q 524 859 494 829 q 554 931 554 889 q 524 1001 554 971 q 454 1031 494 1031 q 384 1001 414 1031 q 354 931 354 971 q 384 859 354 889 q 454 829 414 829 z "},"v":{"ha":863,"x_min":43,"x_max":801,"o":"m 104 593 q 64 653 89 624 q 48 674 53 665 q 43 694 43 682 l 294 694 l 526 139 l 756 694 l 801 694 l 515 0 l 353 0 l 104 593 z "},"w":{"ha":1324,"x_min":43,"x_max":1263,"o":"m 104 593 q 64 653 89 624 q 48 674 53 665 q 43 694 43 682 l 294 694 l 517 161 l 675 694 l 832 694 l 992 147 l 1217 694 l 1263 694 l 976 0 l 813 0 l 664 503 l 515 0 l 353 0 l 104 593 z "},"ẃ":{"ha":1324,"x_min":43,"x_max":1263,"o":"m 104 593 q 64 653 89 624 q 48 674 53 665 q 43 694 43 682 l 294 694 l 517 161 l 675 694 l 832 694 l 992 147 l 1217 694 l 1263 694 l 976 0 l 813 0 l 664 503 l 515 0 l 353 0 l 104 593 m 703 1042 q 732 1077 714 1065 q 771 1089 750 1089 q 819 1072 797 1089 q 840 1031 840 1056 q 819 986 840 1010 l 625 779 l 582 779 l 703 1042 z "},"ŵ":{"ha":1324,"x_min":43,"x_max":1263,"o":"m 104 593 q 64 653 89 624 q 48 674 53 665 q 43 694 43 682 l 294 694 l 517 161 l 675 694 l 832 694 l 992 147 l 1217 694 l 1263 694 l 976 0 l 813 0 l 664 503 l 515 0 l 353 0 l 104 593 m 654 1040 q 682 1076 664 1064 q 721 1088 700 1088 q 763 1075 743 1088 q 793 1040 783 1063 l 914 778 l 871 778 l 724 971 l 576 778 l 533 778 l 654 1040 z "},"ẅ":{"ha":1324,"x_min":43,"x_max":1263,"o":"m 104 593 q 64 653 89 624 q 48 674 53 665 q 43 694 43 682 l 294 694 l 517 161 l 675 694 l 832 694 l 992 147 l 1217 694 l 1263 694 l 976 0 l 813 0 l 664 503 l 515 0 l 353 0 l 104 593 m 624 778 q 563 802 588 778 q 538 864 538 826 q 561 924 538 899 q 619 950 585 950 q 684 925 657 950 q 711 864 711 900 q 686 802 711 826 q 624 778 661 778 m 854 778 q 792 802 817 778 q 767 864 767 826 q 792 924 767 899 q 854 949 818 949 q 915 924 890 949 q 940 864 940 899 q 915 802 940 826 q 854 778 890 778 z "},"ẁ":{"ha":1324,"x_min":43,"x_max":1263,"o":"m 104 593 q 64 653 89 624 q 48 674 53 665 q 43 694 43 682 l 294 694 l 517 161 l 675 694 l 832 694 l 992 147 l 1217 694 l 1263 694 l 976 0 l 813 0 l 664 503 l 515 0 l 353 0 l 104 593 m 583 986 q 563 1032 563 1010 q 583 1072 563 1056 q 631 1089 604 1089 q 670 1077 651 1089 q 700 1042 689 1065 l 821 779 l 778 779 l 583 986 z "},"x":{"ha":908,"x_min":82,"x_max":817,"o":"m 92 0 l 367 288 l 164 586 q 128 631 146 614 q 108 650 111 647 q 88 672 94 663 q 82 694 82 681 l 350 694 l 519 442 l 761 694 l 817 694 l 542 407 l 817 0 l 560 0 l 390 253 l 147 0 l 92 0 z "},"y":{"ha":917,"x_min":60,"x_max":825,"o":"m 432 -404 q 228 -362 315 -404 q 90 -235 142 -319 l 204 -185 q 293 -319 238 -267 q 429 -369 349 -371 q 569 -293 528 -364 q 610 -86 610 -222 l 610 108 q 472 15 550 44 q 318 -14 393 -14 q 150 37 208 -14 q 92 214 92 88 l 92 582 q 86 644 92 626 q 70 671 81 661 q 60 694 60 681 l 307 694 l 307 256 q 311 133 307 174 q 335 63 315 92 q 403 35 356 35 q 485 56 442 35 q 564 113 529 76 q 610 190 599 149 l 610 582 q 604 644 610 626 q 588 671 599 661 q 578 694 578 681 l 825 694 l 825 -68 q 765 -259 825 -183 q 616 -369 706 -335 q 432 -404 526 -404 z "},"ý":{"ha":917,"x_min":60,"x_max":825,"o":"m 432 -404 q 228 -362 315 -404 q 90 -235 142 -319 l 204 -185 q 293 -319 238 -267 q 429 -369 349 -371 q 569 -293 528 -364 q 610 -86 610 -222 l 610 108 q 472 15 550 44 q 318 -14 393 -14 q 150 37 208 -14 q 92 214 92 88 l 92 582 q 86 644 92 626 q 70 671 81 661 q 60 694 60 681 l 307 694 l 307 256 q 311 133 307 174 q 335 63 315 92 q 403 35 356 35 q 485 56 442 35 q 564 113 529 76 q 610 190 599 149 l 610 582 q 604 644 610 626 q 588 671 599 661 q 578 694 578 681 l 825 694 l 825 -68 q 765 -259 825 -183 q 616 -369 706 -335 q 432 -404 526 -404 m 528 1042 q 557 1077 539 1065 q 596 1089 575 1089 q 644 1072 622 1089 q 665 1031 665 1056 q 644 986 665 1010 l 450 779 l 407 779 l 528 1042 z "},"ŷ":{"ha":917,"x_min":60,"x_max":825,"o":"m 432 -404 q 228 -362 315 -404 q 90 -235 142 -319 l 204 -185 q 293 -319 238 -267 q 429 -369 349 -371 q 569 -293 528 -364 q 610 -86 610 -222 l 610 108 q 472 15 550 44 q 318 -14 393 -14 q 150 37 208 -14 q 92 214 92 88 l 92 582 q 86 644 92 626 q 70 671 81 661 q 60 694 60 681 l 307 694 l 307 256 q 311 133 307 174 q 335 63 315 92 q 403 35 356 35 q 485 56 442 35 q 564 113 529 76 q 610 190 599 149 l 610 582 q 604 644 610 626 q 588 671 599 661 q 578 694 578 681 l 825 694 l 825 -68 q 765 -259 825 -183 q 616 -369 706 -335 q 432 -404 526 -404 m 390 1040 q 418 1076 400 1064 q 457 1088 436 1088 q 499 1075 479 1088 q 529 1040 519 1063 l 650 778 l 607 778 l 460 971 l 313 778 l 269 778 l 390 1040 z "},"ÿ":{"ha":917,"x_min":60,"x_max":825,"o":"m 432 -404 q 228 -362 315 -404 q 90 -235 142 -319 l 204 -185 q 293 -319 238 -267 q 429 -369 349 -371 q 569 -293 528 -364 q 610 -86 610 -222 l 610 108 q 472 15 550 44 q 318 -14 393 -14 q 150 37 208 -14 q 92 214 92 88 l 92 582 q 86 644 92 626 q 70 671 81 661 q 60 694 60 681 l 307 694 l 307 256 q 311 133 307 174 q 335 63 315 92 q 403 35 356 35 q 485 56 442 35 q 564 113 529 76 q 610 190 599 149 l 610 582 q 604 644 610 626 q 588 671 599 661 q 578 694 578 681 l 825 694 l 825 -68 q 765 -259 825 -183 q 616 -369 706 -335 q 432 -404 526 -404 m 346 776 q 285 801 310 776 q 260 863 260 825 q 283 923 260 897 q 342 949 307 949 q 406 924 379 949 q 433 863 433 899 q 408 801 433 825 q 346 776 383 776 m 576 776 q 514 801 539 776 q 489 863 489 825 q 515 922 489 897 q 576 947 540 947 q 638 922 613 947 q 663 863 663 897 q 638 801 663 825 q 576 776 613 776 z "},"ỳ":{"ha":917,"x_min":60,"x_max":825,"o":"m 432 -404 q 228 -362 315 -404 q 90 -235 142 -319 l 204 -185 q 293 -319 238 -267 q 429 -369 349 -371 q 569 -293 528 -364 q 610 -86 610 -222 l 610 108 q 472 15 550 44 q 318 -14 393 -14 q 150 37 208 -14 q 92 214 92 88 l 92 582 q 86 644 92 626 q 70 671 81 661 q 60 694 60 681 l 307 694 l 307 256 q 311 133 307 174 q 335 63 315 92 q 403 35 356 35 q 485 56 442 35 q 564 113 529 76 q 610 190 599 149 l 610 582 q 604 644 610 626 q 588 671 599 661 q 578 694 578 681 l 825 694 l 825 -68 q 765 -259 825 -183 q 616 -369 706 -335 q 432 -404 526 -404 m 332 985 q 311 1031 311 1008 q 332 1071 311 1054 q 379 1088 353 1088 q 419 1076 400 1088 q 449 1040 438 1064 l 569 778 l 526 778 l 332 985 z "},"z":{"ha":906,"x_min":92,"x_max":814,"o":"m 814 0 l 92 0 l 533 657 l 92 657 l 92 694 l 814 694 l 372 38 l 814 38 l 814 0 z "},"ź":{"ha":906,"x_min":92,"x_max":814,"o":"m 814 0 l 92 0 l 533 657 l 92 657 l 92 694 l 814 694 l 372 38 l 814 38 l 814 0 m 508 1039 q 538 1074 519 1063 q 576 1086 556 1086 q 624 1069 603 1086 q 646 1028 646 1053 q 625 983 646 1007 l 431 776 l 388 776 l 508 1039 z "},"ž":{"ha":906,"x_min":92,"x_max":814,"o":"m 814 0 l 92 0 l 533 657 l 92 657 l 92 694 l 814 694 l 372 38 l 814 38 l 814 0 m 251 1086 l 294 1086 l 442 893 l 589 1086 l 632 1086 l 511 824 q 481 789 501 801 q 439 776 461 776 q 400 788 418 776 q 372 824 382 800 l 251 1086 z "},"ż":{"ha":906,"x_min":92,"x_max":814,"o":"m 814 0 l 92 0 l 533 657 l 92 657 l 92 694 l 814 694 l 372 38 l 814 38 l 814 0 m 440 781 q 379 806 404 781 q 354 867 354 831 q 379 926 354 901 q 440 951 404 951 q 501 926 476 951 q 526 867 526 901 q 501 806 526 831 q 440 781 476 781 z "},"":{"ha":826,"x_min":89,"x_max":738,"o":"m 413 -153 q 244 -109 317 -153 q 130 16 171 -65 q 89 206 89 97 q 130 393 89 313 q 244 517 171 474 q 413 561 317 561 q 582 517 508 561 q 697 393 656 474 q 738 206 738 313 q 697 16 738 97 q 582 -109 656 -65 q 413 -153 508 -153 m 415 -117 q 500 -76 461 -117 q 562 39 539 -35 q 585 206 585 113 q 562 370 585 297 q 500 484 539 443 q 415 525 461 525 q 331 485 369 525 q 270 372 293 444 q 247 206 247 299 q 270 39 247 113 q 332 -76 293 -35 q 415 -117 371 -117 z "},"":{"ha":386,"x_min":89,"x_max":297,"o":"m 297 -150 l 142 -150 l 142 401 l 89 403 l 89 419 l 256 556 l 297 556 l 297 -150 z "},"":{"ha":656,"x_min":90,"x_max":565,"o":"m 96 -112 q 332 121 257 13 q 407 349 407 229 q 367 474 407 431 q 269 518 326 518 q 173 477 214 518 q 132 365 132 436 l 90 365 q 122 474 90 429 q 206 542 154 519 q 318 565 258 565 q 436 541 381 565 q 526 469 492 517 q 560 354 560 421 q 469 153 560 253 q 238 -46 378 53 l 565 -46 l 565 -139 l 96 -139 l 96 -112 z "},"":{"ha":685,"x_min":89,"x_max":596,"o":"m 324 -149 q 179 -113 240 -149 q 89 -26 118 -78 l 121 -12 q 197 -83 153 -60 q 289 -106 242 -106 q 415 -53 369 -106 q 461 71 461 0 q 424 183 461 136 q 318 240 388 229 l 318 254 q 385 315 360 276 q 411 404 411 354 q 376 493 411 461 q 290 525 340 525 q 193 488 235 525 q 151 386 151 451 l 111 386 q 173 519 111 472 q 319 567 235 567 q 463 524 401 567 q 524 406 524 481 q 488 320 524 358 q 389 268 453 282 q 544 203 493 257 q 596 78 596 150 q 560 -37 596 15 q 462 -119 524 -89 q 324 -149 400 -149 z "},"":{"ha":611,"x_min":89,"x_max":522,"o":"m 522 -136 l 367 -136 l 367 63 l 89 63 l 432 569 l 522 569 l 522 -136 m 367 414 l 150 96 l 367 96 l 367 414 z "},"":{"ha":700,"x_min":90,"x_max":611,"o":"m 329 -139 q 176 -94 242 -139 q 94 32 110 -50 l 142 36 q 201 -61 154 -25 q 306 -97 247 -97 q 431 -41 388 -97 q 474 94 474 15 q 429 231 474 175 q 308 288 385 288 q 90 204 211 288 l 90 567 l 583 567 l 536 471 l 139 471 l 139 274 q 351 339 242 339 q 481 311 422 339 q 576 231 540 283 q 611 111 611 179 q 571 -22 611 35 q 466 -109 531 -79 q 329 -139 401 -139 z "},"":{"ha":700,"x_min":89,"x_max":611,"o":"m 353 -136 q 219 -94 279 -136 q 124 17 158 -53 q 89 168 89 88 q 140 379 89 286 q 281 526 192 472 q 475 583 369 581 l 475 558 q 309 466 368 546 q 235 253 250 386 q 309 322 265 299 q 400 346 353 346 q 503 317 454 346 q 581 235 551 289 q 611 113 611 182 q 578 -10 611 47 q 485 -102 544 -68 q 353 -136 426 -136 m 353 -101 q 445 -46 411 -101 q 479 107 479 10 q 446 247 479 196 q 363 297 413 297 q 291 268 326 297 q 229 183 256 239 l 229 165 q 260 -26 226 49 q 353 -101 294 -101 z "},"":{"ha":613,"x_min":89,"x_max":522,"o":"m 151 -125 q 249 169 183 26 q 431 474 315 311 l 89 474 l 89 569 l 522 569 q 378 227 422 386 q 324 -125 333 68 l 151 -125 z "},"":{"ha":715,"x_min":89,"x_max":626,"o":"m 89 33 q 131 140 89 88 q 257 247 172 192 q 139 424 139 338 q 204 547 139 503 q 358 590 269 590 q 500 553 440 590 q 560 449 560 515 q 528 356 560 401 q 439 274 496 311 q 578 160 531 210 q 626 51 626 111 q 544 -76 626 -31 q 349 -122 461 -122 q 165 -81 242 -122 q 89 33 89 -40 m 413 293 q 494 446 494 365 q 460 528 494 499 q 381 557 426 557 q 304 528 336 557 q 272 450 272 500 q 308 377 272 413 q 413 293 343 342 m 492 24 q 456 96 492 61 q 343 185 419 131 q 283 228 289 224 q 199 144 232 190 q 165 46 165 97 q 217 -54 165 -18 q 339 -90 269 -90 q 447 -60 401 -90 q 492 24 492 -29 z "},"":{"ha":700,"x_min":89,"x_max":611,"o":"m 226 -94 q 392 -1 332 -82 q 467 213 451 81 q 393 142 436 165 q 301 118 350 118 q 198 147 247 118 q 119 231 149 176 q 89 354 89 285 q 122 476 89 419 q 215 567 156 533 q 347 600 274 600 q 481 558 421 600 q 576 447 542 517 q 611 296 611 376 q 560 85 611 179 q 420 -62 508 -8 q 226 -119 332 -115 l 226 -94 m 472 299 q 440 491 475 417 q 347 565 406 565 q 256 508 290 565 q 222 354 222 451 q 256 217 222 267 q 339 168 289 168 q 410 197 375 168 q 472 281 446 225 l 472 299 z "},"":{"ha":826,"x_min":89,"x_max":738,"o":"m 413 369 q 244 413 317 369 q 130 538 171 457 q 89 728 89 619 q 130 915 89 835 q 244 1040 171 996 q 413 1083 317 1083 q 582 1040 508 1083 q 697 915 656 996 q 738 728 738 835 q 697 538 738 619 q 582 413 656 457 q 413 369 508 369 m 415 406 q 500 447 461 406 q 562 561 539 488 q 585 728 585 635 q 562 892 585 819 q 500 1006 539 965 q 415 1047 461 1047 q 331 1007 369 1047 q 270 894 293 967 q 247 728 247 821 q 270 561 247 635 q 332 447 293 488 q 415 406 371 406 z "},"":{"ha":386,"x_min":89,"x_max":297,"o":"m 297 371 l 142 371 l 142 922 l 89 924 l 89 940 l 256 1076 l 297 1076 l 297 371 z "},"":{"ha":656,"x_min":90,"x_max":565,"o":"m 96 401 q 332 635 257 528 q 407 863 407 743 q 367 989 407 944 q 269 1033 326 1033 q 174 992 215 1033 q 132 881 132 951 l 90 881 q 122 989 90 944 q 206 1056 154 1033 q 318 1078 258 1078 q 436 1054 381 1078 q 526 983 492 1031 q 560 868 560 935 q 470 668 560 767 q 238 469 381 569 l 565 469 l 565 374 l 96 374 l 96 401 z "},"":{"ha":685,"x_min":89,"x_max":596,"o":"m 324 367 q 178 403 239 367 q 89 490 118 439 l 121 501 q 197 433 153 456 q 289 410 242 410 q 415 463 369 410 q 461 588 461 515 q 424 698 461 651 q 318 756 388 744 l 318 768 q 385 829 360 790 q 411 918 411 868 q 376 1008 411 976 q 290 1039 340 1039 q 193 1002 235 1039 q 151 901 151 965 l 111 901 q 173 1035 111 988 q 319 1082 235 1082 q 463 1039 401 1082 q 524 921 524 996 q 488 835 524 874 q 389 782 453 796 q 544 719 493 772 q 596 594 596 667 q 560 478 596 531 q 462 397 524 426 q 324 367 400 367 z "},"":{"ha":611,"x_min":89,"x_max":522,"o":"m 522 374 l 367 374 l 367 572 l 89 572 l 432 1079 l 522 1079 l 522 374 m 367 924 l 150 606 l 367 606 l 367 924 z "},"":{"ha":700,"x_min":90,"x_max":611,"o":"m 329 368 q 176 413 242 368 q 94 540 110 457 l 142 544 q 201 447 154 483 q 306 411 247 411 q 430 467 386 411 q 474 601 474 524 q 429 739 474 682 q 308 796 385 796 q 90 713 211 796 l 90 1074 l 583 1074 l 536 979 l 139 979 l 139 782 q 351 847 242 847 q 481 819 422 847 q 576 740 540 792 q 611 619 611 688 q 571 486 611 543 q 466 399 531 429 q 329 368 401 368 z "},"":{"ha":700,"x_min":89,"x_max":611,"o":"m 353 368 q 219 410 279 368 q 124 522 158 453 q 89 672 89 592 q 140 884 89 790 q 281 1032 192 978 q 475 1089 369 1086 l 475 1063 q 309 970 368 1050 q 235 757 250 890 q 308 828 265 804 q 400 851 351 851 q 503 823 454 851 q 581 741 551 794 q 611 618 611 688 q 578 494 611 551 q 485 402 544 436 q 353 368 426 368 m 353 404 q 445 459 411 404 q 479 611 479 514 q 446 752 479 701 q 363 803 413 803 q 291 774 326 803 q 229 689 256 744 l 229 669 q 260 478 226 553 q 353 404 294 404 z "},"":{"ha":613,"x_min":89,"x_max":522,"o":"m 151 381 q 249 676 183 533 q 431 979 315 818 l 89 979 l 89 1075 l 522 1075 q 378 733 422 893 q 324 381 333 574 l 151 381 z "},"":{"ha":715,"x_min":89,"x_max":626,"o":"m 89 522 q 131 628 89 576 q 257 736 172 681 q 139 913 139 826 q 204 1035 139 992 q 358 1079 269 1079 q 500 1042 440 1079 q 560 938 560 1004 q 528 845 560 890 q 439 763 496 800 q 578 649 531 699 q 626 540 626 600 q 544 413 626 458 q 349 367 461 367 q 165 408 242 367 q 89 522 89 449 m 413 782 q 494 935 494 854 q 460 1017 494 988 q 381 1046 426 1046 q 304 1017 336 1046 q 272 939 272 989 q 308 866 272 901 q 413 782 343 831 m 492 513 q 456 585 492 550 q 343 674 419 619 q 283 717 289 713 q 199 633 232 679 q 165 535 165 586 q 217 435 165 471 q 339 399 269 399 q 447 429 401 399 q 492 513 492 460 z "},"":{"ha":700,"x_min":89,"x_max":611,"o":"m 226 383 q 392 475 332 394 q 467 688 451 556 q 393 618 436 642 q 303 594 350 594 q 199 624 249 594 q 119 706 150 653 q 89 831 89 760 q 122 952 89 896 q 215 1042 156 1008 q 347 1076 274 1076 q 481 1035 421 1076 q 576 924 542 993 q 611 774 611 854 q 560 562 611 656 q 420 414 508 468 q 226 357 332 360 l 226 383 m 472 775 q 440 967 475 893 q 347 1042 406 1042 q 256 985 290 1042 q 222 831 222 928 q 256 693 222 743 q 339 643 289 643 q 411 672 376 643 q 472 757 446 700 l 472 775 z "},"⁄":{"ha":990,"x_min":111,"x_max":879,"o":"m 171 -162 l 111 -162 l 819 986 l 879 986 l 171 -162 z "},"½":{"ha":1339,"x_min":106,"x_max":1233,"o":"m 314 426 l 158 426 l 158 978 l 106 979 l 106 996 l 272 1132 l 314 1132 l 314 426 m 235 -139 l 175 -139 l 883 1083 l 943 1083 l 235 -139 m 763 -112 q 1000 120 925 13 q 1075 347 1075 228 q 1035 473 1075 429 q 936 517 994 517 q 840 476 881 517 q 799 365 799 435 l 757 365 q 789 474 757 429 q 874 542 821 519 q 986 564 926 564 q 1103 540 1049 564 q 1193 467 1158 515 q 1228 353 1228 419 q 1138 153 1228 251 q 906 -46 1047 56 l 1233 -46 l 1233 -140 l 763 -140 l 763 -112 z "},"¼":{"ha":1142,"x_min":106,"x_max":1036,"o":"m 314 1132 l 314 426 l 158 426 l 158 978 l 106 979 l 106 996 l 272 1132 l 314 1132 m 965 1083 l 257 -139 l 197 -139 l 906 1083 l 965 1083 m 1036 571 l 1036 -135 l 881 -135 l 881 64 l 601 64 l 944 571 l 1036 571 m 881 97 l 881 415 l 663 97 l 881 97 z "},"¾":{"ha":1308,"x_min":106,"x_max":1203,"o":"m 1025 839 l 446 -139 l 542 106 l 1119 1083 l 1025 839 m 340 367 q 195 403 256 367 q 106 490 135 439 l 138 501 q 214 433 169 456 q 306 410 258 410 q 432 463 386 410 q 478 588 478 515 q 441 698 478 651 q 335 756 404 744 l 335 768 q 402 829 376 790 q 428 918 428 868 q 392 1008 428 976 q 307 1039 357 1039 q 210 1002 251 1039 q 168 901 168 965 l 128 901 q 190 1035 128 988 q 336 1082 251 1082 q 479 1039 418 1082 q 540 921 540 996 q 506 835 540 874 q 407 782 471 796 q 561 719 510 772 q 613 594 613 667 q 576 478 613 531 q 478 397 540 426 q 340 367 417 367 m 1203 429 l 1190 -135 l 1047 -94 l 982 64 l 839 165 l 1122 571 l 1203 429 m 1047 175 l 993 336 l 883 97 l 1047 175 z "},"⅛":{"ha":1326,"x_min":106,"x_max":1221,"o":"m 314 426 l 158 426 l 158 978 l 106 979 l 106 996 l 272 1132 l 314 1132 l 314 426 m 257 -139 l 197 -139 l 906 1083 l 965 1083 l 257 -139 m 685 -42 q 726 63 685 11 q 853 171 768 115 q 733 349 733 261 q 799 472 733 428 q 953 515 864 515 q 1094 478 1035 515 q 1154 374 1154 440 q 1122 281 1154 326 q 1033 197 1089 235 q 1173 85 1125 135 q 1221 -24 1221 36 q 1138 -152 1221 -106 q 943 -199 1056 -199 q 761 -157 838 -199 q 685 -42 685 -115 m 1008 217 q 1089 371 1089 289 q 1055 451 1089 422 q 976 481 1021 481 q 900 453 932 481 q 868 375 868 425 q 904 300 868 336 q 1008 217 940 264 m 1086 -51 q 1049 20 1086 -15 q 939 107 1013 56 q 878 151 908 126 q 794 69 826 115 q 761 -31 761 22 q 813 -131 761 -94 q 933 -167 864 -167 q 1041 -136 996 -167 q 1086 -51 1086 -106 z "},"⅜":{"ha":1525,"x_min":106,"x_max":1419,"o":"m 1164 1083 l 456 -139 l 396 -139 l 1104 1083 l 1164 1083 m 340 367 q 195 403 256 367 q 106 490 135 439 l 138 501 q 214 433 169 456 q 306 410 258 410 q 432 463 386 410 q 478 588 478 515 q 441 698 478 651 q 335 756 404 744 l 335 768 q 402 829 376 790 q 428 918 428 868 q 392 1008 428 976 q 307 1039 357 1039 q 210 1002 251 1039 q 168 901 168 965 l 128 901 q 190 1035 128 988 q 336 1082 251 1082 q 479 1039 418 1082 q 540 921 540 996 q 506 835 540 874 q 407 782 471 796 q 561 719 510 772 q 613 594 613 667 q 576 478 613 531 q 478 397 540 426 q 340 367 417 367 m 882 -42 q 924 63 882 11 q 1050 171 965 115 q 931 349 931 261 q 996 472 931 428 q 1151 515 1061 515 q 1293 478 1233 515 q 1353 374 1353 440 q 1320 281 1353 326 q 1232 197 1288 235 q 1372 85 1324 133 q 1419 -24 1419 36 q 1337 -152 1419 -106 q 1142 -199 1254 -199 q 958 -157 1035 -199 q 882 -42 882 -115 m 1206 217 q 1288 371 1288 289 q 1253 451 1288 422 q 1174 481 1219 481 q 1097 453 1129 481 q 1065 375 1065 425 q 1101 301 1065 336 q 1206 217 1136 265 m 1283 -51 q 1247 20 1283 -15 q 1136 107 1210 56 q 1075 151 1106 126 q 991 68 1024 115 q 958 -31 958 21 q 1010 -131 958 -94 q 1131 -167 1061 -167 q 1238 -136 1193 -167 q 1283 -51 1283 -106 z "},"⅝":{"ha":1540,"x_min":107,"x_max":1435,"o":"m 472 -139 l 413 -139 l 1121 1083 l 1181 1083 l 472 -139 m 346 368 q 192 413 258 368 q 111 540 126 457 l 158 544 q 217 447 171 483 q 324 411 264 411 q 447 467 404 411 q 490 601 490 524 q 446 740 490 683 q 325 796 401 796 q 107 713 228 796 l 107 1074 l 600 1074 l 553 979 l 156 979 l 156 782 q 368 847 258 847 q 498 819 439 847 q 592 740 557 792 q 628 619 628 688 q 588 486 628 543 q 483 399 547 429 q 346 368 418 368 m 896 -42 q 938 63 896 11 q 1064 171 979 115 q 946 349 946 261 q 1011 472 946 428 q 1167 515 1076 515 q 1308 478 1249 515 q 1368 374 1368 440 q 1335 281 1368 326 q 1247 197 1303 236 q 1387 85 1339 133 q 1435 -24 1435 36 q 1395 -119 1435 -79 q 1291 -178 1356 -158 q 1156 -199 1226 -199 q 972 -157 1049 -199 q 896 -42 896 -115 m 1221 217 q 1301 371 1301 288 q 1267 451 1301 422 q 1189 481 1233 481 q 1113 453 1144 481 q 1081 375 1081 425 q 1116 301 1081 336 q 1221 217 1151 265 m 1299 -51 q 1262 20 1299 -15 q 1151 107 1225 56 q 1090 151 1121 126 q 1006 68 1039 115 q 974 -31 974 21 q 1025 -131 974 -94 q 1146 -167 1076 -167 q 1253 -136 1208 -167 q 1299 -51 1299 -106 z "},"⅞":{"ha":1392,"x_min":106,"x_max":1286,"o":"m 307 -139 l 247 -139 l 956 1083 l 1015 1083 l 307 -139 m 168 381 q 266 676 200 533 q 447 979 332 818 l 106 979 l 106 1075 l 539 1075 q 394 733 439 893 q 340 381 350 574 l 168 381 m 749 -42 q 790 63 749 11 q 917 171 832 115 q 829 257 861 214 q 797 349 797 300 q 863 472 797 428 q 1018 515 928 515 q 1160 478 1100 515 q 1219 374 1219 440 q 1187 281 1219 326 q 1099 197 1154 236 q 1238 85 1190 133 q 1286 -24 1286 36 q 1203 -152 1286 -106 q 1008 -199 1121 -199 q 825 -157 901 -199 q 749 -42 749 -115 m 1072 217 q 1153 371 1153 288 q 1119 451 1153 422 q 1040 481 1085 481 q 964 453 996 481 q 932 375 932 425 q 968 300 932 336 q 1072 217 1004 264 m 1151 -51 q 1115 19 1151 -15 q 1001 108 1078 54 q 942 151 947 147 q 859 67 892 114 q 826 -31 826 21 q 878 -131 826 -94 q 999 -167 929 -167 q 1106 -136 1061 -167 q 1151 -51 1151 -106 z "},".":{"ha":308,"x_min":78,"x_max":253,"o":"m 167 -21 q 104 5 131 -21 q 78 67 78 31 q 104 127 78 101 q 167 153 131 153 q 228 128 203 153 q 253 67 253 103 q 228 5 253 31 q 167 -21 203 -21 z "},",":{"ha":308,"x_min":78,"x_max":253,"o":"m 135 -181 q 160 -128 150 -157 q 171 -74 171 -99 q 161 -42 171 -53 q 131 -18 151 -32 q 91 14 104 -3 q 78 65 78 31 q 104 127 78 103 q 165 151 131 151 q 229 124 206 151 q 253 51 253 96 q 221 -81 253 -8 q 154 -190 189 -154 l 135 -181 z "},":":{"ha":307,"x_min":78,"x_max":251,"o":"m 167 533 q 103 559 129 533 q 78 621 78 585 q 103 682 78 657 q 167 707 129 707 q 227 682 203 707 q 251 621 251 657 q 226 559 251 585 q 167 533 201 533 m 167 -22 q 103 3 129 -22 q 78 67 78 28 q 103 126 78 101 q 167 151 129 151 q 226 126 201 151 q 251 67 251 101 q 227 3 251 28 q 167 -22 203 -22 z "},";":{"ha":308,"x_min":78,"x_max":253,"o":"m 167 533 q 103 559 129 533 q 78 621 78 585 q 103 682 78 657 q 167 707 129 707 q 227 682 203 707 q 251 621 251 657 q 226 559 251 585 q 167 533 201 533 m 135 -181 q 160 -128 150 -157 q 171 -74 171 -99 q 161 -42 171 -53 q 131 -18 151 -32 q 91 14 104 -3 q 78 65 78 31 q 104 127 78 103 q 165 151 131 151 q 229 124 206 151 q 253 51 253 96 q 221 -81 253 -8 q 154 -190 189 -154 l 135 -181 z "},"…":{"ha":835,"x_min":78,"x_max":779,"o":"m 167 -21 q 103 4 129 -21 q 78 67 78 29 q 103 128 78 103 q 167 153 129 153 q 226 128 201 153 q 251 67 251 103 q 227 4 251 29 q 167 -21 203 -21 m 693 -21 q 632 4 657 -21 q 607 67 607 29 q 632 128 607 103 q 693 153 657 153 q 754 128 729 153 q 779 67 779 103 q 754 4 779 29 q 693 -21 729 -21 m 431 -22 q 369 3 394 -22 q 343 67 343 29 q 369 126 343 101 q 431 151 394 151 q 492 126 467 151 q 517 67 517 101 q 492 3 517 29 q 431 -22 467 -22 z "},"!":{"ha":343,"x_min":78,"x_max":288,"o":"m 215 222 l 150 222 l 78 972 l 288 972 l 215 222 m 185 -21 q 122 4 147 -21 q 96 67 96 29 q 122 128 96 103 q 185 153 147 153 q 244 128 219 153 q 269 67 269 103 q 245 4 269 29 q 185 -21 221 -21 z "},"¡":{"ha":307,"x_min":78,"x_max":251,"o":"m 165 613 q 103 638 129 613 q 78 697 78 663 q 103 761 78 736 q 165 786 129 786 q 226 761 201 786 q 251 697 251 736 q 226 637 251 661 q 165 613 201 613 m 249 -208 l 82 -208 l 132 543 l 199 543 l 249 -208 z "},"?":{"ha":717,"x_min":78,"x_max":661,"o":"m 339 236 q 355 373 335 314 q 417 518 375 432 q 474 646 456 594 q 492 761 492 697 q 458 906 492 853 q 361 960 424 960 q 256 913 297 960 q 188 768 214 867 l 78 849 q 216 956 144 925 q 381 986 288 986 q 515 960 450 986 q 620 882 579 933 q 661 758 661 831 q 624 609 661 674 q 514 463 586 544 q 423 342 453 392 q 393 236 393 293 l 339 236 m 367 -21 q 305 4 331 -21 q 279 67 279 29 q 305 128 279 103 q 367 153 331 153 q 428 128 403 153 q 453 67 453 103 q 428 4 453 29 q 367 -21 403 -21 z "},"¿":{"ha":717,"x_min":78,"x_max":661,"o":"m 374 608 q 312 633 338 608 q 286 694 286 658 q 311 756 286 732 q 374 781 336 781 q 435 756 410 781 q 460 694 460 732 q 435 633 460 658 q 374 608 410 608 m 358 -226 q 224 -200 289 -226 q 119 -122 160 -174 q 78 1 78 -71 q 98 112 78 61 q 147 201 118 163 q 225 297 176 240 q 317 416 286 367 q 347 524 347 465 l 400 524 q 384 388 404 447 q 322 243 364 329 q 266 115 285 167 q 247 -1 247 63 q 282 -146 247 -93 q 379 -200 317 -199 q 485 -153 443 -200 q 551 -8 526 -107 l 661 -89 q 523 -195 594 -164 q 358 -226 451 -226 z "},"·":{"ha":307,"x_min":78,"x_max":251,"o":"m 167 363 q 103 388 129 363 q 78 449 78 413 q 103 510 78 485 q 167 535 129 535 q 227 510 203 535 q 251 449 251 485 q 227 388 251 413 q 167 363 203 363 z "},"•":{"ha":568,"x_min":78,"x_max":513,"o":"m 296 247 q 188 277 238 247 q 108 357 138 307 q 78 465 78 407 q 108 574 78 524 q 188 653 138 624 q 296 682 238 682 q 404 653 354 682 q 483 574 454 624 q 513 465 513 524 q 483 357 513 407 q 404 277 454 307 q 296 247 354 247 z "},"*":{"ha":640,"x_min":78,"x_max":585,"o":"m 332 647 q 296 665 310 647 q 285 704 282 682 l 313 911 l 158 768 q 122 753 143 753 q 86 772 97 753 q 79 796 79 781 q 108 839 79 826 l 285 925 l 108 1010 q 86 1028 94 1015 q 78 1054 78 1040 q 86 1079 78 1069 q 119 1097 100 1097 q 157 1081 139 1097 l 313 938 l 285 1144 q 296 1184 282 1167 q 332 1201 310 1201 q 367 1184 353 1201 q 379 1144 381 1167 l 350 938 l 506 1081 q 546 1099 526 1099 q 578 1079 567 1099 q 585 1053 585 1069 q 556 1010 585 1022 l 379 925 l 556 839 q 577 822 569 833 q 585 797 585 810 q 578 772 585 783 q 543 751 565 751 q 506 768 522 751 l 350 911 l 379 704 q 367 665 381 682 q 332 647 353 647 z "},"#":{"ha":990,"x_min":78,"x_max":935,"o":"m 267 0 l 207 0 l 294 263 l 78 263 l 96 319 l 314 319 l 378 514 l 147 514 l 168 571 l 397 571 l 485 833 l 544 833 l 457 571 l 661 569 l 749 833 l 808 833 l 721 569 l 935 569 l 915 514 l 701 514 l 636 318 l 864 318 l 844 261 l 618 261 l 531 0 l 471 0 l 558 261 l 354 263 l 267 0 m 374 319 l 576 318 l 642 514 l 438 514 l 374 319 z "},"/":{"ha":718,"x_min":78,"x_max":663,"o":"m 163 -162 l 78 -162 l 578 986 l 663 986 l 163 -162 z "},"\\":{"ha":651,"x_min":78,"x_max":596,"o":"m 596 -162 l 508 -162 l 78 986 l 165 986 l 596 -162 z "},"(":{"ha":488,"x_min":78,"x_max":432,"o":"m 385 -174 q 154 122 231 -21 q 78 406 78 265 q 154 689 78 546 q 385 983 231 832 l 432 983 q 285 406 285 707 q 432 -174 285 104 l 385 -174 z "},")":{"ha":488,"x_min":78,"x_max":432,"o":"m 78 -174 q 226 406 226 107 q 78 983 226 706 l 125 983 q 356 690 279 833 q 432 406 432 547 q 356 121 432 264 q 125 -174 279 -22 l 78 -174 z "},"{":{"ha":529,"x_min":78,"x_max":474,"o":"m 474 -167 q 397 -174 425 -174 q 274 -139 313 -174 q 225 -42 235 -104 l 225 281 q 181 356 225 319 q 78 404 138 393 q 188 456 150 418 q 226 549 226 494 l 229 868 q 399 981 253 981 q 474 975 436 981 l 474 956 q 406 933 432 954 q 376 874 379 911 l 376 554 q 320 454 376 490 q 158 404 264 418 q 322 358 263 393 q 383 271 382 324 l 388 -54 q 474 -147 390 -147 l 474 -167 z "},"}":{"ha":529,"x_min":78,"x_max":474,"o":"m 78 -147 q 142 -124 122 -147 q 165 -54 163 -100 l 169 271 q 230 358 171 324 q 394 404 289 393 q 231 454 286 418 q 175 554 175 490 l 176 874 q 147 933 172 911 q 78 956 121 954 l 78 975 q 153 981 115 981 q 322 868 299 981 l 325 549 q 363 456 325 494 q 474 404 401 418 q 370 356 415 393 q 325 281 325 319 l 325 -42 q 277 -139 317 -104 q 154 -174 238 -174 q 78 -167 126 -174 l 78 -147 z "},"[":{"ha":431,"x_min":78,"x_max":375,"o":"m 375 -174 l 78 -174 l 78 983 l 375 983 l 375 943 l 251 943 l 251 -133 l 375 -133 l 375 -174 z "},"]":{"ha":431,"x_min":78,"x_max":375,"o":"m 375 -174 l 78 -174 l 78 -133 l 201 -133 l 201 943 l 78 943 l 78 983 l 375 983 l 375 -174 z "},"-":{"ha":590,"x_min":78,"x_max":535,"o":"m 535 364 l 78 364 l 78 424 l 535 424 l 535 364 z "},"–":{"ha":799,"x_min":78,"x_max":743,"o":"m 743 364 l 78 364 l 78 424 l 743 424 l 743 364 z "},"—":{"ha":1285,"x_min":78,"x_max":1229,"o":"m 1229 364 l 78 364 l 78 424 l 1229 424 l 1229 364 z "},"_":{"ha":799,"x_min":78,"x_max":743,"o":"m 743 -87 l 78 -87 l 78 -28 l 743 -28 l 743 -87 z "},"‚":{"ha":308,"x_min":78,"x_max":253,"o":"m 135 -181 q 160 -128 150 -157 q 171 -74 171 -99 q 161 -42 171 -53 q 131 -18 151 -32 q 91 14 104 -3 q 78 65 78 31 q 104 127 78 103 q 165 151 131 151 q 229 124 206 151 q 253 51 253 96 q 221 -81 253 -8 q 154 -190 189 -154 l 135 -181 z "},"„":{"ha":531,"x_min":78,"x_max":475,"o":"m 135 -181 q 160 -128 150 -157 q 171 -74 171 -99 q 161 -42 171 -53 q 131 -18 151 -32 q 91 14 104 -3 q 78 65 78 31 q 104 127 78 103 q 165 151 131 151 q 229 124 206 151 q 253 51 253 96 q 221 -81 253 -8 q 154 -190 189 -154 l 135 -181 m 356 -181 q 381 -128 371 -157 q 392 -72 392 -99 q 382 -42 392 -53 q 353 -18 372 -31 q 313 14 326 -3 q 300 65 300 31 q 326 128 300 104 q 386 151 353 151 q 451 124 428 151 q 475 51 475 96 q 443 -81 475 -8 q 375 -189 411 -154 l 356 -181 z "},"“":{"ha":531,"x_min":78,"x_max":475,"o":"m 389 700 q 324 728 349 700 q 300 801 300 757 q 332 933 300 860 q 399 1042 364 1006 l 418 1032 q 393 980 403 1010 q 383 925 383 950 q 394 893 383 904 q 424 869 404 882 q 462 838 449 854 q 475 788 475 821 q 449 724 475 749 q 389 700 424 700 m 167 700 q 102 728 126 700 q 78 801 78 757 q 110 933 78 860 q 178 1040 143 1006 l 197 1032 q 172 980 182 1010 q 163 924 163 950 q 172 893 163 904 q 201 869 182 882 q 240 838 226 854 q 253 788 253 821 q 227 724 253 747 q 167 700 201 700 z "},"”":{"ha":531,"x_min":78,"x_max":475,"o":"m 356 654 q 381 707 371 678 q 392 761 392 736 q 382 792 392 781 q 353 815 372 803 q 313 847 326 831 q 300 899 300 864 q 326 963 300 939 q 386 988 353 988 q 451 959 428 988 q 475 886 475 931 q 443 753 475 826 q 375 644 411 679 l 356 654 m 135 654 q 160 706 150 676 q 171 761 171 736 q 160 792 171 781 q 131 815 150 803 q 91 847 104 831 q 78 899 78 864 q 104 963 78 939 q 165 986 131 986 q 229 958 206 986 q 253 886 253 931 q 221 752 253 825 q 154 644 189 679 l 135 654 z "},"‘":{"ha":308,"x_min":78,"x_max":253,"o":"m 167 700 q 102 728 126 700 q 78 801 78 757 q 110 933 78 860 q 178 1040 143 1006 l 197 1032 q 172 980 182 1010 q 163 924 163 950 q 172 893 163 904 q 201 869 182 882 q 240 838 226 854 q 253 788 253 821 q 227 724 253 747 q 167 700 201 700 z "},"’":{"ha":308,"x_min":78,"x_max":253,"o":"m 135 654 q 160 706 150 676 q 171 761 171 736 q 160 792 171 781 q 131 815 150 803 q 91 847 104 831 q 78 899 78 864 q 104 963 78 939 q 165 986 131 986 q 229 958 206 986 q 253 886 253 931 q 221 752 253 825 q 154 644 189 679 l 135 654 z "},"«":{"ha":889,"x_min":78,"x_max":833,"o":"m 542 128 l 542 44 l 78 369 l 149 419 l 150 419 l 542 694 l 542 611 l 206 369 l 542 128 m 833 128 l 833 44 l 369 369 l 440 419 l 442 419 l 833 694 l 833 611 l 497 369 l 833 128 z "},"»":{"ha":889,"x_min":78,"x_max":833,"o":"m 542 369 l 78 44 l 78 128 l 414 369 l 78 611 l 78 694 l 469 419 l 471 419 l 542 369 m 833 369 l 369 44 l 369 128 l 706 369 l 369 611 l 369 694 l 761 419 l 763 419 l 833 369 z "},"‹":{"ha":597,"x_min":78,"x_max":542,"o":"m 542 128 l 542 44 l 78 369 l 149 419 l 150 419 l 542 694 l 542 611 l 206 369 l 542 128 z "},"›":{"ha":597,"x_min":78,"x_max":542,"o":"m 542 369 l 78 44 l 78 128 l 414 369 l 78 611 l 78 694 l 469 419 l 471 419 l 542 369 z "},"\"":{"ha":479,"x_min":78,"x_max":424,"o":"m 132 706 l 78 706 l 88 974 l 235 974 l 132 706 m 321 706 l 267 706 l 276 974 l 424 974 l 321 706 z "},"'":{"ha":290,"x_min":78,"x_max":235,"o":"m 132 706 l 78 706 l 88 974 l 235 974 l 132 706 z "},"¢":{"ha":857,"x_min":78,"x_max":801,"o":"m 465 -18 q 271 34 360 -14 q 130 164 182 82 q 78 349 78 246 q 134 533 81 453 q 276 660 188 614 q 465 711 364 706 l 465 814 l 508 814 l 508 708 q 661 671 582 707 q 801 574 740 635 l 715 501 q 624 626 676 575 q 508 678 572 678 l 508 13 q 624 64 572 13 q 715 189 676 115 l 801 117 q 662 21 742 57 q 508 -17 582 -15 l 508 -135 l 465 -135 l 465 -18 m 465 678 q 329 567 382 656 q 276 353 276 479 q 324 132 276 224 q 465 15 372 40 l 465 678 z "},"¤":{"ha":869,"x_min":78,"x_max":814,"o":"m 207 67 q 112 188 146 115 q 78 349 78 260 q 112 509 78 438 q 207 629 146 581 l 113 792 l 175 792 l 257 661 q 447 707 344 707 q 638 661 550 707 l 719 792 l 781 792 l 688 628 q 781 508 747 579 q 814 349 814 438 q 781 188 814 258 q 686 68 747 117 l 781 -97 l 719 -97 l 638 35 q 447 -11 550 -11 q 257 35 340 -11 l 175 -97 l 113 -97 l 207 67 m 447 61 q 598 97 531 61 q 704 197 665 132 q 743 349 743 263 q 704 500 743 435 q 598 601 665 565 q 447 636 531 636 q 297 601 364 636 q 191 500 229 565 q 153 349 153 435 q 191 197 153 263 q 297 97 229 132 q 447 61 364 61 z "},"$":{"ha":933,"x_min":78,"x_max":878,"o":"m 357 -3 q 78 113 203 11 l 165 186 q 450 19 267 19 q 613 60 544 19 q 681 181 681 100 q 647 263 681 226 q 563 326 613 299 q 424 394 513 354 q 249 481 315 443 q 135 577 182 519 q 89 711 89 635 q 166 879 89 811 q 364 972 243 947 l 360 1083 l 419 1083 l 417 978 q 496 983 451 983 q 536 982 524 983 l 533 1083 l 593 1083 l 590 981 q 728 946 658 974 q 861 867 799 918 l 775 794 q 653 920 721 882 q 496 960 585 958 q 345 918 407 960 q 283 797 283 876 q 317 713 283 750 q 402 649 351 676 q 543 582 453 622 q 718 498 651 535 q 831 404 785 461 q 878 269 878 347 q 794 97 878 168 q 583 -1 711 26 l 586 -110 l 526 -110 l 529 -1 q 411 -7 474 -10 l 414 -111 l 354 -111 l 357 -3 z "},"€":{"ha":1204,"x_min":78,"x_max":1149,"o":"m 767 -14 q 500 38 617 -14 q 310 178 383 89 q 213 378 238 267 l 78 378 l 89 424 l 204 424 q 201 488 201 444 q 203 538 201 522 l 106 538 l 118 583 l 210 583 q 304 790 232 699 q 495 935 376 882 q 767 989 614 989 q 982 958 889 989 q 1149 867 1075 926 l 1053 788 q 936 908 1006 860 q 786 956 867 956 q 615 907 690 956 q 493 774 540 858 q 431 583 446 690 l 747 583 l 733 538 l 426 538 q 425 496 425 526 q 428 424 425 463 l 713 424 l 699 378 l 433 378 q 553 119 460 219 q 786 19 646 19 q 938 68 869 19 q 1053 189 1007 117 l 1149 108 q 767 -14 997 -14 z "},"£":{"ha":869,"x_min":78,"x_max":814,"o":"m 113 0 q 240 261 240 119 q 189 506 240 351 l 78 506 l 106 551 l 165 551 q 150 663 150 618 q 201 840 150 767 q 333 951 251 914 q 503 988 414 988 q 814 869 689 988 l 731 790 q 639 908 693 861 q 519 956 585 956 q 422 927 467 956 q 351 843 378 899 q 324 711 324 788 q 343 551 324 640 l 614 551 l 586 506 l 344 506 q 354 383 354 443 q 351 328 354 356 q 274 132 335 206 l 763 132 l 719 0 l 113 0 z "},"¥":{"ha":1025,"x_min":78,"x_max":969,"o":"m 425 0 l 425 306 l 257 306 l 257 351 l 425 351 l 425 399 l 399 444 l 257 444 l 257 490 l 374 490 l 163 860 q 104 929 142 896 q 84 950 90 942 q 78 972 78 958 l 350 972 l 613 496 l 621 496 l 926 972 l 969 972 l 663 490 l 799 490 l 799 444 l 643 444 l 643 351 l 799 351 l 799 306 l 643 306 l 643 0 l 425 0 z "},"+":{"ha":751,"x_min":78,"x_max":696,"o":"m 421 67 l 353 67 l 353 356 l 78 356 l 78 424 l 353 424 l 353 685 l 421 685 l 421 424 l 696 424 l 696 356 l 421 356 l 421 67 z "},"−":{"ha":751,"x_min":78,"x_max":696,"o":"m 696 356 l 78 356 l 78 424 l 696 424 l 696 356 z "},"×":{"ha":628,"x_min":78,"x_max":572,"o":"m 331 339 l 125 133 l 78 181 l 283 386 l 88 581 l 136 628 l 331 433 l 515 618 l 563 571 l 378 386 l 572 192 l 525 143 l 331 339 z "},"÷":{"ha":751,"x_min":78,"x_max":696,"o":"m 383 518 q 322 543 347 518 q 296 604 296 568 q 321 666 296 642 q 383 690 346 690 q 446 666 421 690 q 471 604 471 642 q 445 543 471 568 q 383 518 419 518 m 696 356 l 78 356 l 78 424 l 696 424 l 696 356 m 383 83 q 321 108 346 83 q 296 169 296 132 q 322 231 296 206 q 383 256 347 256 q 445 231 419 256 q 471 169 471 206 q 446 108 471 132 q 383 83 421 83 z "},"=":{"ha":751,"x_min":78,"x_max":696,"o":"m 696 456 l 78 456 l 78 524 l 696 524 l 696 456 m 696 263 l 78 263 l 78 331 l 696 331 l 696 263 z "},"≠":{"ha":751,"x_min":78,"x_max":696,"o":"m 242 0 l 168 0 l 282 263 l 78 263 l 78 331 l 313 331 l 367 456 l 78 456 l 78 524 l 396 524 l 508 781 l 582 781 l 469 524 l 696 524 l 696 456 l 440 456 l 386 331 l 696 331 l 696 263 l 356 263 l 242 0 z "},">":{"ha":771,"x_min":78,"x_max":715,"o":"m 638 383 l 78 104 l 78 186 l 561 426 l 78 667 l 78 749 l 638 469 l 715 426 l 638 383 z "},"<":{"ha":771,"x_min":78,"x_max":715,"o":"m 715 186 l 715 104 l 156 383 l 78 426 l 156 469 l 715 749 l 715 667 l 232 426 l 715 186 z "},"≥":{"ha":771,"x_min":78,"x_max":715,"o":"m 638 383 l 78 104 l 78 186 l 561 426 l 78 667 l 78 749 l 638 469 l 715 426 l 638 383 m 703 19 l 78 19 l 78 88 l 703 88 l 703 19 z "},"≤":{"ha":771,"x_min":78,"x_max":715,"o":"m 715 186 l 715 104 l 156 383 l 78 426 l 156 469 l 715 749 l 715 667 l 232 426 l 715 186 m 715 19 l 90 19 l 90 88 l 715 88 l 715 19 z "},"±":{"ha":751,"x_min":78,"x_max":696,"o":"m 421 153 l 353 153 l 353 442 l 78 442 l 78 510 l 353 510 l 353 771 l 421 771 l 421 510 l 696 510 l 696 442 l 421 442 l 421 153 m 696 39 l 78 39 l 78 107 l 696 107 l 696 39 z "},"≈":{"ha":732,"x_min":78,"x_max":676,"o":"m 78 526 q 204 579 136 579 q 279 566 242 579 q 376 526 317 553 q 472 487 433 500 q 547 474 510 474 q 674 526 617 474 l 674 453 q 547 400 615 400 q 472 413 510 400 q 376 453 433 426 q 279 492 317 479 q 204 506 242 506 q 78 453 135 506 l 78 526 m 81 317 q 207 369 139 369 q 282 356 244 369 q 379 317 319 343 q 474 277 436 290 q 550 264 513 264 q 676 317 619 264 l 676 243 q 550 190 618 190 q 474 203 513 190 q 379 243 436 217 q 282 283 319 269 q 207 296 244 296 q 81 243 138 296 l 81 317 z "},"~":{"ha":729,"x_min":78,"x_max":674,"o":"m 78 428 q 204 481 136 481 q 279 467 242 481 q 376 428 317 454 q 472 388 433 401 q 547 375 510 375 q 674 428 617 375 l 674 354 q 547 301 615 301 q 472 315 510 301 q 376 354 433 328 q 279 394 317 381 q 204 407 242 407 q 78 354 135 407 l 78 428 z "},"¬":{"ha":729,"x_min":78,"x_max":674,"o":"m 674 200 l 600 200 l 600 406 l 78 406 l 78 479 l 674 479 l 674 200 z "},"^":{"ha":488,"x_min":78,"x_max":432,"o":"m 151 785 l 78 785 l 226 1125 l 256 1194 l 286 1125 l 432 785 l 360 785 l 257 1018 l 151 785 z "},"∅":{"ha":840,"x_min":78,"x_max":785,"o":"m 219 61 q 115 184 153 110 q 78 344 78 258 q 125 523 78 442 q 253 651 172 604 q 432 699 335 699 q 622 643 533 699 l 725 793 l 778 793 l 658 617 q 751 497 718 568 q 785 344 785 426 q 738 166 785 247 q 609 38 690 85 q 432 -10 528 -10 q 264 33 346 -10 l 171 -106 l 104 -106 l 219 61 m 575 576 q 432 617 511 617 q 296 581 358 617 q 197 482 233 544 q 161 344 161 419 q 190 224 161 281 q 265 129 218 167 l 575 576 m 432 72 q 568 108 506 72 q 667 207 631 144 q 703 344 703 269 q 678 458 703 404 q 613 549 654 511 l 310 101 q 432 72 367 72 z "},"∞":{"ha":1432,"x_min":78,"x_max":1376,"o":"m 1094 154 q 925 203 1004 154 q 761 338 846 251 q 558 202 646 249 q 371 156 469 156 q 211 192 278 156 q 111 288 144 228 q 78 415 78 347 q 111 542 78 482 q 211 640 144 603 q 372 678 278 678 q 491 655 438 678 q 585 597 544 632 q 688 499 626 561 q 889 631 801 585 q 1071 678 976 678 q 1236 640 1167 678 q 1341 539 1306 601 q 1376 407 1376 476 q 1344 284 1376 342 q 1249 190 1313 226 q 1094 154 1185 154 m 357 335 q 492 369 425 335 q 643 465 560 403 q 553 556 585 526 q 478 606 521 585 q 383 626 436 626 q 269 604 317 626 q 197 547 221 582 q 172 472 172 511 q 221 375 172 415 q 357 335 269 335 m 1074 207 q 1184 225 1139 204 q 1252 281 1229 246 q 1275 354 1275 315 q 1226 457 1275 414 q 1092 500 1176 500 q 956 465 1025 500 q 806 368 888 431 q 939 251 876 293 q 1074 207 1001 208 z "},"∫":{"ha":797,"x_min":78,"x_max":742,"o":"m 78 -147 q 103 -149 86 -149 q 224 -82 182 -149 q 285 84 267 -15 q 318 353 303 183 q 361 680 336 556 q 451 891 386 804 q 638 978 515 978 q 742 964 686 978 l 742 949 q 703 953 721 953 q 583 888 625 953 q 524 726 542 822 q 490 458 507 629 q 445 126 471 251 q 352 -87 419 1 q 158 -175 285 -175 q 78 -167 122 -175 l 78 -147 z "},"∏":{"ha":929,"x_min":78,"x_max":874,"o":"m 367 -162 l 190 -162 l 190 926 l 78 926 l 78 972 l 874 972 l 874 926 l 769 926 l 769 -162 l 593 -162 l 593 926 l 367 926 l 367 -162 z "},"∑":{"ha":828,"x_min":78,"x_max":772,"o":"m 772 -236 l 78 -236 l 78 -107 l 426 390 l 78 888 l 78 1017 l 772 1017 l 772 888 l 139 888 l 499 389 l 469 351 l 139 -107 l 772 -107 l 772 -236 z "},"√":{"ha":1111,"x_min":78,"x_max":1056,"o":"m 426 -14 l 260 -14 l 78 517 l 274 517 l 413 93 l 778 1156 l 1056 1156 l 1006 1004 l 781 1004 l 426 -14 z "},"∂":{"ha":824,"x_min":78,"x_max":768,"o":"m 425 -14 q 235 33 314 -14 q 117 155 157 79 q 78 315 78 231 q 115 473 78 399 q 224 593 153 547 q 393 639 296 639 q 503 619 453 639 q 589 561 553 599 q 472 849 565 738 q 232 992 379 961 l 244 1025 q 631 822 494 975 q 768 436 768 669 q 725 206 768 308 q 604 44 682 103 q 425 -14 526 -14 m 425 28 q 515 82 476 28 q 576 230 554 136 q 597 436 597 324 l 597 442 q 521 555 575 515 q 407 594 467 594 q 288 517 331 594 q 246 329 246 439 q 267 183 246 253 q 328 71 288 114 q 425 28 369 28 z "},"%":{"ha":976,"x_min":78,"x_max":921,"o":"m 819 935 q 628 911 743 911 q 438 931 528 911 q 487 863 469 901 q 504 778 504 824 q 476 672 504 721 q 399 596 447 624 q 292 568 350 568 q 184 596 233 568 q 106 672 135 624 q 78 778 78 721 q 106 883 78 835 q 184 958 135 931 q 292 986 233 986 q 356 976 321 986 q 626 938 489 938 q 846 972 754 938 l 886 972 l 165 0 l 125 0 l 819 935 m 293 593 q 351 647 326 593 q 376 778 376 700 q 351 909 376 856 q 293 963 326 963 q 235 909 260 963 q 210 778 210 856 q 235 647 210 700 q 293 593 260 593 m 708 -12 q 601 15 650 -12 q 523 92 551 43 q 494 197 494 140 q 523 302 494 254 q 601 378 551 350 q 708 406 650 406 q 815 378 767 406 q 892 302 864 350 q 921 197 921 254 q 892 92 921 140 q 815 15 864 43 q 708 -12 767 -12 m 710 13 q 768 66 743 13 q 793 197 793 119 q 768 328 793 275 q 710 382 743 382 q 651 328 676 382 q 626 197 626 275 q 651 66 626 119 q 710 13 676 13 z "},"‰":{"ha":1438,"x_min":78,"x_max":1382,"o":"m 819 935 q 628 911 743 911 q 438 931 528 911 q 487 863 469 901 q 504 778 504 824 q 476 672 504 721 q 399 596 447 624 q 292 568 350 568 q 184 596 233 568 q 106 672 135 624 q 78 778 78 721 q 106 883 78 835 q 184 958 135 931 q 292 986 233 986 q 356 976 321 986 q 626 938 489 938 q 846 972 754 938 l 886 972 l 165 0 l 125 0 l 819 935 m 293 593 q 351 647 326 593 q 376 778 376 700 q 351 909 376 856 q 293 963 326 963 q 235 909 260 963 q 210 778 210 856 q 235 647 210 700 q 293 593 260 593 m 708 -12 q 601 15 650 -12 q 523 92 551 43 q 494 197 494 140 q 523 302 494 254 q 601 378 551 350 q 708 406 650 406 q 815 378 767 406 q 892 302 864 350 q 921 197 921 254 q 892 92 921 140 q 815 15 864 43 q 708 -12 767 -12 m 1169 -12 q 1062 15 1111 -12 q 984 92 1013 43 q 956 197 956 140 q 984 302 956 254 q 1062 378 1013 350 q 1169 406 1111 406 q 1276 378 1228 406 q 1353 302 1325 350 q 1382 197 1382 254 q 1353 92 1382 140 q 1276 15 1325 43 q 1169 -12 1228 -12 m 710 13 q 768 66 743 13 q 793 197 793 119 q 768 328 793 275 q 710 382 743 382 q 651 328 676 382 q 626 197 626 275 q 651 66 626 119 q 710 13 676 13 m 1171 13 q 1229 66 1204 13 q 1254 197 1254 119 q 1229 328 1254 275 q 1171 382 1204 382 q 1113 328 1138 382 q 1088 197 1088 275 q 1113 66 1088 119 q 1171 13 1138 13 z "},"↑":{"ha":731,"x_min":78,"x_max":675,"o":"m 413 0 l 340 0 l 340 703 l 97 361 l 78 361 l 360 882 l 393 882 l 675 361 l 656 361 l 413 703 l 413 0 z "},"↗":{"ha":794,"x_min":78,"x_max":739,"o":"m 625 600 l 129 104 l 78 154 l 576 653 l 161 582 l 147 596 l 715 764 l 739 742 l 569 174 l 556 188 l 625 600 z "},"→":{"ha":1017,"x_min":78,"x_max":961,"o":"m 961 418 l 439 136 l 439 156 l 781 399 l 79 399 l 78 469 l 783 469 l 439 714 l 439 733 l 960 450 l 961 418 z "},"↘":{"ha":794,"x_min":78,"x_max":739,"o":"m 739 126 l 715 104 l 147 272 l 161 286 l 576 215 l 78 714 l 129 764 l 625 268 l 556 681 l 569 694 l 739 126 z "},"↓":{"ha":731,"x_min":78,"x_max":675,"o":"m 393 0 l 360 0 l 78 521 l 97 521 l 340 179 l 340 882 l 413 882 l 413 179 l 656 521 l 675 521 l 393 0 z "},"↙":{"ha":794,"x_min":78,"x_max":739,"o":"m 669 272 l 101 104 l 78 126 l 247 694 l 261 681 l 192 268 l 688 764 l 739 714 l 240 215 l 656 286 l 669 272 z "},"←":{"ha":1017,"x_min":78,"x_max":961,"o":"m 600 154 l 600 135 l 79 418 l 78 450 l 600 732 l 600 713 l 258 469 l 960 469 l 961 399 l 256 399 l 600 154 z "},"↖":{"ha":794,"x_min":78,"x_max":739,"o":"m 739 154 l 688 104 l 192 600 l 261 188 l 247 174 l 78 742 l 101 764 l 669 596 l 656 582 l 240 653 l 739 154 z "},"↔":{"ha":1447,"x_min":78,"x_max":1392,"o":"m 600 156 l 600 136 l 78 418 l 79 450 l 600 733 l 600 714 l 256 469 l 1214 469 l 869 714 l 869 733 l 1390 450 l 1392 418 l 869 136 l 869 156 l 1211 399 l 258 399 l 600 156 z "},"↕":{"ha":731,"x_min":78,"x_max":675,"o":"m 392 -112 l 360 -115 l 78 407 l 97 408 l 340 67 l 340 1019 l 97 678 l 78 678 l 360 1200 l 392 1199 l 675 678 l 656 678 l 411 1022 l 411 64 l 656 408 l 675 408 l 392 -112 z "},"◊":{"ha":699,"x_min":78,"x_max":643,"o":"m 410 78 l 361 -8 l 319 63 l 78 483 l 319 904 l 361 975 l 410 889 l 643 482 l 410 78 m 161 483 l 360 135 l 558 482 l 360 831 l 161 483 z "},"@":{"ha":1296,"x_min":78,"x_max":1240,"o":"m 704 -260 q 367 -176 510 -260 q 151 43 225 -93 q 78 332 78 179 q 150 631 78 489 q 362 862 222 774 q 693 950 501 950 q 961 890 836 950 q 1163 713 1086 831 q 1240 426 1240 594 q 1197 218 1240 321 q 1078 49 1154 115 q 911 -18 1003 -18 q 794 20 842 -18 q 735 121 746 58 q 661 33 701 64 q 578 1 621 1 q 442 70 492 1 q 393 253 393 139 q 431 448 393 350 q 541 609 469 546 q 707 672 613 672 q 822 618 775 672 l 836 671 l 979 671 q 926 467 974 647 q 865 228 883 303 q 847 126 847 154 q 938 42 847 42 q 1058 97 1001 42 q 1149 241 1114 153 q 1183 421 1183 329 q 1117 680 1183 574 q 939 839 1050 786 q 697 892 828 892 q 397 813 524 892 q 206 605 271 733 q 142 332 142 476 q 207 72 142 193 q 398 -125 272 -50 q 696 -200 524 -200 q 1079 -75 956 -200 l 1160 -75 q 969 -211 1090 -162 q 704 -260 847 -260 m 581 58 q 681 158 628 58 q 768 397 733 258 l 803 543 q 770 599 794 575 q 724 624 746 624 q 633 554 678 624 q 560 379 589 485 q 532 175 532 274 q 545 89 532 119 q 581 58 558 58 z "},"&":{"ha":1208,"x_min":78,"x_max":1153,"o":"m 824 -26 q 732 38 749 24 q 471 -17 619 -17 q 273 15 363 -15 q 131 106 183 46 q 78 247 78 165 q 145 422 78 346 q 343 550 213 499 q 279 797 279 689 q 354 993 279 924 q 547 1063 429 1063 q 710 1008 649 1063 q 771 860 771 954 q 714 721 771 789 q 517 581 657 653 q 658 366 572 472 q 844 168 743 260 q 879 289 879 219 q 828 485 879 372 l 965 485 q 969 426 969 456 q 941 280 969 351 q 868 149 913 208 q 1153 -4 1024 13 l 1153 -26 l 824 -26 m 506 601 q 607 703 575 639 q 639 839 639 767 q 606 983 639 929 q 528 1038 574 1038 q 460 998 488 1038 q 432 888 432 958 q 506 601 432 760 m 536 21 q 623 31 579 21 q 703 60 667 42 q 506 272 600 149 q 354 522 413 396 q 267 315 267 440 q 303 167 267 235 q 401 60 339 100 q 536 21 463 21 z "},"¶":{"ha":783,"x_min":78,"x_max":728,"o":"m 279 450 q 169 485 215 450 q 101 576 124 519 q 78 699 78 633 q 105 831 78 768 q 185 933 132 894 q 313 972 238 972 l 728 972 l 728 0 l 532 0 l 532 935 l 496 936 l 447 936 q 374 898 399 936 q 347 810 349 860 l 347 0 l 279 0 l 279 450 z "},"§":{"ha":750,"x_min":78,"x_max":694,"o":"m 364 -10 q 215 31 274 -10 q 156 139 157 72 l 208 144 q 256 65 208 96 q 360 33 303 33 q 433 53 404 33 q 463 114 463 74 q 421 201 463 164 q 292 290 379 239 q 180 363 222 332 q 108 438 138 394 q 78 538 78 482 q 110 638 78 589 q 200 718 143 686 q 188 749 189 744 q 181 797 181 769 q 210 892 181 849 q 293 960 240 935 q 413 986 346 986 q 559 945 503 986 q 617 838 615 904 l 553 842 q 513 922 553 893 q 421 951 474 951 q 342 928 375 951 q 310 861 310 904 q 351 776 310 813 q 479 686 392 739 q 592 613 549 644 q 665 538 635 582 q 694 439 694 494 q 662 339 694 388 q 572 258 629 290 q 585 228 583 232 q 592 178 592 207 q 563 85 592 128 q 481 16 533 42 q 364 -10 429 -10 m 547 293 q 589 394 593 339 q 545 464 586 432 q 418 546 504 496 q 300 617 344 588 q 225 683 256 647 q 183 582 179 640 q 226 513 185 544 q 354 431 267 481 q 472 359 428 389 q 547 293 517 329 z "},"©":{"ha":1021,"x_min":78,"x_max":965,"o":"m 522 -12 q 299 47 401 -12 q 138 208 197 107 q 78 431 78 310 q 138 653 78 551 q 299 814 197 754 q 522 874 401 874 q 744 814 642 874 q 906 652 846 754 q 965 431 965 550 q 906 209 965 311 q 744 47 846 107 q 522 -12 642 -12 m 522 35 q 720 88 629 35 q 865 233 811 142 q 918 431 918 324 q 865 628 918 538 q 720 773 811 719 q 522 826 629 826 q 323 774 414 826 q 179 630 232 721 q 126 431 126 539 q 179 233 126 324 q 323 88 232 142 q 522 35 414 35 m 532 169 q 388 203 449 169 q 294 297 326 238 q 261 432 261 357 q 294 567 261 507 q 388 660 326 626 q 532 694 449 694 q 633 675 590 694 q 721 618 676 656 l 699 593 q 623 644 661 628 q 532 654 585 660 q 417 593 464 650 q 371 432 371 536 q 417 272 371 328 q 532 210 464 217 q 558 208 542 208 q 633 224 600 208 q 699 271 665 240 l 721 246 q 633 189 676 208 q 532 169 590 169 z "},"®":{"ha":674,"x_min":78,"x_max":618,"o":"m 350 592 q 214 628 276 592 q 115 726 151 664 q 78 863 78 789 q 115 998 78 936 q 214 1096 151 1060 q 350 1132 276 1132 q 485 1096 424 1132 q 582 998 546 1060 q 618 863 618 936 q 582 726 618 789 q 485 628 546 664 q 350 592 424 592 m 350 631 q 465 662 413 631 q 549 746 518 693 q 579 863 579 799 q 549 978 579 925 q 465 1062 518 1031 q 350 1093 413 1093 q 233 1062 286 1093 q 149 978 181 1031 q 118 863 118 925 q 149 746 118 799 q 233 662 181 693 q 350 631 286 631 m 246 729 l 246 1007 l 354 1007 q 436 988 408 1007 q 464 935 464 969 q 394 868 464 881 l 472 733 l 407 733 l 332 864 l 307 864 l 307 729 l 246 729 m 349 889 q 403 935 403 889 q 388 970 403 958 q 349 982 374 982 l 307 982 l 307 889 l 349 889 z "},"™":{"ha":1038,"x_min":78,"x_max":982,"o":"m 294 694 l 219 694 l 219 1100 l 78 1100 l 78 1132 l 433 1132 l 433 1100 l 294 1100 l 294 694 m 540 694 l 507 694 l 507 1132 l 589 1132 l 746 769 l 907 1132 l 982 1132 l 982 694 l 907 694 l 907 1049 l 749 694 l 700 694 l 540 1060 l 540 694 z "},"°":{"ha":542,"x_min":78,"x_max":486,"o":"m 282 647 q 180 675 226 647 q 106 749 133 703 q 78 851 78 796 q 106 953 78 907 q 180 1028 133 1000 q 282 1056 226 1056 q 384 1028 338 1056 q 458 953 431 1000 q 486 851 486 907 q 458 749 486 796 q 384 675 431 703 q 282 647 338 647 m 282 703 q 385 747 342 703 q 428 851 428 790 q 385 955 428 913 q 282 997 343 997 q 179 955 222 997 q 136 851 136 913 q 179 747 136 790 q 282 703 222 703 z "},"|":{"ha":218,"x_min":78,"x_max":163,"o":"m 163 -174 l 78 -174 l 78 983 l 163 983 l 163 -174 z "},"¦":{"ha":218,"x_min":78,"x_max":163,"o":"m 163 451 l 78 451 l 78 983 l 163 983 l 163 451 m 163 -174 l 78 -174 l 78 358 l 163 358 l 163 -174 z "},"†":{"ha":469,"x_min":78,"x_max":414,"o":"m 242 1 l 208 633 l 240 794 q 183 785 204 793 q 133 763 161 778 q 106 748 117 753 q 78 743 94 743 l 78 861 q 106 856 94 861 q 133 842 117 851 q 183 819 161 826 q 240 810 204 811 q 230 870 239 847 q 206 917 221 893 q 198 931 204 921 q 189 951 192 942 q 186 972 186 961 l 304 972 q 285 918 304 947 q 261 870 269 893 q 251 810 253 847 q 309 819 288 811 q 358 842 331 826 q 387 856 375 851 q 414 861 399 861 l 414 743 q 387 748 399 743 q 358 763 375 753 q 309 785 331 778 q 251 794 288 793 l 285 633 l 250 1 l 242 1 z "},"‡":{"ha":469,"x_min":78,"x_max":414,"o":"m 186 -37 q 191 -12 186 -24 q 200 7 196 0 q 206 18 204 14 q 230 65 221 42 q 240 125 239 88 q 182 115 204 124 q 135 93 160 107 q 106 78 118 83 q 78 74 94 74 l 78 192 q 106 187 94 192 q 135 172 118 182 q 181 150 158 158 q 240 139 203 142 q 231 203 238 181 q 214 249 225 226 q 205 272 208 260 q 201 300 201 285 l 239 469 l 201 638 q 205 665 201 653 q 214 689 208 678 q 231 734 225 711 q 240 799 238 757 q 183 788 204 796 q 135 767 161 781 q 106 752 118 757 q 78 747 94 747 l 78 865 q 106 860 94 865 q 135 846 118 856 q 180 824 157 832 q 240 814 203 815 q 230 872 239 850 q 206 919 221 894 q 191 947 196 936 q 186 974 186 958 l 304 974 q 299 947 304 958 q 285 921 294 936 q 261 874 269 896 q 251 814 253 851 q 312 824 289 815 q 358 846 335 832 q 387 860 375 856 q 414 865 399 865 l 414 747 q 387 751 399 747 q 357 765 375 756 q 312 788 335 779 q 251 799 289 796 q 260 734 254 757 q 278 689 267 711 q 287 665 283 678 q 290 638 290 653 l 250 469 l 290 300 q 278 249 290 276 q 261 203 268 226 q 251 139 254 179 q 312 150 289 142 q 357 172 335 158 q 385 187 374 182 q 414 192 397 192 l 414 74 q 387 78 399 74 q 358 93 375 83 q 309 116 331 108 q 251 125 288 124 q 261 65 253 88 q 285 17 269 42 q 304 -37 304 -12 l 186 -37 z "},"̈":{"ha":0,"x_min":-431,"x_max":-28,"o":"m -344 767 q -406 791 -381 767 q -431 853 -431 815 q -407 913 -431 888 q -349 939 -383 939 q -284 914 -311 939 q -257 853 -257 889 q -282 791 -257 815 q -344 767 -307 767 m -114 767 q -176 791 -151 767 q -201 853 -201 815 q -176 913 -201 888 q -114 938 -150 938 q -53 913 -78 938 q -28 853 -28 888 q -53 791 -28 815 q -114 767 -78 767 z "},"̇":{"ha":0,"x_min":-217,"x_max":-44,"o":"m -131 767 q -192 792 -167 767 q -217 853 -217 817 q -192 913 -217 888 q -131 938 -167 938 q -69 913 -94 938 q -44 853 -44 888 q -69 792 -44 817 q -131 767 -94 767 z "},"̀":{"ha":0,"x_min":-296,"x_max":-37,"o":"m -275 963 q -296 1008 -296 986 q -275 1049 -296 1032 q -228 1065 -254 1065 q -188 1053 -207 1065 q -158 1018 -169 1042 l -37 756 l -81 756 l -275 963 z "},"́":{"ha":0,"x_min":-294,"x_max":-36,"o":"m -174 1018 q -144 1053 -162 1042 q -106 1065 -126 1065 q -58 1049 -79 1065 q -36 1007 -36 1032 q -57 963 -36 986 l -251 756 l -294 756 l -174 1018 z "},"̋":{"ha":0,"x_min":-490,"x_max":-22,"o":"m -371 1018 q -341 1053 -360 1042 q -301 1065 -322 1065 q -253 1049 -275 1065 q -232 1007 -232 1032 q -253 963 -232 986 l -449 756 l -490 756 l -371 1018 m -161 1018 q -131 1053 -150 1042 q -92 1065 -112 1065 q -43 1049 -64 1065 q -22 1007 -22 1032 q -42 963 -22 983 l -239 756 l -279 756 l -161 1018 z "},"̂":{"ha":0,"x_min":-408,"x_max":-28,"o":"m -287 1018 q -260 1053 -278 1042 q -221 1065 -242 1065 q -178 1053 -199 1065 q -149 1018 -158 1040 l -28 756 l -71 756 l -218 949 l -365 756 l -408 756 l -287 1018 z "},"̌":{"ha":0,"x_min":-408,"x_max":-28,"o":"m -408 1067 l -365 1067 l -218 874 l -71 1067 l -28 1067 l -149 804 q -178 769 -158 782 q -221 757 -199 757 q -260 769 -242 757 q -287 804 -278 781 l -408 1067 z "},"̆":{"ha":0,"x_min":-497,"x_max":-22,"o":"m -260 763 q -374 788 -321 763 q -462 862 -428 813 q -497 981 -496 911 l -451 981 q -390 885 -446 919 q -260 851 -333 851 q -130 885 -186 851 q -68 981 -74 919 l -22 981 q -58 862 -24 911 q -145 788 -92 813 q -260 763 -199 763 z "},"̊":{"ha":0,"x_min":-342,"x_max":-33,"o":"m -187 749 q -296 794 -250 749 q -342 903 -342 840 q -296 1011 -342 965 q -187 1057 -250 1057 q -79 1011 -125 1057 q -33 903 -33 965 q -79 794 -33 840 q -187 749 -125 749 m -187 801 q -117 831 -147 801 q -87 903 -87 861 q -117 973 -87 943 q -187 1003 -147 1003 q -258 973 -228 1003 q -287 903 -287 943 q -258 831 -287 861 q -187 801 -228 801 z "},"̃":{"ha":0,"x_min":-532,"x_max":-19,"o":"m -128 767 q -301 806 -185 767 q -383 830 -353 822 q -437 838 -414 838 q -478 825 -464 838 q -492 783 -492 813 l -532 783 q -424 918 -532 918 q -351 908 -390 918 q -253 881 -312 899 q -114 847 -158 847 q -74 860 -87 847 q -60 901 -60 872 l -19 901 q -128 767 -19 767 z "},"̄":{"ha":0,"x_min":-497,"x_max":-22,"o":"m -22 786 l -497 786 l -497 863 l -22 863 l -22 786 z "},"̒":{"ha":0,"x_min":-212,"x_max":-37,"o":"m -124 756 q -188 784 -164 756 q -212 856 -212 813 q -181 988 -212 915 q -114 1097 -149 1061 l -94 1088 q -119 1037 -110 1067 q -128 981 -128 1007 q -118 950 -128 961 q -89 926 -108 939 q -51 894 -64 911 q -37 844 -37 878 q -63 780 -37 804 q -124 756 -89 756 z "},"̦":{"ha":0,"x_min":-212,"x_max":-37,"o":"m -156 -410 q -130 -357 -140 -386 q -119 -303 -119 -328 q -130 -271 -119 -282 q -160 -247 -140 -260 q -199 -215 -186 -232 q -212 -165 -212 -199 q -186 -102 -212 -126 q -125 -78 -160 -78 q -61 -106 -85 -78 q -37 -179 -37 -135 q -69 -310 -37 -237 q -136 -419 -101 -383 l -156 -410 z "},"̧":{"ha":0,"x_min":-312,"x_max":-36,"o":"m -203 -279 q -151 -260 -171 -279 q -131 -212 -131 -240 q -160 -151 -131 -179 q -244 -115 -189 -124 l -176 24 l -126 24 l -168 -65 q -69 -121 -101 -87 q -36 -192 -36 -154 q -78 -287 -36 -253 q -181 -322 -121 -322 q -253 -308 -218 -322 q -312 -264 -287 -293 l -299 -243 q -203 -279 -247 -279 z "},"̨":{"ha":0,"x_min":-322,"x_max":-35,"o":"m -35 -233 q -104 -284 -65 -267 q -182 -301 -143 -301 q -281 -267 -240 -301 q -322 -175 -322 -233 q -294 -76 -322 -131 q -208 39 -267 -22 l -181 22 q -233 -115 -233 -50 q -201 -199 -233 -167 q -125 -231 -169 -231 q -54 -206 -85 -231 l -35 -233 z "},"̵":{"ha":0,"x_min":-490,"x_max":-22,"o":"m -22 344 l -490 344 l -490 429 l -22 429 l -22 344 z "},"̶":{"ha":0,"x_min":-551,"x_max":-17,"o":"m -17 344 l -551 344 l -551 429 l -17 429 l -17 344 z "},"̷":{"ha":0,"x_min":-533,"x_max":-19,"o":"m -424 -35 l -533 -35 l -131 460 l -19 460 l -424 -35 z "},"̸":{"ha":0,"x_min":-814,"x_max":3,"o":"m -704 -65 l -814 -65 l -110 844 l 3 844 l -704 -65 z "},"¨":{"ha":514,"x_min":83,"x_max":486,"o":"m 169 767 q 108 791 133 767 q 83 853 83 815 q 107 913 83 888 q 165 939 131 939 q 230 914 203 939 q 257 853 257 889 q 232 791 257 815 q 169 767 207 767 m 400 767 q 338 791 363 767 q 313 853 313 815 q 338 913 313 888 q 400 938 364 938 q 461 913 436 938 q 486 853 486 888 q 461 791 486 815 q 400 767 436 767 z "},"˙":{"ha":317,"x_min":100,"x_max":272,"o":"m 186 767 q 125 792 150 767 q 100 853 100 817 q 125 913 100 888 q 186 938 150 938 q 247 913 222 938 q 272 853 272 888 q 247 792 272 817 q 186 767 222 767 z "},"`":{"ha":388,"x_min":92,"x_max":350,"o":"m 113 963 q 92 1008 92 986 q 113 1049 92 1032 q 160 1065 133 1065 q 199 1053 181 1065 q 229 1018 218 1042 l 350 756 l 307 756 l 113 963 z "},"´":{"ha":388,"x_min":93,"x_max":351,"o":"m 214 1018 q 243 1053 225 1042 q 282 1065 261 1065 q 330 1049 308 1065 q 351 1007 351 1032 q 331 963 351 986 l 136 756 l 93 756 l 214 1018 z "},"˝":{"ha":568,"x_min":78,"x_max":546,"o":"m 197 1018 q 227 1053 208 1042 q 267 1065 246 1065 q 315 1049 293 1065 q 336 1007 336 1032 q 315 963 336 986 l 119 756 l 78 756 l 197 1018 m 407 1018 q 437 1053 418 1042 q 476 1065 456 1065 q 525 1049 504 1065 q 546 1007 546 1032 q 526 963 546 983 l 329 756 l 289 756 l 407 1018 z "},"ˆ":{"ha":492,"x_min":83,"x_max":464,"o":"m 204 1018 q 232 1053 214 1042 q 271 1065 250 1065 q 313 1053 293 1065 q 343 1018 333 1040 l 464 756 l 421 756 l 274 949 l 126 756 l 83 756 l 204 1018 z "},"ˇ":{"ha":492,"x_min":83,"x_max":464,"o":"m 83 1067 l 126 1067 l 274 874 l 421 1067 l 464 1067 l 343 804 q 313 769 333 782 q 271 757 293 757 q 232 769 250 757 q 204 804 214 781 l 83 1067 z "},"˘":{"ha":575,"x_min":78,"x_max":553,"o":"m 315 763 q 201 788 254 763 q 113 862 147 813 q 78 981 79 911 l 124 981 q 185 885 129 919 q 315 851 242 851 q 445 885 389 851 q 507 981 501 919 l 553 981 q 517 862 551 911 q 430 788 483 813 q 315 763 376 763 z "},"˚":{"ha":431,"x_min":89,"x_max":397,"o":"m 243 749 q 135 794 181 749 q 89 903 89 840 q 135 1011 89 965 q 243 1057 181 1057 q 351 1011 306 1057 q 397 903 397 965 q 351 794 397 840 q 243 749 306 749 m 243 801 q 313 831 283 801 q 343 903 343 861 q 313 973 343 943 q 243 1003 283 1003 q 173 973 203 1003 q 143 903 143 943 q 173 831 143 861 q 243 801 203 801 z "},"˜":{"ha":607,"x_min":75,"x_max":588,"o":"m 479 767 q 306 806 422 767 q 224 830 254 822 q 169 838 193 838 q 129 825 143 838 q 115 783 115 813 l 75 783 q 183 918 75 918 q 256 908 217 918 q 354 881 294 899 q 493 847 449 847 q 533 860 519 847 q 547 901 547 872 l 588 901 q 479 767 588 767 z "},"¯":{"ha":575,"x_min":78,"x_max":553,"o":"m 553 786 l 78 786 l 78 863 l 553 863 l 553 786 z "},"¸":{"ha":404,"x_min":92,"x_max":368,"o":"m 201 -279 q 253 -260 233 -279 q 274 -212 274 -240 q 244 -151 274 -179 q 160 -115 215 -124 l 228 24 l 278 24 l 236 -65 q 335 -121 303 -87 q 368 -192 368 -154 q 326 -287 368 -253 q 224 -322 283 -322 q 151 -308 186 -322 q 92 -264 117 -293 l 106 -243 q 201 -279 157 -279 z "},"˛":{"ha":413,"x_min":90,"x_max":378,"o":"m 378 -233 q 308 -284 347 -267 q 231 -301 269 -301 q 131 -267 172 -301 q 90 -175 90 -233 q 118 -76 90 -131 q 204 39 146 -22 l 232 22 q 179 -115 179 -50 q 211 -199 179 -167 q 288 -231 243 -231 q 358 -206 328 -231 l 378 -233 z "}}}
